<svg xmlns="http://www.w3.org/2000/svg" xmlns:xlink="http://www.w3.org/1999/xlink" width="775" height="378" viewBox="0 0 775 378">
  <defs>
    <clipPath id="clip-path">
      <rect id="Rectangle_5" data-name="Rectangle 5" width="775" height="378" transform="translate(94 47)" fill="#fff"/>
    </clipPath>
  </defs>
  <g id="Mask_Group_2" data-name="Mask Group 2" transform="translate(-94 -47)" clip-path="url(#clip-path)">
    <g id="Group_6" data-name="Group 6" transform="translate(60.433 32.219)">
      <g id="Group_5" data-name="Group 5" transform="translate(38 18.355)">
        <path id="Path_4432" data-name="Path 4432" d="M197.973,261.353s1.158-147.922,126.6-166.409c0,0,101.131-15.275,159.029,47.832,0,0,37.442,37.382,34.74,120.586,0,0-319.795-2.613-320.374-2.01" transform="translate(31.825 15)" fill="#377198"/>
        <path id="Path_4448" data-name="Path 4448" d="M25.715,236.818s14.411,34.871,74.111,32.3c0,0,46.319-14.411,99.843,30.365,0,0,5.661,11.835,72.564,4.631,0,0,10.892-3.961,82.7,26.969q2.105.907,4.277,1.853s79.257,8.234,146.677-31.909c0,0,53.01-31.908,120.431-24.706,0,0,81.315-.518,101.9-40.657,0,0-700.576,3.085-702.507,1.155" transform="translate(4.139 37.016)" fill="#f0f8ff"/>
        <path id="Path_4433" data-name="Path 4433" d="M197.64,254.261l89.164.386s87.428-24.706,101.709-36.862c0,0,96.5-56.163,100.553-70.251,0,0-71.536-80.8-187.975-46.9,0,0-94.182,20.457-103.446,153.624" transform="translate(31.773 14.84)" fill="#0093d5"/>
        <path id="Path_4434" data-name="Path 4434" d="M220.467,158.512l27.02,40.653,22.774-13.814,17.37,42.626s-30.494,14.21-30.879,18.156H197.308s8.491-73.412,23.159-87.621" transform="translate(31.719 25.479)" fill="#acd85f"/>
        <path id="Path_4435" data-name="Path 4435" d="M240.538,130.958l17.488,6.171a9.934,9.934,0,0,0,12.434-5.442l7.119-16.537a3.813,3.813,0,0,1,4.1-2.257l8.716,1.387a9.314,9.314,0,0,0,9.021-3.75c2.592-3.588,5.7-8.748,6.354-13.543,0,0-35.9,5.018-65.232,33.968" transform="translate(38.668 15.59)" fill="#add95e"/>
        <path id="Path_4436" data-name="Path 4436" d="M345.125,93.687l-22,20.458c-4,4.8-3.571,14.47-2.419,20.612a36.959,36.959,0,0,0,13.617,23.006s20.458,13.51,3.087,32.038c0,0-16.6,20.457-8.106,35.9,0,0,16.212,30.107,24.318,29.722H442.4s27.406-23.929,15.054-47.477c0,0-5.018-22.774-62.53-36.282,0,0-52.109-25.475-20.072-37.827,0,0,13.51-5.4,47.091,26.247,0,0,11.576,13.124,26.247-32.809,0,0-49.792-36.282-103.058-33.581" transform="translate(51.424 15.035)" fill="#acd85f"/>
        <path id="Path_4437" data-name="Path 4437" d="M228.9,163.8,241.251,188.5s11.194,3.087,13.51-2.7c0,0-5.386-8.221-6.926-13.735a9.5,9.5,0,0,1-.408-2.48c0-5.018-8.877-12.738-10.035-12.738s-8.879.772-8.492,6.948" transform="translate(36.795 25.211)" fill="#acd85f"/>
        <path id="Path_4438" data-name="Path 4438" d="M253.562,145.1h0a5.762,5.762,0,0,1-3.924-5.025l-.3-3.892a1.684,1.684,0,0,1,2.087-1.762l6.012,1.5a8.269,8.269,0,0,0,7.3-1.671l1.235-1.028a5.94,5.94,0,0,1,5.576-1.107,3.939,3.939,0,0,1,2.743,4.178l-2.465,23.118a3.155,3.155,0,0,1-2.9,2.813l-3.07.227a6,6,0,0,1-6.164-4.167l-3.277-10.3a4.477,4.477,0,0,0-2.851-2.89" transform="translate(40.082 21.192)" fill="#add85e"/>
        <path id="Path_4439" data-name="Path 4439" d="M293.642,228.293l11.194.386s3.087-1.351,2.123-5.984c0,0-4.053-7.141-10.422-4.053,0,0-7.913,4.053-2.895,9.65" transform="translate(46.936 35.019)" fill="#abd960"/>
        <path id="Path_4440" data-name="Path 4440" d="M421.508,163.717s.193,7.528-7.141,4.825c0,0-7.528-5.4-2.316-11.194,0,0,4.052,1.544,4.439,3.667,0,0,5.6.966,5.018,2.7" transform="translate(65.941 25.292)" fill="#acdb58"/>
        <path id="Path_4441" data-name="Path 4441" d="M430.544,168.54c0,1.865-1.814,3.378-4.053,3.378s-4.052-1.513-4.052-3.378,1.814-3.378,4.052-3.378,4.053,1.513,4.053,3.378" transform="translate(67.906 26.547)" fill="#acd85f"/>
        <path id="Path_4442" data-name="Path 4442" d="M418.777,204.392c0,16.456-9.593,29.8-21.424,29.8s-21.424-13.34-21.424-29.8,9.589-29.8,21.424-29.8,21.424,13.34,21.424,29.8" transform="translate(60.427 28.063)" fill="#326888"/>
        <path id="Path_4443" data-name="Path 4443" d="M303.912,204.566c0,16.456-9.593,29.8-21.424,29.8s-21.424-13.34-21.424-29.8,9.589-29.8,21.424-29.8,21.424,13.341,21.424,29.8" transform="translate(41.966 28.092)" fill="#326888"/>
        <path id="Path_4444" data-name="Path 4444" d="M395.419,193.994c0,5.788-3.11,10.48-6.946,10.48s-6.945-4.692-6.945-10.48,3.11-10.48,6.945-10.48,6.946,4.692,6.946,10.48" transform="translate(61.329 29.497)" fill="#f8fcfe"/>
        <path id="Path_4445" data-name="Path 4445" d="M281.266,194.5c0,5.788-3.11,10.48-6.946,10.48s-6.945-4.692-6.945-10.48,3.11-10.48,6.945-10.48,6.946,4.692,6.946,10.48" transform="translate(42.981 29.579)" fill="#f8fcfe"/>
        <path id="Path_4446" data-name="Path 4446" d="M474.2,223.593s12.094,5.661,31.909-3.345c0,0,9.778-7.978,24.706,5.4,0,0,16.469,13.381,3.345,34.224,0,0-13.639,18.012-23.417,2.83,0,0,3.087-20.072-4.118-15.7,0,0-14.409,8.492-10.55-7.462,0,0,7.977-15.7,25.99-15.441,0,0-7.72-5.4-20.072,1.545,0,0-11.576,7.462-27.791,1.8Z" transform="translate(76.226 35.022)" fill="#1b4274"/>
        <path id="Path_4447" data-name="Path 4447" d="M205.633,227.747s-15.7-8.234-32.68-6.691c0,0-25.219-3.6-24.188,21.615,0,0,7.2,34.225,23.67,25.733,0,0,10.037-3.861,6.691-20.072l7.977,5.145s6.691,1.03.518-14.409c0,0-8.234-13.639-12.353-13.9s15.7-1.286,29.336,6.691Z" transform="translate(23.909 35.501)" fill="#1b4274"/>
        <path id="Path_4449" data-name="Path 4449" d="M0,102.3s12.353,14.411,58.156,9.264c0,0,57.641,3.6,60.729-11.323,0,0,6.691-3.6-13.639-3.087,0,0,8.492-13.124-8.234-13.9L86.719,85.316s-6.177-11.065-17.5,1.03c0,0,5.147-13.639-10.551-16.726,0,0-23.417-2.316-24.706,21.358,0,0-11.323,1.03-9.521,9.264,0,0-16.212-7.462-24.447,2.059" transform="translate(0.005 11.18)" fill="#ddeefc"/>
        <path id="Path_4450" data-name="Path 4450" d="M163.389,53.654s2.83,22.9,85.987,12.592c0,0,95.687,15.972,84.254-12.28,0,0-8.379-11.12-18.807-4.04,0,0-15.636,13.1-20.713-.131l-4.688-14.584s-15.895-14.753-24.231.841c0,0-3.245-6.845-13.8,1.133,0,0-17.757-44.261-42.459-2.317,0,0-23.16-21.873-24.96,11.835,0,0-9-4.357-20.586,6.948" transform="translate(26.267 2.702)" fill="#f0f8ff"/>
        <path id="Path_4451" data-name="Path 4451" d="M365.13,14.154s33.453,13.124,75.14,1.286c0,0,.518-3.345-10.809-1.8,0,0,8.492-9.007-8.748-13.125,0,0-12.353-3.6-12.867,8.234,0,0-10.55-6.175-13.381,4.375,0,0-23.159-7.462-29.336,1.03" transform="translate(58.694 0)" fill="#f0f8ff"/>
        <path id="Path_4452" data-name="Path 4452" d="M434.854,93.871l135.1-.259s31.4-5.4,20.073-19.3c0,0-19.3-7.72-26.506.518,0,0-14.153-21.616-40.142-13.381,0,0-14.926,11.064-14.669,14.409,0,0-7.975-7.719-7.72,2.573,0,0-32.421-19.813-39.628-8.748,0,0-5.66,6.433-2.573,11.576l-27.79,1.03s-13.382,6.691,3.86,11.576" transform="translate(68.484 9.576)" fill="#f0f8ff"/>
        <path id="Path_4453" data-name="Path 4453" d="M669.974,176.649s-48.117,5.4-68.706,1.03c0,0-19.3-2.059-3.86-10.294,0,0,13.125-2.831,21.616,3.345,0,0,1.8-6.177,6.947-3.087,0,0,8.492-22.13,29.079-.259,0,0,12.353-9.007,7.2,4.889,0,0,14.668-.518,7.72,4.375" transform="translate(95.067 25.353)" fill="#ddeefc"/>
        <rect id="Rectangle_204" data-name="Rectangle 204" width="766.905" height="371.508" transform="translate(0.004)" fill="none"/>
      </g>
      <text id="_4" data-name="4" transform="translate(42.567 291.781)" fill="#0093d5" font-size="288" font-family="SegoeUI-Bold, Segoe UI" font-weight="700"><tspan x="0" y="0">4</tspan></text>
      <text id="_4-2" data-name="4" transform="translate(631.567 291.781)" fill="#0093d5" font-size="288" font-family="SegoeUI-Bold, Segoe UI" font-weight="700"><tspan x="0" y="0">4</tspan></text>
      <line id="Line_47" data-name="Line 47" x2="667.76" transform="translate(113.592 291.307)" fill="none" stroke="#1b4274" stroke-width="3"/>
    </g>
  </g>
</svg>
