<svg xmlns="http://www.w3.org/2000/svg" width="97" height="97" viewBox="0 0 97 97">
  <g id="Guidance" transform="translate(-78.408 -21.856)">
    <path id="Path_859" data-name="Path 859" d="M187.925,75.044,174.773,64.67a2.451,2.451,0,0,0-1.529-.543H142.829V47.934h22.193a2.449,2.449,0,0,0,1.644-.592L179.818,36.59a2.514,2.514,0,0,0,.9-1.94,2.416,2.416,0,0,0-.937-1.907l-13.152-10.39a2.432,2.432,0,0,0-1.611-.493h-24.66a2.466,2.466,0,0,0-2.466,2.466V43H107.481a2.436,2.436,0,0,0-1.529.526L92.8,53.918a2.418,2.418,0,0,0-.937,1.907,2.468,2.468,0,0,0,.9,1.924l13.152,10.768a2.529,2.529,0,0,0,1.562.542H137.9v44.865H121.8a2.466,2.466,0,1,0,0,4.932h37.123a2.466,2.466,0,1,0,0-4.932h-16.1V90.2h30.415a2.45,2.45,0,0,0,1.644-.559L188.039,78.89h0a2.5,2.5,0,0,0,.822-1.957,2.434,2.434,0,0,0-.937-1.891ZM137.9,64.127H108.306L98.2,55.907l10.078-7.94h29.592Z" transform="translate(-13.455 0)" fill="#27535f"/>
  </g>
</svg>
