<svg xmlns="http://www.w3.org/2000/svg" width="90.31" height="97" viewBox="0 0 90.31 97">
  <g id="Hand-Sanitizer" transform="translate(-89.309 -0.005)">
    <path id="Path_865" data-name="Path 865" d="M338.626,319.87v-4.458h-5.576v4.458a1.119,1.119,0,0,1-1.118,1.118h-4.459v5.576h4.459a1.119,1.119,0,0,1,1.118,1.118v4.459l5.576,0v-4.458a1.119,1.119,0,0,1,1.118-1.118l4.458,0v-5.576h-4.458a1.119,1.119,0,0,1-1.118-1.118Z" transform="translate(-196.911 -260.774)" fill="#27535f" fill-rule="evenodd"/>
    <path id="Path_866" data-name="Path 866" d="M274.348,4.46h6.694a2.227,2.227,0,1,0,0-4.455H256.513a2.224,2.224,0,0,0-1.577.652l-7.249,7.249a2.231,2.231,0,0,0,3.153,3.156L257.107,4.8a1.129,1.129,0,0,1,.79-.327l7.538-.007h8.914Z" transform="translate(-130.406)" fill="#27535f" fill-rule="evenodd"/>
    <path id="Path_867" data-name="Path 867" d="M359.69,38.582h6.694V49.735H359.69Z" transform="translate(-223.547 -31.895)" fill="#27535f" fill-rule="evenodd"/>
    <path id="Path_868" data-name="Path 868" d="M124,384.256a4.455,4.455,0,1,1-4.455-4.455A4.455,4.455,0,0,1,124,384.256" transform="translate(-21.317 -314.01)" fill="#27535f" fill-rule="evenodd"/>
    <path id="Path_869" data-name="Path 869" d="M89.309,131.837a7.8,7.8,0,0,0,15.607,0c0-3.314-5.048-9.719-7.8-12.829-2.751,3.117-7.8,9.519-7.8,12.829Z" transform="translate(0 -98.39)" fill="#27535f" fill-rule="evenodd"/>
    <path id="Path_870" data-name="Path 870" d="M298.61,122.519h22.3a3.345,3.345,0,0,0,0-6.69l-6.694,0H298.6a3.347,3.347,0,1,0,.008,6.694Z" transform="translate(-170.276 -95.759)" fill="#27535f" fill-rule="evenodd"/>
    <path id="Path_871" data-name="Path 871" d="M557.457,37.749a5.576,5.576,0,1,1-5.577-5.577,5.576,5.576,0,0,1,5.577,5.577" transform="translate(-377.837 -26.595)" fill="#27535f" fill-rule="evenodd"/>
    <path id="Path_872" data-name="Path 872" d="M279.545,167.35H244.161a6.84,6.84,0,0,0-6.837,6.837v50.028l42.363,0a1.118,1.118,0,1,1,0,2.236l-42.366,0v2.077a6.84,6.84,0,0,0,6.837,6.837h35.381a6.84,6.84,0,0,0,6.837-6.837V174.195a6.83,6.83,0,0,0-6.828-6.844Zm-17.692,51.289A17.838,17.838,0,1,1,279.691,200.8,17.862,17.862,0,0,1,261.853,218.639Z" transform="translate(-122.374 -138.359)" fill="#27535f" fill-rule="evenodd"/>
    <path id="Path_873" data-name="Path 873" d="M304.462,270.31a15.607,15.607,0,1,0,15.607,15.607A15.626,15.626,0,0,0,304.462,270.31ZM314.5,290.384a1.119,1.119,0,0,1-1.118,1.118h-4.459v4.459a1.118,1.118,0,0,1-1.118,1.118H300a1.119,1.119,0,0,1-1.118-1.118V291.5h-4.458a1.119,1.119,0,0,1-1.118-1.118v-7.8a1.119,1.119,0,0,1,1.118-1.118h4.458V277A1.119,1.119,0,0,1,300,275.886h7.8A1.119,1.119,0,0,1,308.924,277v4.459h4.459a1.119,1.119,0,0,1,1.118,1.118Z" transform="translate(-164.982 -223.484)" fill="#27535f" fill-rule="evenodd"/>
  </g>
</svg>
