<svg id="Ilustration" xmlns="http://www.w3.org/2000/svg" xmlns:xlink="http://www.w3.org/1999/xlink" width="862.571" height="117.224" viewBox="0 0 862.571 117.224">
  <defs>
    <clipPath id="clip-path">
      <rect id="Rectangle_169" data-name="Rectangle 169" width="862.571" height="117.225" fill="none"/>
    </clipPath>
  </defs>
  <rect id="Rectangle_167" data-name="Rectangle 167" width="14.208" height="6.936" transform="translate(346.165 77.715) rotate(-0.076)" fill="none" stroke="#9b887b" stroke-linejoin="round" stroke-width="0.75"/>
  <rect id="Rectangle_168" data-name="Rectangle 168" width="5.315" height="20.229" transform="translate(327.046 92.766) rotate(-0.074)" fill="none" stroke="#9b887b" stroke-linejoin="round" stroke-width="0.75"/>
  <path id="Path_2776" data-name="Path 2776" d="M293.343,73.615l-11.315.014,11.32,4.117Z" transform="translate(42.331 11.049)" fill="none" stroke="#9b887b" stroke-linejoin="round" stroke-width="0.75"/>
  <g id="Group_443" data-name="Group 443" transform="translate(0 0)">
    <g id="Group_442" data-name="Group 442" clip-path="url(#clip-path)">
      <path id="Path_2777" data-name="Path 2777" d="M273.038,101.45l21.694-.028Z" transform="translate(40.982 15.223)" fill="none" stroke="#9b887b" stroke-linejoin="round" stroke-width="0.75"/>
    </g>
  </g>
  <rect id="Rectangle_170" data-name="Rectangle 170" width="5.315" height="20.229" transform="translate(318.07 92.778) rotate(-0.074)" fill="none" stroke="#9b887b" stroke-linejoin="round" stroke-width="0.75"/>
  <path id="Path_2778" data-name="Path 2778" d="M271.408,80.677l-2.651,0,.025,20.229,2.651,0h.013l2.651,0-.025-20.229h-.345Z" transform="translate(40.339 12.109)" fill="none" stroke="#9b887b" stroke-linejoin="round" stroke-width="0.75"/>
  <g id="Group_445" data-name="Group 445" transform="translate(0 0)">
    <g id="Group_444" data-name="Group 444" clip-path="url(#clip-path)">
      <path id="Path_2779" data-name="Path 2779" d="M301.036,105.587l14.209-.018-.04-31.981L301,73.605Zm6.476-21.2a2.416,2.416,0,0,1,2.412,2.4l.008,6.789a2.408,2.408,0,1,1-4.817.007l-.008-6.79A2.414,2.414,0,0,1,307.512,84.386Z" transform="translate(45.178 11.045)" fill="none" stroke="#9b887b" stroke-linejoin="round" stroke-width="0.75"/>
      <path id="Path_2780" data-name="Path 2780" d="M291.875,80.236l.337.123h-.337v.177h.338v1.638l0,2.023.026,20.229,0,2.023v1.638h-.337l10.5-.013-.04-31.982-.008-6.936-.016-12.137-10.5.013.015,12.138.008,6.935Z" transform="translate(43.804 8.558)" fill="none" stroke="#9b887b" stroke-linejoin="round" stroke-width="0.75"/>
      <path id="Path_2781" data-name="Path 2781" d="M297.089,52.5c-5.105.006-5.243,5.209-5.243,5.209l10.5-.014S302.195,52.5,297.089,52.5Z" transform="translate(43.804 7.88)" fill="none" stroke="#9b887b" stroke-linejoin="round" stroke-width="0.75"/>
      <path id="Path_2782" data-name="Path 2782" d="M306.99,94.583a2.414,2.414,0,0,0,2.4-2.411l-.008-6.79a2.408,2.408,0,1,0-4.817.007l.009,6.789A2.415,2.415,0,0,0,306.99,94.583Z" transform="translate(45.714 12.454)" fill="none" stroke="#9b887b" stroke-linejoin="round" stroke-width="0.75"/>
      <path id="Path_2783" data-name="Path 2783" d="M261.566,74.565l12.605-4.62v0l.006,0,.007,0v0L286.8,74.534l11.315-.015-.009-6.935-24.035.03-23.829.03.009,6.935Z" transform="translate(37.56 10.144)" fill="none" stroke="#9b887b" stroke-linejoin="round" stroke-width="0.75"/>
      <rect id="Rectangle_171" data-name="Rectangle 171" width="14.208" height="6.936" transform="matrix(1, -0.001, 0.001, 1, 263.094, 77.818)" fill="none" stroke="#9b887b" stroke-linejoin="round" stroke-width="0.75"/>
      <path id="Path_2784" data-name="Path 2784" d="M250.25,73.668l.006,4.131,11.309-4.145Z" transform="translate(37.561 11.055)" fill="none" stroke="#9b887b" stroke-linejoin="round" stroke-width="0.75"/>
      <rect id="Rectangle_172" data-name="Rectangle 172" width="5.315" height="20.229" transform="translate(291.144 92.811) rotate(-0.074)" fill="none" stroke="#9b887b" stroke-linejoin="round" stroke-width="0.75"/>
      <rect id="Rectangle_173" data-name="Rectangle 173" width="5.315" height="20.229" transform="translate(300.119 92.8) rotate(-0.074)" fill="none" stroke="#9b887b" stroke-linejoin="round" stroke-width="0.75"/>
      <path id="Path_2785" data-name="Path 2785" d="M277.548,105.616h-.109l-23.924.03-10.5.014-.04-31.982-14.208.017.04,31.982ZM238.905,93.492a2.408,2.408,0,1,1-4.817.006l-.008-6.789A2.408,2.408,0,0,1,238.9,86.7Z" transform="translate(34.337 11.059)" fill="none" stroke="#9b887b" stroke-linejoin="round" stroke-width="0.75"/>
      <path id="Path_2786" data-name="Path 2786" d="M274.18,77.521l2.319,0,21.619-.026v-.177l-23.925.03h-.013l-23.925.03v.177Z" transform="translate(37.562 11.604)" fill="none" stroke="#9b887b" stroke-linejoin="round" stroke-width="0.75"/>
      <path id="Path_2787" data-name="Path 2787" d="M274.18,78.5h.013l23.925-.03h.337l-.337-.123L286.8,74.227l-12.617-4.589v0l-.006,0-.007,0v0l-12.6,4.62L250.254,78.4v.123Z" transform="translate(37.562 10.452)" fill="none" stroke="#9b887b" stroke-linejoin="round" stroke-width="0.75"/>
      <path id="Path_2788" data-name="Path 2788" d="M241.163,108.15l10.5-.013h-.337l0-1.638,0-2.023L251.3,84.248l0-2.023,0-1.638h.338v-.3l0-4.131-.009-6.936L251.6,57.083l-10.5.013.016,12.138.008,6.935Z" transform="translate(36.188 8.568)" fill="none" stroke="#9b887b" stroke-linejoin="round" stroke-width="0.75"/>
      <path id="Path_2789" data-name="Path 2789" d="M246.343,52.565c-5.105.007-5.243,5.209-5.243,5.209l10.5-.014S251.449,52.559,246.343,52.565Z" transform="translate(36.188 7.89)" fill="none" stroke="#9b887b" stroke-linejoin="round" stroke-width="0.75"/>
      <path id="Path_2790" data-name="Path 2790" d="M235.792,82.912a2.414,2.414,0,0,0-2.4,2.411l.008,6.789a2.408,2.408,0,1,0,4.817-.006l-.008-6.789A2.416,2.416,0,0,0,235.792,82.912Z" transform="translate(35.03 12.445)" fill="none" stroke="#9b887b" stroke-linejoin="round" stroke-width="0.75"/>
      <path id="Path_2791" data-name="Path 2791" d="M298.534,105.018l0-1.638,0-2.023L298.5,81.128l0-2.023,0-1.638h-.337l-21.619.028-2.319,0-23.925.029h-.337l0,1.638,0,2.023.025,20.229,0,2.023,0,1.638h.337l23.925-.03h.108l2.136,0,21.694-.028Zm-39.567-3.611-5.315.007-.025-20.229,5.315-.007Zm8.975-.011-5.315.007L262.6,81.173l5.315-.007Zm8.975-.01-2.651,0h-.013l-2.651,0-.025-20.229,2.651,0,2.319,0h.345Zm8.975-.011-5.315.007-.025-20.23,5.315-.006Zm8.975-.012-5.315.007-.025-20.229,5.315-.007Z" transform="translate(37.518 11.627)" fill="none" stroke="#9b887b" stroke-linejoin="round" stroke-width="0.75"/>
      <rect id="Rectangle_174" data-name="Rectangle 174" width="32.174" height="5.972" transform="translate(295.344 71.808) rotate(-0.077)" fill="none" stroke="#9b887b" stroke-linejoin="round" stroke-width="0.75"/>
      <path id="Path_2792" data-name="Path 2792" d="M288.955,47.323l-2.48,0-21.755.026-7.939.01.007,5.972,32.175-.04Z" transform="translate(38.541 7.103)" fill="none" stroke="#9b887b" stroke-linejoin="round" stroke-width="0.75"/>
      <rect id="Rectangle_175" data-name="Rectangle 175" width="32.174" height="11.366" transform="matrix(1, -0.001, 0.001, 1, 295.33, 60.439)" fill="none" stroke="#9b887b" stroke-linejoin="round" stroke-width="0.75"/>
      <path id="Path_2793" data-name="Path 2793" d="M286.049,48.055l-.007-5.587H285.9l-13.2.017-13.077.016.008,5.587,4.664-.006Z" transform="translate(38.968 6.374)" fill="none" stroke="#9b887b" stroke-linejoin="round" stroke-width="0.75"/>
      <path id="Path_2794" data-name="Path 2794" d="M272.718,44.16l13.2-.016s2.023-10.756-9.136-12.834v.054l-8.092.01v-.041c-11.086,2.132-9.044,12.843-9.044,12.843Z" transform="translate(38.949 4.699)" fill="none" stroke="#9b887b" stroke-linejoin="round" stroke-width="0.75"/>
      <path id="Path_2795" data-name="Path 2795" d="M275.58,31.822v-.054l0-3.51h-1.156l-5.779.008h-1.157l0,3.523v.041Z" transform="translate(40.148 4.241)" fill="none" stroke="#9b887b" stroke-linejoin="round" stroke-width="0.75"/>
      <path id="Path_2796" data-name="Path 2796" d="M274.269,29.013h0l0-2.89a2.89,2.89,0,0,0-5.78.007l0,2.89Z" transform="translate(40.298 3.488)" fill="none" stroke="#9b887b" stroke-linejoin="round" stroke-width="0.75"/>
      <path id="Path_2797" data-name="Path 2797" d="M509.316,49.99h0v0Z" transform="translate(76.446 7.503)" fill="none" stroke="#9b887b" stroke-linejoin="round" stroke-width="0.75"/>
      <path id="Path_2798" data-name="Path 2798" d="M566.205,50.161v0Z" transform="translate(84.984 7.5)" fill="none" stroke="#9b887b" stroke-linejoin="round" stroke-width="0.75"/>
      <path id="Path_2799" data-name="Path 2799" d="M509.329,81.35l.01,23.177,21.809-.009-.01-23.177ZM520.791,104.5l-7.45,0,0-11.531s-.446-7.45,7.447-7.454,7.454,7.447,7.454,7.447l0,11.531Z" transform="translate(76.447 12.209)" fill="none" stroke="#9b887b" stroke-linejoin="round" stroke-width="0.75"/>
      <path id="Path_2800" data-name="Path 2800" d="M513.389,38.406s-.446-7.45,7.447-7.454,7.455,7.448,7.455,7.448l0,11.531h2.829l-.01-25.547-21.809.008.012,25.548,4.077,0Z" transform="translate(76.444 3.66)" fill="none" stroke="#9b887b" stroke-linejoin="round" stroke-width="0.75"/>
      <path id="Path_2801" data-name="Path 2801" d="M547.255,81.334l.01,23.178,21.808-.009-.009-23.178Zm10.367,23.154-7.45,0,0-11.531s-.446-7.451,7.447-7.454,7.454,7.447,7.454,7.447l0,11.531Z" transform="translate(82.14 12.206)" fill="none" stroke="#9b887b" stroke-linejoin="round" stroke-width="0.75"/>
      <path id="Path_2802" data-name="Path 2802" d="M550.067,38.391s-.445-7.45,7.448-7.454,7.454,7.448,7.454,7.448l0,11.531,4.077,0-.01-25.547-21.809.009.011,25.547h2.829Z" transform="translate(82.136 3.657)" fill="none" stroke="#9b887b" stroke-linejoin="round" stroke-width="0.75"/>
      <path id="Path_2803" data-name="Path 2803" d="M539.186,55l-10.905,0,.01,24.7h3.454l-.006-11.531s-.445-7.45,7.448-7.454,7.454,7.448,7.454,7.448l.006,11.531H550.1L550.089,55Z" transform="translate(79.292 8.255)" fill="none" stroke="#9b887b" stroke-linejoin="round" stroke-width="0.75"/>
      <path id="Path_2804" data-name="Path 2804" d="M513.4,68.187s-.446-7.45,7.448-7.454,7.454,7.448,7.454,7.448l0,11.531h2.829l-.009-24.705-21.809.009.01,24.7h4.077Z" transform="translate(76.446 8.256)" fill="none" stroke="#9b887b" stroke-linejoin="round" stroke-width="0.75"/>
      <path id="Path_2805" data-name="Path 2805" d="M539.2,81.338l-10.9,0,.009,23.177,10.9,0,10.905,0-.01-23.177Zm.086,23.157h-.153l-7.452,0,0-11.531s-.445-7.45,7.448-7.454l.077,0,.076,0c7.893,0,7.454,7.447,7.454,7.447l0,11.531Z" transform="translate(79.294 12.208)" fill="none" stroke="#9b887b" stroke-linejoin="round" stroke-width="0.75"/>
      <path id="Path_2806" data-name="Path 2806" d="M547.254,79.7h2.83l-.006-11.531s-.445-7.45,7.448-7.454,7.454,7.447,7.454,7.447l0,11.531h4.078l-.01-24.7L547.244,55Z" transform="translate(82.138 8.254)" fill="none" stroke="#9b887b" stroke-linejoin="round" stroke-width="0.75"/>
      <path id="Path_2807" data-name="Path 2807" d="M542.043,82.067l10.905,0,21.808-.009,0-5.583h-4.077l-7.451,0-7.45,0h-6.284l-7.45,0-7.45,0h-6.284l-7.45,0-7.451,0h-4.077l0,5.584,21.809-.009Z" transform="translate(76.447 11.478)" fill="none" stroke="#9b887b" stroke-linejoin="round" stroke-width="0.75"/>
      <path id="Path_2808" data-name="Path 2808" d="M542.032,55.758l10.9,0,21.809-.009,0-5.583v-.2l-21.809.009-10.9,0-10.905,0-21.808.009v.194l0,5.584,21.809-.009Z" transform="translate(76.446 7.5)" fill="none" stroke="#9b887b" stroke-linejoin="round" stroke-width="0.75"/>
      <rect id="Rectangle_176" data-name="Rectangle 176" width="21.809" height="3.312" transform="translate(585.749 24.735)" fill="none" stroke="#9b887b" stroke-linejoin="round" stroke-width="0.75"/>
      <path id="Path_2809" data-name="Path 2809" d="M531.125,50.493l10.9,0,10.905,0,21.809-.009,0-3.894-4.077,0-7.451,0-7.45,0h-2.83l-10.9,0-10.9,0h-2.83l-7.45,0-7.451,0-4.077,0V50.5Z" transform="translate(76.445 6.991)" fill="none" stroke="#9b887b" stroke-linejoin="round" stroke-width="0.75"/>
      <rect id="Rectangle_177" data-name="Rectangle 177" width="21.809" height="3.313" transform="translate(629.367 24.716)" fill="none" stroke="#9b887b" stroke-linejoin="round" stroke-width="0.75"/>
      <path id="Path_2810" data-name="Path 2810" d="M538.738,59.978c-7.894,0-7.448,7.454-7.448,7.454l.006,11.531,7.449,0,7.451,0-.006-11.531S546.631,59.975,538.738,59.978Z" transform="translate(79.743 9.002)" fill="none" stroke="#9b887b" stroke-linejoin="round" stroke-width="0.75"/>
      <path id="Path_2811" data-name="Path 2811" d="M520.317,59.986c-7.893,0-7.448,7.454-7.448,7.454l.006,11.531,7.45,0,7.45,0,0-11.531S528.21,59.983,520.317,59.986Z" transform="translate(76.978 9.004)" fill="none" stroke="#9b887b" stroke-linejoin="round" stroke-width="0.75"/>
      <path id="Path_2812" data-name="Path 2812" d="M520.3,30.095c-7.893,0-7.447,7.454-7.447,7.454l0,11.531,7.45,0,7.45,0,0-11.531S528.2,30.092,520.3,30.095Z" transform="translate(76.976 4.517)" fill="none" stroke="#9b887b" stroke-linejoin="round" stroke-width="0.75"/>
      <path id="Path_2813" data-name="Path 2813" d="M520.261,84.976c-7.893,0-7.448,7.454-7.448,7.454l0,11.531,7.452,0,7.45,0,0-11.531S528.154,84.973,520.261,84.976Z" transform="translate(76.97 12.754)" fill="none" stroke="#9b887b" stroke-linejoin="round" stroke-width="0.75"/>
      <path id="Path_2814" data-name="Path 2814" d="M557.158,59.97c-7.893,0-7.448,7.454-7.448,7.454l.006,11.531,7.45,0,7.45,0,0-11.531S565.051,59.967,557.158,59.97Z" transform="translate(82.508 9.001)" fill="none" stroke="#9b887b" stroke-linejoin="round" stroke-width="0.75"/>
      <path id="Path_2815" data-name="Path 2815" d="M557.145,30.08c-7.893,0-7.448,7.454-7.448,7.454l.006,11.531,7.45,0,7.45,0,0-11.531S565.038,30.077,557.145,30.08Z" transform="translate(82.506 4.515)" fill="none" stroke="#9b887b" stroke-linejoin="round" stroke-width="0.75"/>
      <path id="Path_2816" data-name="Path 2816" d="M538.835,84.968l-.077,0-.076,0c-7.894,0-7.448,7.454-7.448,7.454l0,11.531,7.45,0h.154l7.45,0,0-11.531S546.728,84.965,538.835,84.968Z" transform="translate(79.735 12.753)" fill="none" stroke="#9b887b" stroke-linejoin="round" stroke-width="0.75"/>
      <path id="Path_2817" data-name="Path 2817" d="M557.235,84.96c-7.893,0-7.448,7.454-7.448,7.454l0,11.531,7.451,0,7.45,0,0-11.531S565.128,84.957,557.235,84.96Z" transform="translate(82.519 12.752)" fill="none" stroke="#9b887b" stroke-linejoin="round" stroke-width="0.75"/>
      <path id="Path_2818" data-name="Path 2818" d="M16.34,24.468Z" transform="translate(2.453 3.673)" fill="none" stroke="#9b887b" stroke-linejoin="round" stroke-width="0.75"/>
      <path id="Path_2819" data-name="Path 2819" d="M21.226,24.472Z" transform="translate(3.148 3.673)" fill="none" stroke="#9b887b" stroke-linejoin="round" stroke-width="0.75"/>
      <path id="Path_2820" data-name="Path 2820" d="M26.047,24.476h0Z" transform="translate(3.91 3.674)" fill="none" stroke="#9b887b" stroke-linejoin="round" stroke-width="0.75"/>
      <path id="Path_2821" data-name="Path 2821" d="M30.62,24.48H28.71l-3.672,0H22.879l-3.424,0H17.548l-3.079,0-6.137,0L8.294,71.105,8.3,62.182h1.977l.007-8.052a1.836,1.836,0,1,1,3.672,0l-.006,8.053,25.853.021.01-12.573-1.977,0v.009l-3.672,0V49.63l-2.3,0v.009l-3.673,0v-.008l-2.3,0v.008l-3.673,0v-.009h-2.3v.008l-3.673,0v-.009h-2.3v.008l-3.673,0V49.61H8.311l.01-12.574,7.946.007.007-8.053a1.836,1.836,0,0,1,3.672,0l-.006,8.053H18.72l3.517,0,.007-8.052a1.837,1.837,0,0,1,3.673,0L25.91,37.05H24.07l10.1.008L34.181,29a1.837,1.837,0,0,1,3.673,0l-.007,8.052,1.977,0,.01-12.574-5.543,0Zm3.541,29.67a1.837,1.837,0,1,1,3.673,0l-.006,8.053-3.673,0Zm-5.969-.006a1.837,1.837,0,0,1,3.673,0L31.858,62.2l-3.672,0Zm-5.969,0a1.837,1.837,0,0,1,3.673,0L25.889,62.2l-3.673,0Zm-5.969,0a1.837,1.837,0,0,1,3.673,0l-.007,8.052-3.673,0Zm-2.283-17.1-3.672,0,.007-8.053a1.836,1.836,0,0,1,3.672,0Zm17.908.015-3.673,0L28.212,29a1.837,1.837,0,1,1,3.673,0Z" transform="translate(1.245 3.672)" fill="none" stroke="#9b887b" stroke-linejoin="round" stroke-width="0.75"/>
      <path id="Path_2822" data-name="Path 2822" d="M37.82,68.232l-3.673,0v-.016l-2.3,0v.017l-3.673,0v-.017h-2.3v.017l-3.673,0V68.2h-2.3v.016l-3.672,0V68.2l-2.3,0v.017l-3.672,0v-.017l-1.977,0-.01,12.314H10.26l.006-7.759a1.837,1.837,0,0,1,3.673,0l-.006,7.759h2.3l.007-7.759a1.836,1.836,0,1,1,3.672,0L19.9,80.514l2.3,0,.007-7.76a1.837,1.837,0,0,1,3.673,0l-.007,7.759,2.3,0,.006-7.759a1.837,1.837,0,1,1,3.673,0l-.007,7.759,2.3,0,.006-7.759a1.837,1.837,0,1,1,3.673,0l-.006,7.759h1.976L39.766,106.5,39.8,68.217l-1.977,0Z" transform="translate(1.243 10.235)" fill="none" stroke="#9b887b" stroke-linejoin="round" stroke-width="0.75"/>
      <path id="Path_2823" data-name="Path 2823" d="M15.2,16.22a1.842,1.842,0,0,1,1.834,1.838l-.006,8.053h1.908l.007-8.053a1.837,1.837,0,0,1,3.673,0l-.007,8.053h1.908l.007-8.052a1.837,1.837,0,0,1,3.673,0l-.007,8.052,1.909,0,.007-8.053a1.837,1.837,0,0,1,3.673,0l-.008,8.052,1.623,0,.01-12.574-23.663-.018-.01,12.573h1.623l.007-8.053A1.842,1.842,0,0,1,15.2,16.22Z" transform="translate(1.761 2.031)" fill="none" stroke="#9b887b" stroke-linejoin="round" stroke-width="0.75"/>
      <path id="Path_2824" data-name="Path 2824" d="M37.847,35.418l-3.673,0-10.1-.008H22.235l-3.518,0H16.266L8.32,35.394,8.31,47.967l1.977,0,.006-8.044a1.837,1.837,0,0,1,3.673,0l-.007,8.044,2.3,0,.006-8.044a1.837,1.837,0,0,1,3.673,0l-.007,8.044,2.3,0,.007-8.044a1.836,1.836,0,1,1,3.672,0L25.9,47.982h2.3l.007-8.044a1.837,1.837,0,0,1,3.673,0l-.007,8.044,2.3,0,.007-8.044a1.837,1.837,0,1,1,3.673,0l-.007,8.044,1.977,0,.01-12.574Z" transform="translate(1.247 5.312)" fill="none" stroke="#9b887b" stroke-linejoin="round" stroke-width="0.75"/>
      <path id="Path_2825" data-name="Path 2825" d="M13.952,57.264l-3.673,0H8.3l-.008,8.925,0,3.648,1.976,0,.007-8.036a1.837,1.837,0,1,1,3.673,0l-.007,8.035,2.3,0,.006-8.036a1.837,1.837,0,0,1,3.673,0l-.007,8.036h2.3l.007-8.036a1.836,1.836,0,1,1,3.672,0l-.007,8.036h2.3l.007-8.035a1.836,1.836,0,1,1,3.672,0l-.006,8.036,2.3,0,.007-8.036a1.837,1.837,0,0,1,3.673,0l-.007,8.036,1.977,0L39.8,57.284Z" transform="translate(1.245 8.594)" fill="none" stroke="#9b887b" stroke-linejoin="round" stroke-width="0.75"/>
      <path id="Path_2826" data-name="Path 2826" d="M16.232,78.9h-2.3m8.266.006h-2.3m8.266.007-2.3,0m8.266.007-2.3,0M10.263,78.9H8.286l-.021,25.97,7.946.007.017-20.795a1.836,1.836,0,1,1,3.672,0l-.016,20.8H18.663l15.456.013.016-20.8a1.837,1.837,0,0,1,3.673,0l-.017,20.795,1.977,0,.021-25.971H37.813L10.263,78.9m3.653,25.974-3.673,0,.017-20.8a1.836,1.836,0,1,1,3.672,0Zm11.938.01-3.673,0L22.2,84.085a1.837,1.837,0,1,1,3.673,0Zm5.969,0-3.673,0,.017-20.795a1.837,1.837,0,1,1,3.673,0Z" transform="translate(1.241 11.842)" fill="none" stroke="#9b887b" stroke-linejoin="round" stroke-width="0.75"/>
      <path id="Path_2827" data-name="Path 2827" d="M16.819,25.759h0l.007-8.053a1.837,1.837,0,0,0-3.673,0l-.007,8.052h.595Z" transform="translate(1.973 2.382)" fill="none" stroke="#9b887b" stroke-linejoin="round" stroke-width="0.75"/>
      <path id="Path_2828" data-name="Path 2828" d="M21.673,25.763l.006-8.052a1.836,1.836,0,1,0-3.672,0L18,25.759l3.424,0Z" transform="translate(2.702 2.382)" fill="none" stroke="#9b887b" stroke-linejoin="round" stroke-width="0.75"/>
      <path id="Path_2829" data-name="Path 2829" d="M26.532,17.715a1.837,1.837,0,0,0-3.673,0l-.006,8.053,3.672,0Z" transform="translate(3.43 2.383)" fill="none" stroke="#9b887b" stroke-linejoin="round" stroke-width="0.75"/>
      <path id="Path_2830" data-name="Path 2830" d="M31.386,17.719a1.837,1.837,0,0,0-3.673,0l-.007,8.053,3.672,0Z" transform="translate(4.159 2.384)" fill="none" stroke="#9b887b" stroke-linejoin="round" stroke-width="0.75"/>
      <path id="Path_2831" data-name="Path 2831" d="M11.882,26.8a1.842,1.842,0,0,0-1.838,1.836l-.007,8.052,3.673,0,.006-8.053A1.842,1.842,0,0,0,11.882,26.8Z" transform="translate(1.506 4.022)" fill="none" stroke="#9b887b" stroke-linejoin="round" stroke-width="0.75"/>
      <path id="Path_2832" data-name="Path 2832" d="M17.679,36.693H18.9l.007-8.053a1.837,1.837,0,0,0-3.673,0l-.007,8.052Z" transform="translate(2.285 4.023)" fill="none" stroke="#9b887b" stroke-linejoin="round" stroke-width="0.75"/>
      <path id="Path_2833" data-name="Path 2833" d="M22.251,36.7H24.09l.007-8.052a1.837,1.837,0,0,0-3.673,0l-.006,8.053Z" transform="translate(3.065 4.024)" fill="none" stroke="#9b887b" stroke-linejoin="round" stroke-width="0.75"/>
      <path id="Path_2834" data-name="Path 2834" d="M27.453,26.811a1.842,1.842,0,0,0-1.838,1.834L25.608,36.7l3.673,0,.007-8.053A1.843,1.843,0,0,0,27.453,26.811Z" transform="translate(3.844 4.024)" fill="none" stroke="#9b887b" stroke-linejoin="round" stroke-width="0.75"/>
      <path id="Path_2835" data-name="Path 2835" d="M34.471,36.706h0l.007-8.053a1.837,1.837,0,0,0-3.673,0L30.8,36.7Z" transform="translate(4.623 4.025)" fill="none" stroke="#9b887b" stroke-linejoin="round" stroke-width="0.75"/>
      <path id="Path_2836" data-name="Path 2836" d="M13.692,58.554h0L13.7,50.5a1.837,1.837,0,0,0-3.673,0l-.007,8.052Z" transform="translate(1.504 7.304)" fill="none" stroke="#9b887b" stroke-linejoin="round" stroke-width="0.75"/>
      <path id="Path_2837" data-name="Path 2837" d="M18.889,50.5a1.837,1.837,0,0,0-3.673,0l-.006,8.053,3.672,0Z" transform="translate(2.283 7.305)" fill="none" stroke="#9b887b" stroke-linejoin="round" stroke-width="0.75"/>
      <path id="Path_2838" data-name="Path 2838" d="M24.079,50.51a1.842,1.842,0,0,0-1.834-1.838h0a1.842,1.842,0,0,0-1.838,1.834L20.4,58.559l3.672,0Z" transform="translate(3.062 7.305)" fill="none" stroke="#9b887b" stroke-linejoin="round" stroke-width="0.75"/>
      <path id="Path_2839" data-name="Path 2839" d="M29.269,50.514a1.837,1.837,0,0,0-3.673,0l-.006,8.053,3.672,0Z" transform="translate(3.841 7.306)" fill="none" stroke="#9b887b" stroke-linejoin="round" stroke-width="0.75"/>
      <path id="Path_2840" data-name="Path 2840" d="M34.46,50.518a1.837,1.837,0,0,0-3.673,0l-.006,8.053,3.672,0Z" transform="translate(4.62 7.307)" fill="none" stroke="#9b887b" stroke-linejoin="round" stroke-width="0.75"/>
      <path id="Path_2841" data-name="Path 2841" d="M13.674,80.448v-.293l.007-7.76a1.837,1.837,0,1,0-3.673,0L10,80.151v.293" transform="translate(1.501 10.59)" fill="none" stroke="#9b887b" stroke-linejoin="round" stroke-width="0.75"/>
      <path id="Path_2842" data-name="Path 2842" d="M11.873,37.738a1.842,1.842,0,0,0-1.838,1.836l-.007,8.044v.008l3.673,0V47.62l.007-8.044A1.843,1.843,0,0,0,11.873,37.738Z" transform="translate(1.505 5.664)" fill="none" stroke="#9b887b" stroke-linejoin="round" stroke-width="0.75"/>
      <path id="Path_2843" data-name="Path 2843" d="M17.063,37.742a1.842,1.842,0,0,0-1.838,1.836l-.007,8.044v.008l3.673,0v-.009L18.9,39.58A1.843,1.843,0,0,0,17.063,37.742Z" transform="translate(2.284 5.665)" fill="none" stroke="#9b887b" stroke-linejoin="round" stroke-width="0.75"/>
      <path id="Path_2844" data-name="Path 2844" d="M22.254,37.747a1.844,1.844,0,0,0-1.839,1.836l-.006,8.044v.008l3.672,0v-.009l.007-8.044A1.843,1.843,0,0,0,22.254,37.747Z" transform="translate(3.063 5.666)" fill="none" stroke="#9b887b" stroke-linejoin="round" stroke-width="0.75"/>
      <path id="Path_2845" data-name="Path 2845" d="M27.444,37.751a1.842,1.842,0,0,0-1.838,1.836L25.6,47.63v.008l3.673,0v-.009l.007-8.044A1.843,1.843,0,0,0,27.444,37.751Z" transform="translate(3.842 5.666)" fill="none" stroke="#9b887b" stroke-linejoin="round" stroke-width="0.75"/>
      <path id="Path_2846" data-name="Path 2846" d="M32.634,37.755A1.841,1.841,0,0,0,30.8,39.591l-.007,8.044v.008l3.673,0v-.009l.007-8.044A1.843,1.843,0,0,0,32.634,37.755Z" transform="translate(4.621 5.667)" fill="none" stroke="#9b887b" stroke-linejoin="round" stroke-width="0.75"/>
      <path id="Path_2847" data-name="Path 2847" d="M13.683,69.5v-.017l.007-8.036a1.837,1.837,0,1,0-3.673,0l-.007,8.036V69.5Z" transform="translate(1.502 8.947)" fill="none" stroke="#9b887b" stroke-linejoin="round" stroke-width="0.75"/>
      <path id="Path_2848" data-name="Path 2848" d="M18.873,69.5v-.017l.007-8.036a1.837,1.837,0,0,0-3.673,0L15.2,69.485V69.5Z" transform="translate(2.281 8.948)" fill="none" stroke="#9b887b" stroke-linejoin="round" stroke-width="0.75"/>
      <path id="Path_2849" data-name="Path 2849" d="M24.064,69.509v-.017l.007-8.035a1.837,1.837,0,1,0-3.673,0l-.007,8.036v.016Z" transform="translate(3.061 8.948)" fill="none" stroke="#9b887b" stroke-linejoin="round" stroke-width="0.75"/>
      <path id="Path_2850" data-name="Path 2850" d="M29.254,69.513V69.5l.006-8.035a1.836,1.836,0,1,0-3.672,0l-.007,8.036v.016Z" transform="translate(3.84 8.949)" fill="none" stroke="#9b887b" stroke-linejoin="round" stroke-width="0.75"/>
      <path id="Path_2851" data-name="Path 2851" d="M34.444,69.518V69.5l.007-8.036a1.837,1.837,0,0,0-3.673,0L30.771,69.5v.016Z" transform="translate(4.619 8.95)" fill="none" stroke="#9b887b" stroke-linejoin="round" stroke-width="0.75"/>
      <path id="Path_2852" data-name="Path 2852" d="M11.838,81.8A1.842,1.842,0,0,0,10,83.637l-.017,20.8,3.673,0,.017-20.795A1.843,1.843,0,0,0,11.838,81.8Z" transform="translate(1.498 12.278)" fill="none" stroke="#9b887b" stroke-linejoin="round" stroke-width="0.75"/>
      <path id="Path_2853" data-name="Path 2853" d="M18.864,83.646a1.837,1.837,0,0,0-3.673,0l-.016,20.8,2.451,0h1.221Z" transform="translate(2.278 12.279)" fill="none" stroke="#9b887b" stroke-linejoin="round" stroke-width="0.75"/>
      <path id="Path_2854" data-name="Path 2854" d="M22.219,81.812a1.842,1.842,0,0,0-1.838,1.836l-.017,20.795,3.673,0,.017-20.8A1.843,1.843,0,0,0,22.219,81.812Z" transform="translate(3.057 12.28)" fill="none" stroke="#9b887b" stroke-linejoin="round" stroke-width="0.75"/>
      <path id="Path_2855" data-name="Path 2855" d="M27.409,81.816a1.841,1.841,0,0,0-1.838,1.836l-.017,20.795,3.673,0,.017-20.8A1.843,1.843,0,0,0,27.409,81.816Z" transform="translate(3.836 12.28)" fill="none" stroke="#9b887b" stroke-linejoin="round" stroke-width="0.75"/>
      <path id="Path_2856" data-name="Path 2856" d="M32.6,81.82a1.842,1.842,0,0,0-1.838,1.834l-.017,20.8,3.673,0,.017-20.8A1.843,1.843,0,0,0,32.6,81.82Z" transform="translate(4.615 12.281)" fill="none" stroke="#9b887b" stroke-linejoin="round" stroke-width="0.75"/>
      <path id="Path_2857" data-name="Path 2857" d="M331.421,70.553l6.645,24.417,1.267-9.232-1.267,9.232Z" transform="translate(49.744 10.59)" fill="none" stroke="#9b887b" stroke-linejoin="round" stroke-width="0.75"/>
      <path id="Path_2858" data-name="Path 2858" d="M339.3,94.97l-6.645-24.417L327.212,94.8l-3.992-7.893-.014,19.205,19.128.014-4.568,0Z" transform="translate(48.512 10.59)" fill="none" stroke="#9b887b" stroke-linejoin="round" stroke-width="0.75"/>
      <path id="Path_2859" data-name="Path 2859" d="M332.652,78.766l6.645,24.416,1.267-9.232,3.655-26.613-6.069-51.5a1.615,1.615,0,0,1-.642,0l-4.7,37.75-4.421-28.329a2.263,2.263,0,0,1-.7.12,2.338,2.338,0,0,1-.27-.026l-4.2,69.769,3.991,7.893Z" transform="translate(48.513 2.377)" fill="none" stroke="#9b887b" stroke-linejoin="round" stroke-width="0.75"/>
      <path id="Path_2860" data-name="Path 2860" d="M328.106,24.608a2.286,2.286,0,1,0-.968.092,2.339,2.339,0,0,0,.27.028A2.262,2.262,0,0,0,328.106,24.608Z" transform="translate(48.8 3.026)" fill="none" stroke="#9b887b" stroke-linejoin="round" stroke-width="0.75"/>
      <path id="Path_2861" data-name="Path 2861" d="M336.541,16.43a2.285,2.285,0,1,0-.643,0,2.214,2.214,0,0,0,.329.033A2.361,2.361,0,0,0,336.541,16.43Z" transform="translate(50.123 1.785)" fill="none" stroke="#9b887b" stroke-linejoin="round" stroke-width="0.75"/>
      <path id="Path_2862" data-name="Path 2862" d="M351.951,106.133l14.56.01.014-19.205-4,7.886-5.408-24.253-6.68,24.406Z" transform="translate(52.598 10.592)" fill="none" stroke="#9b887b" stroke-linejoin="round" stroke-width="0.75"/>
      <path id="Path_2863" data-name="Path 2863" d="M347.782,101.489l4.311,0Z" transform="translate(52.2 15.233)" fill="none" stroke="#9b887b" stroke-linejoin="round" stroke-width="0.75"/>
      <path id="Path_2864" data-name="Path 2864" d="M367.161,95.152l-4.1-69.776a2.337,2.337,0,0,1-.27.028,2.29,2.29,0,0,1-.7-.121L357.627,53.6l-4.641-37.756a2.215,2.215,0,0,1-.328.033,2.183,2.183,0,0,1-.315-.032L346.2,67.339l4.871,35.853,6.68-24.407,5.408,24.254Z" transform="translate(51.963 2.379)" fill="none" stroke="#9b887b" stroke-linejoin="round" stroke-width="0.75"/>
      <path id="Path_2865" data-name="Path 2865" d="M345.051,43.332,342.32,63.21l-3.654,26.614L337.4,99.055l-1.531,11.154,4.567,0,4.568,0,4.568,0,4.311,0h.258l-1.516-11.155Z" transform="translate(50.412 6.504)" fill="none" stroke="#9b887b" stroke-linejoin="round" stroke-width="0.75"/>
      <path id="Path_2866" data-name="Path 2866" d="M361.19,24.725a1.842,1.842,0,1,0-.27.026A2.109,2.109,0,0,0,361.19,24.725Z" transform="translate(53.829 3.029)" fill="none" stroke="#9b887b" stroke-linejoin="round" stroke-width="0.75"/>
      <path id="Path_2867" data-name="Path 2867" d="M352.441,16.44a2.285,2.285,0,1,0-.643,0,2.378,2.378,0,0,0,.315.032A2.2,2.2,0,0,0,352.441,16.44Z" transform="translate(52.508 1.787)" fill="none" stroke="#9b887b" stroke-linejoin="round" stroke-width="0.75"/>
      <path id="Path_2868" data-name="Path 2868" d="M140.955,49.089l.849,0h-.849Z" transform="translate(21.157 7.368)" fill="none" stroke="#9b887b" stroke-linejoin="round" stroke-width="0.75"/>
      <path id="Path_2869" data-name="Path 2869" d="M109.137,50.318l-1.086,0-4.2-.014,8.378.028h0Z" transform="translate(15.588 7.55)" fill="none" stroke="#9b887b" stroke-linejoin="round" stroke-width="0.75"/>
      <rect id="Rectangle_178" data-name="Rectangle 178" width="1.956" height="2.205" transform="translate(112.895 77.559) rotate(-89.832)" fill="none" stroke="#9b887b" stroke-linejoin="round" stroke-width="0.75"/>
      <path id="Path_2870" data-name="Path 2870" d="M130.7,66.179l-.021,6.462,2.712.009.012-3.572.01-3.231-1.908-.007v.34Z" transform="translate(19.615 9.882)" fill="none" stroke="#9b887b" stroke-linejoin="round" stroke-width="0.75"/>
      <path id="Path_2871" data-name="Path 2871" d="M148.744,65.9Z" transform="translate(22.326 9.891)" fill="none" stroke="#9b887b" stroke-linejoin="round" stroke-width="0.75"/>
      <path id="Path_2872" data-name="Path 2872" d="M148.692,84.583l.06-18.686Z" transform="translate(22.318 9.891)" fill="none" stroke="#9b887b" stroke-linejoin="round" stroke-width="0.75"/>
      <path id="Path_2873" data-name="Path 2873" d="M145.789,101.483l-7.167-.023,11.51.037Z" transform="translate(20.806 15.229)" fill="none" stroke="#9b887b" stroke-linejoin="round" stroke-width="0.75"/>
      <path id="Path_2874" data-name="Path 2874" d="M131.344,106.721h0l-8.516-.028.078-24.441.031-9.693,3.577.011.021-6.464-1.81-.006-4.478-.014-.015,4.506-.115,36.091-16.139-.052.093-29.287L86.03,77.289l-.093,29.287,3.655.012,44.417.141-1.7,0Z" transform="translate(12.899 9.919)" fill="none" stroke="#9b887b" stroke-linejoin="round" stroke-width="0.75"/>
      <path id="Path_2875" data-name="Path 2875" d="M116.018,52.783a3.493,3.493,0,0,1-3.243,2.033l-1.635-.006,1.8.006L112.9,67.743l3.577.01-.016,5.188,4.478.014,1.811.006.018-6.037,8.673.028-2.688-.009-1.086,0-4.731-.015a3.5,3.5,0,0,1-3.231-2.054c-1.012-2.386-.546-7.215,8.546-16.262v-.035l.016.017.016-.017v.035c.589.593,1.136,1.165,1.654,1.723l-6.021-29.884-2.813-.008-2.813-.009L113.5,43.458C116.725,48.2,116.742,51.107,116.018,52.783Z" transform="translate(16.681 3.066)" fill="none" stroke="#9b887b" stroke-linejoin="round" stroke-width="0.75"/>
      <path id="Path_2876" data-name="Path 2876" d="M130.7,66.692l.8,0v-.34l-.791-3.926Z" transform="translate(19.617 9.37)" fill="none" stroke="#9b887b" stroke-linejoin="round" stroke-width="0.75"/>
      <path id="Path_2877" data-name="Path 2877" d="M99.581,69.128l.006-1.956L99.623,56.2h-.184l-4.731-.015-1.086,0-3.308-.01-1.576,0L88.7,69.093Z" transform="translate(13.313 8.431)" fill="none" stroke="#9b887b" stroke-linejoin="round" stroke-width="0.75"/>
      <path id="Path_2878" data-name="Path 2878" d="M114.092,63.259l.041-12.925-1.8-.006-8.38-.026-.535,0h-.168l-.041,12.925Z" transform="translate(15.491 7.55)" fill="none" stroke="#9b887b" stroke-linejoin="round" stroke-width="0.75"/>
      <path id="Path_2879" data-name="Path 2879" d="M129.931,60.883l-8.673-.028-.02,6.037-.021,6.464,10.884.035.021-6.462.014-4.266.006-1.772h-.168Z" transform="translate(18.194 9.134)" fill="none" stroke="#9b887b" stroke-linejoin="round" stroke-width="0.75"/>
      <path id="Path_2880" data-name="Path 2880" d="M101.736,69.962l-.022,6.8-.093,29.287,16.139.052.115-36.09Z" transform="translate(15.253 10.501)" fill="none" stroke="#9b887b" stroke-linejoin="round" stroke-width="0.75"/>
      <path id="Path_2881" data-name="Path 2881" d="M147.113,49.108h-.167l-4.427-.015-.849,0h-.849l-4.593-.015-.04,12.84,10.883.036Z" transform="translate(20.441 7.366)" fill="none" stroke="#9b887b" stroke-linejoin="round" stroke-width="0.75"/>
      <path id="Path_2882" data-name="Path 2882" d="M104.057,78.03l.022-6.8,16.139.052.015-4.507.016-5.187-3.577-.012-10.884-.035-3.577-.012-.016,4.847-.006,1.956-2.206-.007L89.1,68.289l-3.05-.01-.031,9.694Z" transform="translate(12.911 9.235)" fill="none" stroke="#9b887b" stroke-linejoin="round" stroke-width="0.75"/>
      <path id="Path_2883" data-name="Path 2883" d="M118.091,80.143l-.078,24.441,8.516.028.062-19.665,6.232-4.756Z" transform="translate(17.713 12.029)" fill="none" stroke="#9b887b" stroke-linejoin="round" stroke-width="0.75"/>
      <path id="Path_2884" data-name="Path 2884" d="M151.09,69.128l-18.038-.058-.011,3.571.865,0-.023,7.155,5.523-4.214,11.635,9L151.1,65.9Z" transform="translate(19.969 9.891)" fill="none" stroke="#9b887b" stroke-linejoin="round" stroke-width="0.75"/>
      <path id="Path_2885" data-name="Path 2885" d="M135.286,71.769l-2.712-.008-10.884-.035-3.578-.012-.03,9.693,14.733.047,3.313-2.529.023-7.155Z" transform="translate(17.723 10.764)" fill="none" stroke="#9b887b" stroke-linejoin="round" stroke-width="0.75"/>
      <path id="Path_2886" data-name="Path 2886" d="M133.05,69.922l18.038.058.01-3.232.021-6.462-3.577-.011-10.885-.035-3.577-.011-.021,6.464Z" transform="translate(19.97 9.04)" fill="none" stroke="#9b887b" stroke-linejoin="round" stroke-width="0.75"/>
      <path id="Path_2887" data-name="Path 2887" d="M95.153,58.582l4.731.015a3.493,3.493,0,0,0,3.243-2.033c1.028-2.381.593-7.211-8.443-16.316v-.035l-.016.017-.016-.017v.035c-9.094,9.047-9.56,13.875-8.546,16.262a3.493,3.493,0,0,0,3.229,2.054l1.425,0,3.308.01Z" transform="translate(12.867 6.036)" fill="none" stroke="#9b887b" stroke-linejoin="round" stroke-width="0.75"/>
      <path id="Path_2888" data-name="Path 2888" d="M104.395,52.7l4.2.013,1.086,0,3.1.009,1.635.006a3.5,3.5,0,0,0,3.242-2.033c.725-1.677.707-4.58-2.515-9.325a50,50,0,0,0-5.926-6.991v-.035l-.016.016-.016-.016v.033c-9.094,9.048-9.56,13.876-8.546,16.263a3.493,3.493,0,0,0,3.231,2.053Z" transform="translate(15.047 5.155)" fill="none" stroke="#9b887b" stroke-linejoin="round" stroke-width="0.75"/>
      <path id="Path_2889" data-name="Path 2889" d="M127.219,44.9l-.016.016-.016-.016v.035c-9.094,9.047-9.56,13.875-8.546,16.262a3.5,3.5,0,0,0,3.229,2.054l4.733.015,1.086,0,2.688.008,2.044.007h0a3.5,3.5,0,0,0,3.242-2.033c.961-2.225.641-6.6-6.788-14.595-.518-.557-1.066-1.129-1.654-1.722Z" transform="translate(17.75 6.739)" fill="none" stroke="#9b887b" stroke-linejoin="round" stroke-width="0.75"/>
      <path id="Path_2890" data-name="Path 2890" d="M142.114,51.486h.849l4.427.015a3.5,3.5,0,0,0,3.242-2.033c1.028-2.381.593-7.212-8.442-16.318v-.033l-.016.016-.016-.016v.033c-9.094,9.048-9.56,13.876-8.546,16.262a3.491,3.491,0,0,0,3.229,2.054l4.427.015h.849Z" transform="translate(19.997 4.971)" fill="none" stroke="#9b887b" stroke-linejoin="round" stroke-width="0.75"/>
      <path id="Path_2891" data-name="Path 2891" d="M123.724,22.021a2.293,2.293,0,0,0,2.13-1.335c.675-1.564.39-4.737-5.545-10.718V9.946l-.01.01-.01-.01v.022c-5.972,5.943-6.278,9.114-5.614,10.682A2.3,2.3,0,0,0,116.794,22l3.108.009.714,0,2.812.009Z" transform="translate(17.174 1.493)" fill="none" stroke="#9b887b" stroke-linejoin="round" stroke-width="0.75"/>
      <path id="Path_2892" data-name="Path 2892" d="M125.48,84.319l-.063,19.665.966,0,6.744.022.023-7.211a7.455,7.455,0,0,1,7.457-7.41,7.233,7.233,0,0,1,7.188,7.234l-.024,7.433,4.343.014,3.366.012.063-19.667Z" transform="translate(18.824 12.656)" fill="none" stroke="#9b887b" stroke-linejoin="round" stroke-width="0.75"/>
      <path id="Path_2893" data-name="Path 2893" d="M152.177,83.318l-11.637-9-5.522,4.213L131.7,81.064l-6.232,4.756,30.063.1Z" transform="translate(18.833 11.155)" fill="none" stroke="#9b887b" stroke-linejoin="round" stroke-width="0.75"/>
      <path id="Path_2894" data-name="Path 2894" d="M147.645,103.394l.024-7.433a7.233,7.233,0,0,0-7.188-7.234,7.456,7.456,0,0,0-7.457,7.41l-.023,7.21-6.744-.021,1.7,0,6.858.022,5.663.018Z" transform="translate(18.95 13.317)" fill="none" stroke="#9b887b" stroke-linejoin="round" stroke-width="0.75"/>
      <path id="Path_2895" data-name="Path 2895" d="M687.55,60.829l-2.989.007L680.8,78.46l6.786-.014,6.786-.015-3.834-17.609Z" transform="translate(102.185 9.129)" fill="none" stroke="#9b887b" stroke-linejoin="round" stroke-width="0.75"/>
      <path id="Path_2896" data-name="Path 2896" d="M685.395,60.834l-4.561.009-5.581,17.63,6.384-.014Z" transform="translate(101.352 9.131)" fill="none" stroke="#9b887b" stroke-linejoin="round" stroke-width="0.75"/>
      <path id="Path_2897" data-name="Path 2897" d="M688.91,81.5l15.73-.033h1.1l-.011-5.351-3.661.008-6.384.014-6.786.015-6.786.015-6.384.013-3.661.008.011,5.279,1.1.067Z" transform="translate(100.874 11.424)" fill="none" stroke="#9b887b" stroke-linejoin="round" stroke-width="0.75"/>
      <path id="Path_2898" data-name="Path 2898" d="M687.923,61.385l2.989-.007,2.928-.006,3.678-.008-.009-4.247-9.6.021-9.6.021.009,4.247,2.045,0,4.561-.009Z" transform="translate(101.812 8.573)" fill="none" stroke="#9b887b" stroke-linejoin="round" stroke-width="0.75"/>
      <path id="Path_2899" data-name="Path 2899" d="M687.414,13.978l-.021-9.909-1.5,0,.022,9.91.748,0Z" transform="translate(102.95 0.611)" fill="none" stroke="#9b887b" stroke-linejoin="round" stroke-width="0.75"/>
      <path id="Path_2900" data-name="Path 2900" d="M693.1,78.433l6.384-.014-5.657-17.6-1.632,0-2.929.006Z" transform="translate(103.455 9.128)" fill="none" stroke="#9b887b" stroke-linejoin="round" stroke-width="0.75"/>
      <path id="Path_2901" data-name="Path 2901" d="M671.6,104.592s.753-15.573,18.842-15.613,18.868,15.691,18.868,15.691l9.635-.179-12.186-22.6-.6-1.122-15.73.033-15.73.033-.6,1.126L662,104.613Z" transform="translate(99.363 12.123)" fill="none" stroke="#9b887b" stroke-linejoin="round" stroke-width="0.75"/>
      <path id="Path_2902" data-name="Path 2902" d="M687.585,62.586l7.078-.015-4.008-41.754-3.159.007-3.158.007-3.83,41.77Z" transform="translate(102.14 3.125)" fill="none" stroke="#9b887b" stroke-linejoin="round" stroke-width="0.75"/>
      <path id="Path_2903" data-name="Path 2903" d="M690.369,21.28l1.639,0L692,17.738l-4.8.01-4.8.01.007,3.539,1.639,0,3.159-.007Z" transform="translate(102.425 2.662)" fill="none" stroke="#9b887b" stroke-linejoin="round" stroke-width="0.75"/>
      <path id="Path_2904" data-name="Path 2904" d="M689.945,12.68l-2.242,0-.748,0h-.746l-2.242,0,.013,5.821,2.988-.007,2.989-.007Z" transform="translate(102.66 1.903)" fill="none" stroke="#9b887b" stroke-linejoin="round" stroke-width="0.75"/>
      <path id="Path_2905" data-name="Path 2905" d="M597.211,97.129Z" transform="translate(89.638 14.579)" fill="none" stroke="#9b887b" stroke-linejoin="round" stroke-width="0.75"/>
      <path id="Path_2906" data-name="Path 2906" d="M607.406,97.133h-2.268l12.214,0Z" transform="translate(90.828 14.579)" fill="none" stroke="#9b887b" stroke-linejoin="round" stroke-width="0.75"/>
      <path id="Path_2907" data-name="Path 2907" d="M581.945,101.231l0-7.47a3.718,3.718,0,0,1,7.435,0l0,7.47-6.549,0,9.647,0,0-7.47a3.717,3.717,0,0,1,7.434,0l0,7.47h3.1l.012-31.467-8.537,0-8.81,0-6.448,0-.01,31.468Zm10.539-22.4a3.718,3.718,0,0,1,7.435,0l0,7.471-7.434,0Zm-10.531,0a3.717,3.717,0,1,1,7.434,0l0,7.47-7.434,0Z" transform="translate(86.937 10.471)" fill="none" stroke="#9b887b" stroke-linejoin="round" stroke-width="0.75"/>
      <path id="Path_2908" data-name="Path 2908" d="M579.688,101.706l.011-31.467V66.592H576.08l-.013,35.114Z" transform="translate(86.465 9.995)" fill="none" stroke="#9b887b" stroke-linejoin="round" stroke-width="0.75"/>
      <path id="Path_2909" data-name="Path 2909" d="M598.828,68.015v.131c.053-.071,4.094-5.541-6.944-11.883-11.037,6.331-7.009,11.8-6.951,11.878V68.01Z" transform="translate(87.681 8.445)" fill="none" stroke="#9b887b" stroke-linejoin="round" stroke-width="0.75"/>
      <path id="Path_2910" data-name="Path 2910" d="M626.825,97.14l-7.844,0h-1.956l-4.748,0h-5.168l9.946,0,9.945,0Z" transform="translate(91.124 14.579)" fill="none" stroke="#9b887b" stroke-linejoin="round" stroke-width="0.75"/>
      <path id="Path_2911" data-name="Path 2911" d="M589.026,91.116a3.717,3.717,0,0,0-7.434,0l0,7.47h.885l6.549,0Z" transform="translate(87.293 13.118)" fill="none" stroke="#9b887b" stroke-linejoin="round" stroke-width="0.75"/>
      <path id="Path_2912" data-name="Path 2912" d="M598.185,91.12a3.718,3.718,0,0,0-7.435,0l0,7.47,7.434,0Z" transform="translate(88.668 13.119)" fill="none" stroke="#9b887b" stroke-linejoin="round" stroke-width="0.75"/>
      <path id="Path_2913" data-name="Path 2913" d="M589.031,78.127a3.717,3.717,0,1,0-7.434,0l0,7.47,7.434,0Z" transform="translate(87.294 11.168)" fill="none" stroke="#9b887b" stroke-linejoin="round" stroke-width="0.75"/>
      <path id="Path_2914" data-name="Path 2914" d="M598.188,78.13a3.717,3.717,0,1,0-7.434,0l0,7.47,7.434,0Z" transform="translate(88.669 11.169)" fill="none" stroke="#9b887b" stroke-linejoin="round" stroke-width="0.75"/>
      <path id="Path_2915" data-name="Path 2915" d="M655.305,69.79h0l-.011,31.467Z" transform="translate(98.356 10.475)" fill="none" stroke="#9b887b" stroke-linejoin="round" stroke-width="0.75"/>
      <path id="Path_2916" data-name="Path 2916" d="M631.1,101.248h0l14.469,0h-.435l0-7.47a3.717,3.717,0,0,1,7.434,0l0,7.47h2.732l.01-31.467-6.447,0-13.9,0h-3.451l-.012,31.467Zm14.043-22.4a3.717,3.717,0,1,1,7.434,0l0,7.47-7.434,0Zm-10.531,0a3.717,3.717,0,1,1,7.434,0l0,7.47-7.434,0Zm-.006,14.939a3.717,3.717,0,1,1,7.434,0l0,7.47-7.434,0Z" transform="translate(94.725 10.474)" fill="none" stroke="#9b887b" stroke-linejoin="round" stroke-width="0.75"/>
      <path id="Path_2917" data-name="Path 2917" d="M652.147,101.731h3.62l.01-31.467V66.619h-3.619l0,3.647Z" transform="translate(97.884 9.999)" fill="none" stroke="#9b887b" stroke-linejoin="round" stroke-width="0.75"/>
      <path id="Path_2918" data-name="Path 2918" d="M599.905,101.906l6.018,0h2.268l5.168,0-5.343,0,.007-19.985a9.945,9.945,0,0,1,19.891.007l-.007,19.985h.175l7.706,0h.4l.012-31.467V65.321l-18.057-.007h-.175l-18.056-.006,0,5.132Z" transform="translate(90.042 9.802)" fill="none" stroke="#9b887b" stroke-linejoin="round" stroke-width="0.75"/>
      <path id="Path_2919" data-name="Path 2919" d="M615.761,97.136h0Z" transform="translate(92.418 14.58)" fill="none" stroke="#9b887b" stroke-linejoin="round" stroke-width="0.75"/>
      <path id="Path_2920" data-name="Path 2920" d="M618.147,66.3l18.056.006,0-7.562-18.057-.007h-.175l-18.056-.006,0,7.562,18.056.007Z" transform="translate(90.044 8.815)" fill="none" stroke="#9b887b" stroke-linejoin="round" stroke-width="0.75"/>
      <path id="Path_2921" data-name="Path 2921" d="M593.641,70.262l5.086,0,0-3.65v-.131l-13.9-.006v3.782Z" transform="translate(87.78 9.978)" fill="none" stroke="#9b887b" stroke-linejoin="round" stroke-width="0.75"/>
      <path id="Path_2922" data-name="Path 2922" d="M648.363,70.264h0v-3.65l0,0-6.945,0-6.945,0,0,0v3.65Z" transform="translate(95.23 9.998)" fill="none" stroke="#9b887b" stroke-linejoin="round" stroke-width="0.75"/>
      <path id="Path_2923" data-name="Path 2923" d="M618.411,62.809l18.057.006s10.9-14.388-18.046-31.1c0-.035,0-.069,0-.1l-.089.051-.087-.051v.1C589.293,48.408,600.18,62.8,600.18,62.8l18.056.006Z" transform="translate(89.783 4.745)" fill="none" stroke="#9b887b" stroke-linejoin="round" stroke-width="0.75"/>
      <path id="Path_2924" data-name="Path 2924" d="M641.516,68.165l6.945,0,0,0c.055-.074,4.092-5.543-6.943-11.883-11.041,6.332-7.007,11.8-6.952,11.878l0,0Z" transform="translate(95.131 8.447)" fill="none" stroke="#9b887b" stroke-linejoin="round" stroke-width="0.75"/>
      <path id="Path_2925" data-name="Path 2925" d="M619,101.043l7.844,0,.007-19.985a9.945,9.945,0,0,0-19.891-.007l-.007,19.985,5.343,0H619Z" transform="translate(91.101 10.674)" fill="none" stroke="#9b887b" stroke-linejoin="round" stroke-width="0.75"/>
      <path id="Path_2926" data-name="Path 2926" d="M647.03,87.42a3.728,3.728,0,0,0-3.719,3.716l0,7.47h.435l7,0,0-7.47A3.727,3.727,0,0,0,647.03,87.42Z" transform="translate(96.557 13.121)" fill="none" stroke="#9b887b" stroke-linejoin="round" stroke-width="0.75"/>
      <path id="Path_2927" data-name="Path 2927" d="M641.587,91.135a3.717,3.717,0,1,0-7.434,0l0,7.47,7.434,0Z" transform="translate(95.183 13.121)" fill="none" stroke="#9b887b" stroke-linejoin="round" stroke-width="0.75"/>
      <path id="Path_2928" data-name="Path 2928" d="M650.749,78.148a3.717,3.717,0,1,0-7.434,0l0,7.47,7.434,0Z" transform="translate(96.558 11.172)" fill="none" stroke="#9b887b" stroke-linejoin="round" stroke-width="0.75"/>
      <path id="Path_2929" data-name="Path 2929" d="M641.592,78.145a3.718,3.718,0,0,0-7.435,0v7.47l7.434,0Z" transform="translate(95.183 11.171)" fill="none" stroke="#9b887b" stroke-linejoin="round" stroke-width="0.75"/>
      <path id="Path_2930" data-name="Path 2930" d="M631.713,97.142l-9.945,0-12.214,0-6.018,0h-3.1l-7.434,0-9.647,0h-7.645v5l92.109.032,0-5Z" transform="translate(86.411 14.577)" fill="none" stroke="#9b887b" stroke-linejoin="round" stroke-width="0.75"/>
      <rect id="Rectangle_179" data-name="Rectangle 179" width="20.013" height="60.038" transform="translate(232.821 56.697) rotate(-0.059)" fill="none" stroke="#9b887b" stroke-linejoin="round" stroke-width="0.75"/>
      <path id="Path_2931" data-name="Path 2931" d="M221.453,29.14l-8.1.009-12.3.013.023,23.164,1.576,0,20.013-.02,1.577,0-.023-23.164Zm-8.821,3.24a8.352,8.352,0,1,1-8.344,8.36A8.352,8.352,0,0,1,212.632,32.38Z" transform="translate(30.176 4.373)" fill="none" stroke="#9b887b" stroke-linejoin="round" stroke-width="0.75"/>
      <path id="Path_2932" data-name="Path 2932" d="M217.336,13.969l-5.327.006h-.243l-5.461.006.007,6.894,11.031-.012Z" transform="translate(30.965 2.097)" fill="none" stroke="#9b887b" stroke-linejoin="round" stroke-width="0.75"/>
      <path id="Path_2933" data-name="Path 2933" d="M221.093,29.716l0-4.412-17.649.017,0,4.413,9.546-.01Z" transform="translate(30.535 3.798)" fill="none" stroke="#9b887b" stroke-linejoin="round" stroke-width="0.75"/>
      <path id="Path_2934" data-name="Path 2934" d="M212.225,48.661a8.352,8.352,0,1,0-8.36-8.343A8.352,8.352,0,0,0,212.225,48.661Z" transform="translate(30.599 4.797)" fill="none" stroke="#9b887b" stroke-linejoin="round" stroke-width="0.75"/>
      <path id="Path_2935" data-name="Path 2935" d="M217.773,19.963l-11.031.012-3.3,6.148,17.649-.017Z" transform="translate(30.535 2.996)" fill="none" stroke="#9b887b" stroke-linejoin="round" stroke-width="0.75"/>
      <path id="Path_2936" data-name="Path 2936" d="M211.751,16.015l3.358,0L211.548.375l-3.53,15.644,3.492,0h.242Z" transform="translate(31.222 0.056)" fill="none" stroke="#9b887b" stroke-linejoin="round" stroke-width="0.75"/>
      <rect id="Rectangle_180" data-name="Rectangle 180" width="25.528" height="37.662" transform="translate(827.462 79.074) rotate(-0.116)" fill="none" stroke="#9b887b" stroke-linejoin="round" stroke-width="0.75"/>
      <path id="Path_2937" data-name="Path 2937" d="M744.984,60.763l-3.939.008-17.649.036-3.94.008.02,9.14L745,69.9Z" transform="translate(107.986 9.12)" fill="none" stroke="#9b887b" stroke-linejoin="round" stroke-width="0.75"/>
      <path id="Path_2938" data-name="Path 2938" d="M740.537,63.648h0l-.045-22.061L740.5,46l-17.648.037-.009-4.413.045,22.061ZM731.684,49.72a5.121,5.121,0,1,1-5.111,5.132A5.122,5.122,0,0,1,731.684,49.72Z" transform="translate(108.495 6.242)" fill="none" stroke="#9b887b" stroke-linejoin="round" stroke-width="0.75"/>
      <path id="Path_2939" data-name="Path 2939" d="M736.727,29.6l-11.031.022.028,13.788h.033l11-.022Z" transform="translate(108.923 4.443)" fill="none" stroke="#9b887b" stroke-linejoin="round" stroke-width="0.75"/>
      <path id="Path_2940" data-name="Path 2940" d="M740.5,46l-.009-4.412-3.309.006-11,.023-3.342.007.008,4.412Z" transform="translate(108.495 6.242)" fill="none" stroke="#9b887b" stroke-linejoin="round" stroke-width="0.75"/>
      <path id="Path_2941" data-name="Path 2941" d="M731.218,58.9a5.121,5.121,0,1,0-5.132-5.111A5.122,5.122,0,0,0,731.218,58.9Z" transform="translate(108.982 7.303)" fill="none" stroke="#9b887b" stroke-linejoin="round" stroke-width="0.75"/>
      <path id="Path_2942" data-name="Path 2942" d="M731.545,12.585l-.374-.2-.373.2-5.1,19.624,11.032-.023Z" transform="translate(108.923 1.86)" fill="none" stroke="#9b887b" stroke-linejoin="round" stroke-width="0.75"/>
      <path id="Path_2943" data-name="Path 2943" d="M731.455,13.569l2.583,1.351-.57-3.288L735.853,9.3l-3.3-.474-1.482-2.989L729.6,8.831l-3.3.488,2.395,2.324-.558,3.29,2.578-1.363.373-.2Z" transform="translate(109.013 0.876)" fill="none" stroke="#9b887b" stroke-linejoin="round" stroke-width="0.75"/>
      <path id="Path_2944" data-name="Path 2944" d="M388.76,22.119a4.089,4.089,0,0,1,3.3,2.061l0-3.2c0-2.377-1.016-4.377-2.392-5.01L389.692,3a.9.9,0,0,0-1.809,0l-.018,12.973c-1.379.628-2.4,2.625-2.406,5l0,3.2A4.083,4.083,0,0,1,388.76,22.119Z" transform="translate(57.855 0.314)" fill="none" stroke="#9b887b" stroke-linejoin="round" stroke-width="0.75"/>
      <rect id="Rectangle_181" data-name="Rectangle 181" width="51.307" height="20.291" transform="translate(436.361 101.65) rotate(-89.922)" fill="none" stroke="#9b887b" stroke-linejoin="round" stroke-width="0.75"/>
      <path id="Path_2945" data-name="Path 2945" d="M404.507,88.419l-4.247-.006-20.291-.029-4.246-.006-.022,15.052,28.786.04Z" transform="translate(56.391 13.265)" fill="none" stroke="#9b887b" stroke-linejoin="round" stroke-width="0.75"/>
      <path id="Path_2946" data-name="Path 2946" d="M388.927,23.1h0a5.506,5.506,0,0,1,4.606,2.818,8.58,8.58,0,0,0-1.3-4.351,3.681,3.681,0,0,0-6.606-.009,8.6,8.6,0,0,0-1.313,4.347A5.507,5.507,0,0,1,388.927,23.1Z" transform="translate(57.683 2.928)" fill="none" stroke="#9b887b" stroke-linejoin="round" stroke-width="0.75"/>
      <path id="Path_2947" data-name="Path 2947" d="M389.068,28.585a6.84,6.84,0,0,1,5.737,3.163l0-2.266a7.658,7.658,0,0,0-1.126-4.033,5.509,5.509,0,0,0-4.606-2.818h0a5.506,5.506,0,0,0-4.614,2.8,7.668,7.668,0,0,0-1.136,4.03l0,2.266A6.841,6.841,0,0,1,389.068,28.585Z" transform="translate(57.535 3.397)" fill="none" stroke="#9b887b" stroke-linejoin="round" stroke-width="0.75"/>
      <path id="Path_2948" data-name="Path 2948" d="M396.047,34.66a6.768,6.768,0,0,0-1.1-3.688,6.843,6.843,0,0,0-12.589,3.67l-.016,11.531,13.685.02Z" transform="translate(57.388 4.174)" fill="none" stroke="#9b887b" stroke-linejoin="round" stroke-width="0.75"/>
      <path id="Path_2949" data-name="Path 2949" d="M170.814,38.51l1.377,0-.21,60.118h.359l-.049,14.235,13.928.049-2.131-.008h-.359l.26-74.352,3.618.013-2.242-.008.028-8.022,2.242.008.018-5.24-10.145-.036-10.146-.036-.018,5.24,3.5.013Z" transform="translate(25.117 3.788)" fill="none" stroke="#9b887b" stroke-linejoin="round" stroke-width="0.75"/>
      <path id="Path_2950" data-name="Path 2950" d="M167.318,36.767h0l1.258,0Z" transform="translate(25.113 5.518)" fill="none" stroke="#9b887b" stroke-linejoin="round" stroke-width="0.75"/>
      <path id="Path_2951" data-name="Path 2951" d="M169.017,101.422l-3.977-.014Z" transform="translate(24.772 15.221)" fill="none" stroke="#9b887b" stroke-linejoin="round" stroke-width="0.75"/>
      <path id="Path_2952" data-name="Path 2952" d="M172.319,96.9l.21-60.117-1.377-.006-2.242-.008-1.258,0-2.359-.008-.21,60.117Z" transform="translate(24.778 5.517)" fill="none" stroke="#9b887b" stroke-linejoin="round" stroke-width="0.75"/>
      <path id="Path_2953" data-name="Path 2953" d="M170.946,37.826h0l.028-8.022-3.5-.013-.983,0-.028,8.022.983,0,1.258,0Z" transform="translate(24.985 4.471)" fill="none" stroke="#9b887b" stroke-linejoin="round" stroke-width="0.75"/>
      <path id="Path_2954" data-name="Path 2954" d="M172.861,103.293h0l.049-14.236h-.359l-7.236-.026-1.73-.006-.051,14.236,1.731.006,3.977.014Z" transform="translate(24.546 13.362)" fill="none" stroke="#9b887b" stroke-linejoin="round" stroke-width="0.75"/>
      <rect id="Rectangle_182" data-name="Rectangle 182" width="8.918" height="1.938" transform="matrix(0.003, -1, 1, 0.003, 186.143, 116.617)" fill="none" stroke="#9b887b" stroke-linejoin="round" stroke-width="0.75"/>
      <path id="Path_2955" data-name="Path 2955" d="M183.012,37.868l2.242.008,2.242.008.028-8.022-2.242-.008-2.242-.008Z" transform="translate(27.469 4.48)" fill="none" stroke="#9b887b" stroke-linejoin="round" stroke-width="0.75"/>
      <path id="Path_2956" data-name="Path 2956" d="M181.589,111.17h.228l.049-14.236,7.009.025.21-60.118-3.618-.013-3.618-.013Z" transform="translate(27.255 5.526)" fill="none" stroke="#9b887b" stroke-linejoin="round" stroke-width="0.75"/>
      <path id="Path_2957" data-name="Path 2957" d="M181.836,89.089l-.049,14.235h.131l2.131.007,7.063.025.031-8.918.02-5.317-2.319-.009Z" transform="translate(27.285 13.372)" fill="none" stroke="#9b887b" stroke-linejoin="round" stroke-width="0.75"/>
      <rect id="Rectangle_183" data-name="Rectangle 183" width="8.918" height="1.938" transform="translate(218.397 116.729) rotate(-89.796)" fill="none" stroke="#9b887b" stroke-linejoin="round" stroke-width="0.75"/>
      <path id="Path_2958" data-name="Path 2958" d="M177.247,14.017h0l.039-11.05a.9.9,0,1,0-1.809-.006l-.039,11.05h0Z" transform="translate(26.332 0.309)" fill="none" stroke="#9b887b" stroke-linejoin="round" stroke-width="0.75"/>
      <path id="Path_2959" data-name="Path 2959" d="M187.649,26.173s-.291-6.668-6.426-6.69h0l-7.393-.026c-6.135-.022-6.473,6.644-6.473,6.644l10.145.036Z" transform="translate(25.12 2.921)" fill="none" stroke="#9b887b" stroke-linejoin="round" stroke-width="0.75"/>
      <path id="Path_2960" data-name="Path 2960" d="M180.379,20.536h0l-2.764-8.079-1.809-.007h0l-2.82,8.059Z" transform="translate(25.964 1.869)" fill="none" stroke="#9b887b" stroke-linejoin="round" stroke-width="0.75"/>
      <path id="Path_2961" data-name="Path 2961" d="M453.436,52.919l-42.406-.044,0,2.308,44.715.046Z" transform="translate(61.693 7.936)" fill="none" stroke="#9b887b" stroke-linejoin="round" stroke-width="0.75"/>
      <path id="Path_2962" data-name="Path 2962" d="M486.146,83.622h0Z" transform="translate(72.968 12.551)" fill="none" stroke="#9b887b" stroke-linejoin="round" stroke-width="0.75"/>
      <path id="Path_2963" data-name="Path 2963" d="M412.435,91.569s-.192-3.625,3.3-3.622,3.289,3.629,3.289,3.629l-.006,5.611-3.294,0-1.983,0,10.953.012-3.152,0,.006-5.611s-.192-3.625,3.3-3.622,3.289,3.629,3.289,3.629l-.006,5.611-3.186,0,30.264.031-3.037,0-3.293,0,.006-5.611s-.192-3.626,3.3-3.623,3.29,3.63,3.29,3.63l-.006,5.611,26.457.026-2.416,0-3.294,0,.006-5.611s-.192-3.626,3.3-3.622,3.289,3.629,3.289,3.629l-.006,5.611,29.013.03.01-10.812L411,86.367l-.012,10.812h1.445Zm94.41-3.529c3.488,0,3.289,3.629,3.289,3.629l-.006,5.611-3.294,0-3.293,0,.006-5.611S503.356,88.037,506.845,88.04Zm-9.112-.009c3.489,0,3.29,3.629,3.29,3.629l-.006,5.611-3.294,0-3.293,0,0-5.611S494.245,88.028,497.733,88.031Zm-9.111-.009c3.489,0,3.289,3.629,3.289,3.629l-.006,5.611-3.293,0-3.294,0,.006-5.611S485.134,88.019,488.622,88.022ZM470.4,88c3.488,0,3.289,3.63,3.289,3.63l-.006,5.611-3.294,0-3.293,0,.006-5.611S466.911,88,470.4,88Zm-9.111-.009c3.488,0,3.289,3.63,3.289,3.63l-.006,5.611-3.294,0-3.293,0,.006-5.611S457.8,87.99,461.289,87.993Zm-18.223-.018c3.489,0,3.29,3.63,3.29,3.63l-.007,5.61-3.293,0-3.294,0,.006-5.611S439.577,87.971,443.066,87.975Zm-9.111-.009c3.489,0,3.289,3.629,3.289,3.629l-.006,5.611-3.293,0-3.294,0,.006-5.611S430.465,87.962,433.955,87.966Z" transform="translate(61.687 12.963)" fill="none" stroke="#9b887b" stroke-linejoin="round" stroke-width="0.75"/>
      <path id="Path_2964" data-name="Path 2964" d="M412.448,79.679s-.192-3.626,3.3-3.623,3.289,3.63,3.289,3.63l-.006,5.611,2.524,0,.006-5.611s-.192-3.626,3.3-3.622,3.289,3.629,3.289,3.629l-.006,5.611,2.526,0,0-5.611s-.191-3.626,3.3-3.622,3.29,3.629,3.29,3.629l-.007,5.611,2.526,0,.006-5.611s-.192-3.625,3.3-3.622,3.29,3.629,3.29,3.629l-.006,5.611,2.525,0,.006-5.611s-.192-3.625,3.3-3.622,3.289,3.629,3.289,3.629l-.006,5.611,2.524,0L458,79.725s-.192-3.625,3.3-3.622,3.289,3.629,3.289,3.629l-.006,5.611,2.524,0,.006-5.61s-.192-3.626,3.3-3.623,3.289,3.63,3.289,3.63l-.006,5.61,2.525,0,.006-5.611s-.191-3.626,3.3-3.623,3.289,3.63,3.289,3.63l0,5.61,2.524,0,.006-5.611s-.192-3.626,3.3-3.623,3.29,3.63,3.29,3.63l-.006,5.61,2.524,0,.006-5.611s-.192-3.626,3.3-3.623,3.289,3.63,3.289,3.63l-.006,5.611,2.524,0,.006-5.611s-.192-3.626,3.3-3.622,3.289,3.629,3.289,3.629l-.006,5.611h1.679v.857l.013-11.669-100.823-.1,0-2.543L411,85.289h1.444Z" transform="translate(61.689 10.797)" fill="none" stroke="#9b887b" stroke-linejoin="round" stroke-width="0.75"/>
      <path id="Path_2965" data-name="Path 2965" d="M415.748,73.8l-3.294,0,.006-5.611s-.192-3.626,3.3-3.622,3.289,3.629,3.289,3.629l-.006,5.611,2.276,0,.006-5.611s-.192-3.626,3.3-3.622,3.289,3.629,3.289,3.629l-.006,5.611h-.248l6.973.007h-1.156l-3.293,0,.006-5.611s-.192-3.626,3.3-3.623,3.29,3.63,3.29,3.63l-.006,5.611,2.275,0,.006-5.611s-.192-3.626,3.3-3.623,3.289,3.63,3.289,3.63l-.006,5.611-2.246,0,4.522,0,.006-5.611s-.192-3.626,3.3-3.623,3.289,3.63,3.289,3.63l-.006,5.611h2.275l.006-5.61s-.191-3.626,3.3-3.623,3.29,3.63,3.29,3.63l-.006,5.61H462.11l12.522.013L455.744,54.929l-44.715-.046-.02,18.908,7.126.007Z" transform="translate(61.69 8.238)" fill="none" stroke="#9b887b" stroke-linejoin="round" stroke-width="0.75"/>
      <path id="Path_2966" data-name="Path 2966" d="M446.807,47.144l-35.771-.037-.007,6.635,42.406.044Z" transform="translate(61.693 7.07)" fill="none" stroke="#9b887b" stroke-linejoin="round" stroke-width="0.75"/>
      <path id="Path_2967" data-name="Path 2967" d="M511.809,95.871l-29.013-.03h-.876l-26.457-.026h-.256l-30.264-.031h-.248l-10.953-.012h-1.31l-1.445,0-.007,6.491,100.823.1Z" transform="translate(61.686 14.374)" fill="none" stroke="#9b887b" stroke-linejoin="round" stroke-width="0.75"/>
      <path id="Path_2968" data-name="Path 2968" d="M511.83,74.671h0l0-3.246-37.2-.038-12.522-.013-2.051,0-3.294,0-2.275,0-3.294,0-3.294,0-4.522,0h-1.047l-3.293,0-2.276,0-2.137,0-6.973-.007-3.045,0-3.293,0-2.276,0h-.905l-7.126-.007v.7l0,2.543Z" transform="translate(61.69 10.705)" fill="none" stroke="#9b887b" stroke-linejoin="round" stroke-width="0.75"/>
      <path id="Path_2969" data-name="Path 2969" d="M511.818,86.894l0-2.389v-.857h-1.679l-3.294,0-3.293,0-2.524,0h0l-2.524,0h-1.08l-2.982,0-2.524,0-3.294,0-3.294,0-2.524,0-3.293,0-3.294,0-2.524,0-3.293,0-3.294,0-2.524,0-3.294,0-3.293,0-2.525,0-3.294,0-3.293,0-2.525,0-3.294,0-3.293,0-2.526,0-3.293,0-3.294,0-2.524,0-3.293,0-3.294,0-2.524,0h0l-3.294,0-3.293,0-1.445,0,0,3.246Z" transform="translate(61.688 12.54)" fill="none" stroke="#9b887b" stroke-linejoin="round" stroke-width="0.75"/>
      <path id="Path_2970" data-name="Path 2970" d="M415.569,63.295c-3.489,0-3.3,3.623-3.3,3.623l-.006,5.611,3.294,0,2.388,0h.905l.006-5.611S419.058,63.3,415.569,63.295Z" transform="translate(61.879 9.5)" fill="none" stroke="#9b887b" stroke-linejoin="round" stroke-width="0.75"/>
      <path id="Path_2971" data-name="Path 2971" d="M426.564,66.933s.2-3.625-3.289-3.629-3.3,3.622-3.3,3.622l-.006,5.611,3.294,0,3.044,0h.248Z" transform="translate(63.035 9.502)" fill="none" stroke="#9b887b" stroke-linejoin="round" stroke-width="0.75"/>
      <path id="Path_2972" data-name="Path 2972" d="M430.98,63.311c-3.489,0-3.3,3.623-3.3,3.623l-.006,5.611,3.294,0,1.156,0h2.137l.006-5.611S434.469,63.314,430.98,63.311Z" transform="translate(64.192 9.503)" fill="none" stroke="#9b887b" stroke-linejoin="round" stroke-width="0.75"/>
      <path id="Path_2973" data-name="Path 2973" d="M441.975,66.948s.2-3.625-3.289-3.63-3.3,3.623-3.3,3.623l-.006,5.611,3.293,0h1.047l2.247,0Z" transform="translate(65.349 9.504)" fill="none" stroke="#9b887b" stroke-linejoin="round" stroke-width="0.75"/>
      <path id="Path_2974" data-name="Path 2974" d="M446.391,63.327c-3.489,0-3.3,3.623-3.3,3.623l-.006,5.611,3.294,0,3.293,0h0l.006-5.61S449.88,63.33,446.391,63.327Z" transform="translate(66.505 9.505)" fill="none" stroke="#9b887b" stroke-linejoin="round" stroke-width="0.75"/>
      <path id="Path_2975" data-name="Path 2975" d="M457.386,66.964s.2-3.625-3.289-3.63-3.3,3.623-3.3,3.623l-.006,5.611,3.293,0,2.051,0h1.243Z" transform="translate(67.662 9.506)" fill="none" stroke="#9b887b" stroke-linejoin="round" stroke-width="0.75"/>
      <path id="Path_2976" data-name="Path 2976" d="M415.556,75.518c-3.489,0-3.3,3.623-3.3,3.623l-.006,5.611,3.294,0,3.293,0,.006-5.611S419.045,75.521,415.556,75.518Z" transform="translate(61.877 11.335)" fill="none" stroke="#9b887b" stroke-linejoin="round" stroke-width="0.75"/>
      <path id="Path_2977" data-name="Path 2977" d="M423.479,75.526c-3.489,0-3.3,3.622-3.3,3.622l-.006,5.611,3.294,0,3.293,0,.006-5.611S426.968,75.529,423.479,75.526Z" transform="translate(63.066 11.336)" fill="none" stroke="#9b887b" stroke-linejoin="round" stroke-width="0.75"/>
      <path id="Path_2978" data-name="Path 2978" d="M431.4,75.534c-3.489,0-3.3,3.623-3.3,3.623l-.006,5.61h0l3.294,0,3.293,0,.006-5.611S434.89,75.537,431.4,75.534Z" transform="translate(64.255 11.337)" fill="none" stroke="#9b887b" stroke-linejoin="round" stroke-width="0.75"/>
      <path id="Path_2979" data-name="Path 2979" d="M439.323,75.542c-3.489,0-3.3,3.623-3.3,3.623l-.006,5.61h0l3.294,0,3.293,0,.006-5.611S442.812,75.545,439.323,75.542Z" transform="translate(65.444 11.338)" fill="none" stroke="#9b887b" stroke-linejoin="round" stroke-width="0.75"/>
      <path id="Path_2980" data-name="Path 2980" d="M447.245,75.55c-3.489,0-3.3,3.623-3.3,3.623l-.006,5.61h0l3.294,0,3.293,0,.006-5.61S450.734,75.553,447.245,75.55Z" transform="translate(66.633 11.34)" fill="none" stroke="#9b887b" stroke-linejoin="round" stroke-width="0.75"/>
      <path id="Path_2981" data-name="Path 2981" d="M455.167,75.558c-3.489,0-3.3,3.623-3.3,3.623l-.006,5.61,3.294,0,3.293,0,.006-5.61S458.656,75.561,455.167,75.558Z" transform="translate(67.822 11.341)" fill="none" stroke="#9b887b" stroke-linejoin="round" stroke-width="0.75"/>
      <path id="Path_2982" data-name="Path 2982" d="M463.09,75.566c-3.491,0-3.3,3.623-3.3,3.623l-.007,5.611,3.294,0,3.293,0,.006-5.611S466.58,75.569,463.09,75.566Z" transform="translate(69.011 11.342)" fill="none" stroke="#9b887b" stroke-linejoin="round" stroke-width="0.75"/>
      <path id="Path_2983" data-name="Path 2983" d="M471.012,75.575c-3.489,0-3.3,3.623-3.3,3.623l-.006,5.61h0l3.294,0,3.293,0L474.3,79.2S474.5,75.578,471.012,75.575Z" transform="translate(70.201 11.343)" fill="none" stroke="#9b887b" stroke-linejoin="round" stroke-width="0.75"/>
      <path id="Path_2984" data-name="Path 2984" d="M478.934,75.583c-3.489,0-3.3,3.623-3.3,3.623l-.006,5.611,3.294,0,3.293,0,.006-5.611S482.423,75.586,478.934,75.583Z" transform="translate(71.39 11.345)" fill="none" stroke="#9b887b" stroke-linejoin="round" stroke-width="0.75"/>
      <path id="Path_2985" data-name="Path 2985" d="M486.856,75.591c-3.489,0-3.3,3.623-3.3,3.623l-.006,5.611,2.982,0h1.08l2.524,0,.006-5.61S490.345,75.594,486.856,75.591Z" transform="translate(72.579 11.346)" fill="none" stroke="#9b887b" stroke-linejoin="round" stroke-width="0.75"/>
      <path id="Path_2986" data-name="Path 2986" d="M494.778,75.6c-3.489,0-3.3,3.622-3.3,3.622l-.006,5.611,3.294,0,3.293,0,.006-5.611S498.267,75.6,494.778,75.6Z" transform="translate(73.768 11.347)" fill="none" stroke="#9b887b" stroke-linejoin="round" stroke-width="0.75"/>
      <path id="Path_2987" data-name="Path 2987" d="M418.828,96.981l.006-5.611s.2-3.625-3.289-3.629-3.3,3.622-3.3,3.622l-.006,5.611h1.31l1.983,0Z" transform="translate(61.875 13.169)" fill="none" stroke="#9b887b" stroke-linejoin="round" stroke-width="0.75"/>
      <path id="Path_2988" data-name="Path 2988" d="M426.755,91.378s.2-3.625-3.289-3.629-3.3,3.622-3.3,3.622l-.006,5.611,3.152,0h.248l3.186,0Z" transform="translate(63.064 13.171)" fill="none" stroke="#9b887b" stroke-linejoin="round" stroke-width="0.75"/>
      <path id="Path_2989" data-name="Path 2989" d="M431.379,96.993l3.294,0,.006-5.611s.2-3.625-3.29-3.629-3.3,3.622-3.3,3.622l0,5.611Z" transform="translate(64.253 13.172)" fill="none" stroke="#9b887b" stroke-linejoin="round" stroke-width="0.75"/>
      <path id="Path_2990" data-name="Path 2990" d="M439.3,97l3.293,0,.007-5.611s.2-3.625-3.29-3.629-3.3,3.622-3.3,3.622L436.007,97Z" transform="translate(65.442 13.173)" fill="none" stroke="#9b887b" stroke-linejoin="round" stroke-width="0.75"/>
      <path id="Path_2991" data-name="Path 2991" d="M447.233,87.773c-3.489,0-3.3,3.623-3.3,3.623l-.006,5.611,3.294,0,3.036,0h.257l.006-5.61S450.722,87.776,447.233,87.773Z" transform="translate(66.631 13.174)" fill="none" stroke="#9b887b" stroke-linejoin="round" stroke-width="0.75"/>
      <path id="Path_2992" data-name="Path 2992" d="M455.146,97.017l3.294,0,0-5.611s.2-3.625-3.289-3.629-3.3,3.622-3.3,3.622l-.006,5.611Z" transform="translate(67.82 13.175)" fill="none" stroke="#9b887b" stroke-linejoin="round" stroke-width="0.75"/>
      <path id="Path_2993" data-name="Path 2993" d="M463.068,97.026l3.294,0,.006-5.611s.2-3.625-3.29-3.629-3.3,3.622-3.3,3.622l0,5.611Z" transform="translate(69.01 13.177)" fill="none" stroke="#9b887b" stroke-linejoin="round" stroke-width="0.75"/>
      <path id="Path_2994" data-name="Path 2994" d="M471,87.8c-3.489,0-3.3,3.623-3.3,3.623l-.006,5.611,3.294,0,2.416,0h.876l.006-5.611S474.488,87.8,471,87.8Z" transform="translate(70.199 13.178)" fill="none" stroke="#9b887b" stroke-linejoin="round" stroke-width="0.75"/>
      <path id="Path_2995" data-name="Path 2995" d="M478.912,97.042l3.293,0,.006-5.611s.2-3.625-3.289-3.629-3.3,3.622-3.3,3.622l0,5.611Z" transform="translate(71.388 13.179)" fill="none" stroke="#9b887b" stroke-linejoin="round" stroke-width="0.75"/>
      <path id="Path_2996" data-name="Path 2996" d="M486.834,97.051l3.293,0,.006-5.611s.2-3.625-3.289-3.63-3.3,3.623-3.3,3.623l-.006,5.611Z" transform="translate(72.577 13.18)" fill="none" stroke="#9b887b" stroke-linejoin="round" stroke-width="0.75"/>
      <path id="Path_2997" data-name="Path 2997" d="M494.757,97.058l3.294,0,0-5.611s.2-3.625-3.289-3.629-3.3,3.622-3.3,3.622l-.007,5.611Z" transform="translate(73.766 13.182)" fill="none" stroke="#9b887b" stroke-linejoin="round" stroke-width="0.75"/>
      <path id="Path_2998" data-name="Path 2998" d="M65.465,26.815l0-.023,0-.007Z" transform="translate(9.825 4.02)" fill="none" stroke="#9b887b" stroke-linejoin="round" stroke-width="0.75"/>
      <path id="Path_2999" data-name="Path 2999" d="M56.88,26.791l0,.007,0,.023Z" transform="translate(8.536 4.021)" fill="none" stroke="#9b887b" stroke-linejoin="round" stroke-width="0.75"/>
      <path id="Path_3000" data-name="Path 3000" d="M64.446,25.286l0,0-.006,0Z" transform="translate(9.672 3.794)" fill="none" stroke="#9b887b" stroke-linejoin="round" stroke-width="0.75"/>
      <path id="Path_3001" data-name="Path 3001" d="M50.849,10.683h0Z" transform="translate(7.632 1.603)" fill="none" stroke="#9b887b" stroke-linejoin="round" stroke-width="0.75"/>
      <path id="Path_3002" data-name="Path 3002" d="M57.9,25.284l-.006,0,0,0Z" transform="translate(8.689 3.795)" fill="none" stroke="#9b887b" stroke-linejoin="round" stroke-width="0.75"/>
      <path id="Path_3003" data-name="Path 3003" d="M51.361,11.874h1.764c.42,0,.815-.384.98-1.016.309-1.185.171-3.584-2.58-8.09V2.75l-.006.009,0-.008v.016c-2.745,4.51-2.881,6.909-2.57,8.093.166.631.562,1.014.982,1.014h1.434Z" transform="translate(7.329 0.413)" fill="none" stroke="#9b887b" stroke-linejoin="round" stroke-width="0.75"/>
      <path id="Path_3004" data-name="Path 3004" d="M49.855,88.78h0l-3.146,0,.006,9.28,15.262-.009,14.939-.009-.006-9.281-4.561,0Z" transform="translate(7.011 13.323)" fill="none" stroke="#9b887b" stroke-linejoin="round" stroke-width="0.75"/>
      <path id="Path_3005" data-name="Path 3005" d="M43.637,96.854l0,5.348,37.279-.023,0-5.348-3.539,0-14.939.009Z" transform="translate(6.55 14.534)" fill="none" stroke="#9b887b" stroke-linejoin="round" stroke-width="0.75"/>
      <path id="Path_3006" data-name="Path 3006" d="M59.1,78.52l-9.654,9.667,0,3.3,22.492-.015-.013-20.763-1.372.688-9.87,5.533Z" transform="translate(7.421 10.614)" fill="none" stroke="#9b887b" stroke-linejoin="round" stroke-width="0.75"/>
      <path id="Path_3007" data-name="Path 3007" d="M72.917,39.973l-3.933-2.357L51.069,65.108l.016,26.157,7.768-7.777L60.439,81.9Z" transform="translate(7.665 5.646)" fill="none" stroke="#9b887b" stroke-linejoin="round" stroke-width="0.75"/>
      <path id="Path_3008" data-name="Path 3008" d="M67.867,37.837A5.336,5.336,0,0,1,57.683,35.6l0-2.958L54.849,31.2,50.6,35.446,48.8,37.256l.02,32.8,2.593-3.979L69.324,38.58Z" transform="translate(7.324 4.682)" fill="none" stroke="#9b887b" stroke-linejoin="round" stroke-width="0.75"/>
      <path id="Path_3009" data-name="Path 3009" d="M71.705,57.283l0-4.4-.009-13.213L59.215,81.592l9.87-5.532,2.631-1.474-.006-8.966Z" transform="translate(8.888 5.954)" fill="none" stroke="#9b887b" stroke-linejoin="round" stroke-width="0.75"/>
      <path id="Path_3010" data-name="Path 3010" d="M50.355,13.692Z" transform="translate(7.558 2.055)" fill="none" stroke="#9b887b" stroke-linejoin="round" stroke-width="0.75"/>
      <path id="Path_3011" data-name="Path 3011" d="M54.614,33.823,54.6,13.69H53.343l0,6.135-2.988,0,.012,18.246Z" transform="translate(7.559 2.055)" fill="none" stroke="#9b887b" stroke-linejoin="round" stroke-width="0.75"/>
      <path id="Path_3012" data-name="Path 3012" d="M47.073,14.146l9.438-.006,0-3.461-3.119,0H47.07Z" transform="translate(7.065 1.603)" fill="none" stroke="#9b887b" stroke-linejoin="round" stroke-width="0.75"/>
      <path id="Path_3013" data-name="Path 3013" d="M53.487,13.69H49.4l0,6.135h1.1l2.988,0Z" transform="translate(7.414 2.055)" fill="none" stroke="#9b887b" stroke-linejoin="round" stroke-width="0.75"/>
      <path id="Path_3014" data-name="Path 3014" d="M70.075,54.984l.006,8.337,5.188-3.307,0-4.765-1.886,3.075Z" transform="translate(10.518 8.253)" fill="none" stroke="#9b887b" stroke-linejoin="round" stroke-width="0.75"/>
      <path id="Path_3015" data-name="Path 3015" d="M74.159,46.5l-4.086,5.35,0,4.4,3.305,3.34,1.886-3.074L79.2,50.116Z" transform="translate(10.518 6.98)" fill="none" stroke="#9b887b" stroke-linejoin="round" stroke-width="0.75"/>
      <path id="Path_3016" data-name="Path 3016" d="M61.875,41.637a5.354,5.354,0,0,0,4.833-3.106,5.256,5.256,0,0,0,.512-2.245l0-4.365h0a5.348,5.348,0,1,0-10.7.008v1.407l0,2.958A5.363,5.363,0,0,0,61.875,41.637Z" transform="translate(8.483 3.989)" fill="none" stroke="#9b887b" stroke-linejoin="round" stroke-width="0.75"/>
      <path id="Path_3017" data-name="Path 3017" d="M67.325,29.067l1.422-.872-1.729-.509-.029-.026,1.606-2.6-2.786.876,0,0-.008-.007.006,0L66.4,22.3l-2.787,2.313-1.571-3.709-1.565,3.711-2.789-2.311.59,3.637.006,0-.007.007v0l-2.787-.873,1.619,2.61,0-.007a.3.3,0,0,0-.009.03l0-.023L55.34,28.2l1.423.871a5.182,5.182,0,0,0-.067.658l0,4.365h0V32.778a5.348,5.348,0,1,1,10.7-.007l0-3.047A5.181,5.181,0,0,0,67.325,29.067Zm-3.716-4.451Z" transform="translate(8.306 3.138)" fill="none" stroke="#9b887b" stroke-linejoin="round" stroke-width="0.75"/>
      <path id="Path_3018" data-name="Path 3018" d="M57.937,27.939s-2.118,10.169,3.776,10.169,4-9.922,4-9.922" transform="translate(8.64 4.193)" fill="none" stroke="#9b887b" stroke-linejoin="round" stroke-width="0.75"/>
      <path id="Path_3019" data-name="Path 3019" d="M100.078,67.443h1.775v38.989" transform="translate(15.021 10.123)" fill="none" stroke="#9b887b" stroke-linejoin="round" stroke-width="0.75"/>
      <line id="Line_13" data-name="Line 13" x2="11.653" transform="translate(197.192 75.284)" fill="none" stroke="#9b887b" stroke-linejoin="round" stroke-width="0.75"/>
      <line id="Line_14" data-name="Line 14" x2="20.013" transform="translate(232.836 70.846)" fill="none" stroke="#9b887b" stroke-linejoin="round" stroke-width="0.75"/>
      <line id="Line_15" data-name="Line 15" x2="19.971" transform="translate(232.876 110.249)" fill="none" stroke="#9b887b" stroke-linejoin="round" stroke-width="0.75"/>
      <line id="Line_16" data-name="Line 16" y2="35.49" transform="translate(381.165 81.143)" fill="none" stroke="#9b887b" stroke-linejoin="round" stroke-width="0.75"/>
      <line id="Line_17" data-name="Line 17" y2="35.469" transform="translate(409.714 81.163)" fill="none" stroke="#9b887b" stroke-linejoin="round" stroke-width="0.75"/>
      <line id="Line_18" data-name="Line 18" y2="66.884" transform="translate(395.462 49.836)" fill="none" stroke="#9b887b" stroke-linejoin="round" stroke-width="0.75"/>
      <line id="Line_19" data-name="Line 19" x2="20.298" transform="translate(436.424 55.085)" fill="none" stroke="#9b887b" stroke-linejoin="round" stroke-width="0.75"/>
      <line id="Line_20" data-name="Line 20" x2="20.236" transform="translate(436.424 95.636)" fill="none" stroke="#9b887b" stroke-linejoin="round" stroke-width="0.75"/>
      <line id="Line_21" data-name="Line 21" x2="20.236" transform="translate(436.424 59.752)" fill="none" stroke="#9b887b" stroke-linejoin="round" stroke-width="0.75"/>
      <path id="Path_3020" data-name="Path 3020" d="M684.071,62.566l2.1-41.748h1.516l2.36,41.748" transform="translate(102.675 3.125)" fill="none" stroke="#9b887b" stroke-linejoin="round" stroke-width="0.75"/>
      <line id="Line_22" data-name="Line 22" x2="25.496" transform="translate(827.493 94.841)" fill="none" stroke="#9b887b" stroke-linejoin="round" stroke-width="0.75"/>
      <line id="Line_23" data-name="Line 23" x2="862.571" transform="translate(0 116.793)" fill="none" stroke="#9b887b" stroke-linejoin="round" stroke-width="0.75"/>
      <line id="Line_24" data-name="Line 24" x1="15.634" y2="19.166" transform="translate(63.713 82.92)" fill="none" stroke="#9b887b" stroke-linejoin="round" stroke-width="0.75"/>
      <line id="Line_25" data-name="Line 25" x1="19.671" y2="52.587" transform="translate(58.751 44.325)" fill="none" stroke="#9b887b" stroke-linejoin="round" stroke-width="0.75"/>
      <line id="Line_26" data-name="Line 26" x1="5.552" y2="38.044" transform="translate(75.031 45.619)" fill="none" stroke="#9b887b" stroke-linejoin="round" stroke-width="0.75"/>
      <path id="Path_3021" data-name="Path 3021" d="M59.546,39.642,48.814,70.052,54.845,31.2" transform="translate(7.327 4.682)" fill="none" stroke="#9b887b" stroke-linejoin="round" stroke-width="0.75"/>
      <path id="Path_3022" data-name="Path 3022" d="M94.166,40.243V58.578l-3.926-.014S86.138,52.278,94.166,40.243Z" transform="translate(13.387 6.04)" fill="none" stroke="#9b887b" stroke-linejoin="round" stroke-width="0.75"/>
      <path id="Path_3023" data-name="Path 3023" d="M93.517,40.243V58.578l3.925-.014S101.542,52.278,93.517,40.243Z" transform="translate(14.036 6.04)" fill="none" stroke="#9b887b" stroke-linejoin="round" stroke-width="0.75"/>
      <line id="Line_27" data-name="Line 27" y1="5.694" x2="8.395" transform="translate(131.682 14.319)" fill="none" stroke="#9b887b" stroke-linejoin="round" stroke-width="0.75"/>
      <line id="Line_28" data-name="Line 28" y1="6.277" x2="9.309" transform="translate(132.482 16.694)" fill="none" stroke="#9b887b" stroke-linejoin="round" stroke-width="0.75"/>
      <line id="Line_29" data-name="Line 29" y1="3.984" x2="6.013" transform="translate(137.076 19.518)" fill="none" stroke="#9b887b" stroke-linejoin="round" stroke-width="0.75"/>
      <line id="Line_30" data-name="Line 30" x2="17.791" transform="translate(136.012 64.38)" fill="none" stroke="#9b887b" stroke-linejoin="round" stroke-width="0.75"/>
      <line id="Line_31" data-name="Line 31" x2="11.765" transform="translate(138.936 58.331)" fill="none" stroke="#9b887b" stroke-linejoin="round" stroke-width="0.75"/>
      <line id="Line_32" data-name="Line 32" x2="6.529" transform="translate(141.791 55.306)" fill="none" stroke="#9b887b" stroke-linejoin="round" stroke-width="0.75"/>
      <line id="Line_33" data-name="Line 33" x2="15.37" transform="translate(137.222 61.355)" fill="none" stroke="#9b887b" stroke-linejoin="round" stroke-width="0.75"/>
      <line id="Line_34" data-name="Line 34" x2="17.407" transform="translate(136.205 67.405)" fill="none" stroke="#9b887b" stroke-linejoin="round" stroke-width="0.75"/>
      <path id="Path_3024" data-name="Path 3024" d="M102.935,40.243a11.407,11.407,0,0,1,8.925,11.6" transform="translate(15.45 6.04)" fill="none" stroke="#9b887b" stroke-linejoin="round" stroke-width="0.75"/>
      <path id="Path_3025" data-name="Path 3025" d="M105.671,36.835s10.445,4.46,10.445,14.514" transform="translate(15.861 5.529)" fill="none" stroke="#9b887b" stroke-linejoin="round" stroke-width="0.75"/>
      <path id="Path_3026" data-name="Path 3026" d="M101.157,43.267s7.3,2.146,7.3,8.1" transform="translate(15.183 6.494)" fill="none" stroke="#9b887b" stroke-linejoin="round" stroke-width="0.75"/>
      <path id="Path_3027" data-name="Path 3027" d="M100.252,46.114s4.69.98,4.69,4.814" transform="translate(15.047 6.921)" fill="none" stroke="#9b887b" stroke-linejoin="round" stroke-width="0.75"/>
      <line id="Line_35" data-name="Line 35" x2="10.813" y2="4.357" transform="translate(153.229 52.083)" fill="none" stroke="#9b887b" stroke-linejoin="round" stroke-width="0.75"/>
      <line id="Line_36" data-name="Line 36" x2="16.148" y2="6.527" transform="translate(154.48 47.913)" fill="none" stroke="#9b887b" stroke-linejoin="round" stroke-width="0.75"/>
      <line id="Line_37" data-name="Line 37" x2="13.922" y2="5.721" transform="translate(156.707 44.325)" fill="none" stroke="#9b887b" stroke-linejoin="round" stroke-width="0.75"/>
      <line id="Line_38" data-name="Line 38" x2="9.12" y2="4.526" transform="translate(159.337 41.094)" fill="none" stroke="#9b887b" stroke-linejoin="round" stroke-width="0.75"/>
      <line id="Line_39" data-name="Line 39" x2="28.786" transform="translate(432.109 104.788)" fill="none" stroke="#9b887b" stroke-linejoin="round" stroke-width="0.75"/>
      <line id="Line_40" data-name="Line 40" x2="28.773" transform="translate(432.109 113.439)" fill="none" stroke="#9b887b" stroke-linejoin="round" stroke-width="0.75"/>
      <line id="Line_41" data-name="Line 41" x2="65.4" transform="translate(585.777 58.89)" fill="none" stroke="#9b887b" stroke-linejoin="round" stroke-width="0.75"/>
      <line id="Line_42" data-name="Line 42" x2="65.4" transform="translate(585.777 89.41)" fill="none" stroke="#9b887b" stroke-linejoin="round" stroke-width="0.75"/>
      <line id="Line_43" data-name="Line 43" x2="33.667" transform="translate(772.942 90.342)" fill="none" stroke="#9b887b" stroke-linejoin="round" stroke-width="0.75"/>
    </g>
  </g>
</svg>
