<svg id="Mask" xmlns="http://www.w3.org/2000/svg" width="80.559" height="97.778" viewBox="0 0 80.559 97.778">
  <path id="Path_791" data-name="Path 791" d="M192.308,162.654a11.659,11.659,0,0,1,1.3,5.095,117.867,117.867,0,0,0-12.659,1.646,27.972,27.972,0,0,0,3.071-9.537,38.527,38.527,0,0,0,8.285,2.8Z" transform="translate(-120.189 -134.521)" fill="#27535f"/>
  <path id="Path_792" data-name="Path 792" d="M206.029,213.12c.686.412,1.355,4.854.823,7.977-.274,1.664-5.181,4.082-11.047,4.7-3.774.394-7.05-2.367-8.268-3.568a3.1,3.1,0,0,0-3.139-.721l-13.123,4.409a8.612,8.612,0,0,0-.755-1.064l19.761-9.675c6.879-1.2,14.6-2.281,15.748-2.058Z" transform="translate(-131.577 -177.318)" fill="#27535f"/>
  <path id="Path_793" data-name="Path 793" d="M169.507,293.48c1.355.737,5.283,3.122,4.648,6.312L174,300.6c-.927,4.906-2.676,14.083-9.915,19.435-6.278,4.632-16.331,3.345-19.538,2.779l2.78-21.014Z" transform="translate(-93.666 -241.948)" fill="#27535f"/>
  <path id="Path_794" data-name="Path 794" d="M325.822,451.673a47.022,47.022,0,0,0,8.732-.858c-.326,3.242-.429,8.869,1.544,13.774H305.546l5.592-15.8a35.664,35.664,0,0,0,14.683,2.882Z" transform="translate(-287.101 -366.811)" fill="#27535f"/>
  <path id="Path_795" data-name="Path 795" d="M159.27,46.812c12.213-18.407,33.845-19.126,48.768-12.025,12.024,5.73,19.657,16.468,22.386,20.808a.468.468,0,0,1,.034.446.515.515,0,0,1-.36.309c-2.042.5-6.673.7-14.821-3.122a22.581,22.581,0,0,0-.292-4.323,1.286,1.286,0,1,0-2.539.411,24.144,24.144,0,0,1-3.876,17L188.021,76.384a9.266,9.266,0,0,0-6-.789,7.315,7.315,0,0,0-5.283,3.448c-3.242,5.387-.378,14.907.223,16.776.943,2.847,3.7,4.6,7.188,4.6.292,0,.566-.017.875-.034a9.432,9.432,0,0,0,3.036-.772l10.447,12.42c-10.19,1.989-17.617,0-21.082-1.321a25.309,25.309,0,0,1-3.86-2.281c-4.786-3.5-18.132-14.426-21.494-30.155-2.248-10.342.188-20.926,7.2-31.457Zm13.088-5.232a1.281,1.281,0,0,0,1.132.686,1.245,1.245,0,0,0,.6-.155,29.174,29.174,0,0,1,2.865-1.321,1.288,1.288,0,0,0,.7-1.681,1.269,1.269,0,0,0-1.664-.7c-1.064.429-2.11.909-3.1,1.424a1.3,1.3,0,0,0-.531,1.75ZM163.318,52.1a1.583,1.583,0,0,0,.48.086,1.292,1.292,0,0,0,1.2-.823,16.942,16.942,0,0,1,5.472-6.9,1.29,1.29,0,0,0-1.578-2.041,19.193,19.193,0,0,0-6.3,8.011,1.3,1.3,0,0,0,.721,1.663Z" transform="translate(-151.255 -30.616)" fill="#27535f"/>
  <path id="Path_796" data-name="Path 796" d="M190.96,268.512c1.475,1.458,5.489,4.786,10.344,4.288a29.086,29.086,0,0,0,9.143-2.539c.12.36.223.686.343.978l-21.39,8.028-11.338-6.724,12.385-4.134a.506.506,0,0,1,.515.1Z" transform="translate(-136.801 -221.767)" fill="#27535f"/>
  <path id="Path_797" data-name="Path 797" d="M306.356,289.173c-.274,1.784-2.5,2.761-4.46,2.933-1.989.155-4.615-.48-5.387-2.814-1.509-4.6-2.539-11.2-.463-14.615a4.671,4.671,0,0,1,3.465-2.247,6.171,6.171,0,0,1,5.163,1.029c2.264,1.887,2.367,5.558,2.367,5.609a1.267,1.267,0,0,0,1.286,1.252h.017a1.282,1.282,0,0,0,1.27-1.287c0-.034,0-.155-.017-.326l9.847,5.832-2.539,19.367-9.555-11.373A5.1,5.1,0,0,0,308.9,289.6a7.863,7.863,0,0,0,.034-3.242,1.29,1.29,0,0,0-1.6-.858,1.277,1.277,0,0,0-.875,1.561,7.336,7.336,0,0,1-.1,2.111ZM300.2,278.709a.807.807,0,0,1,.635-.378,1.652,1.652,0,0,1,1.544.669,1.126,1.126,0,1,0,1.715-1.458,3.873,3.873,0,0,0-3.5-1.458,3.042,3.042,0,0,0-2.264,1.372c-1.63,2.436-.446,7.2-.051,8.611a3.511,3.511,0,0,0,2.676,2.608,3.791,3.791,0,0,0,.635.051,3.6,3.6,0,0,0,2.83-1.407,1.124,1.124,0,0,0-.206-1.578,1.137,1.137,0,0,0-1.578.206,1.374,1.374,0,0,1-1.27.515,1.29,1.29,0,0,1-.909-1.012c-.72-2.487-1.028-5.592-.257-6.741Z" transform="translate(-268.357 -224.913)" fill="#27535f"/>
</svg>
