<svg xmlns="http://www.w3.org/2000/svg" width="191.291" height="97" viewBox="0 0 191.291 97">
  <g id="Parking-Space" transform="translate(-102.287 -153.627)">
    <path id="Path_860" data-name="Path 860" d="M178.478,216.463l3.967-6.873a.589.589,0,0,1,.618-.015l2.442,1.409a.587.587,0,0,1,.214.806l-3.7,6.411a.589.589,0,0,1-.806.214l-2.442-1.409a.591.591,0,0,1-.293-.542Zm12.126-21,3.968-6.872a.589.589,0,0,1,.617-.016l2.442,1.409a.591.591,0,0,1,.217.806l-3.7,6.411a.59.59,0,0,1-.806.217L190.9,196a.591.591,0,0,1-.293-.542ZM178.37,173.484l-21.073,36.5a1.589,1.589,0,0,0,.582,2.17L173.195,221a1.589,1.589,0,0,0,2.17-.582l21.073-36.5a1.589,1.589,0,0,0-.582-2.17L180.54,172.9a1.589,1.589,0,0,0-2.17.582Zm-3.245,4.182-3.7,6.411a.586.586,0,0,1-.806.214l-2.442-1.409a.589.589,0,0,1-.214-.806l3.7-6.411a.587.587,0,0,1,.806-.214l2.442,1.409a.59.59,0,0,1,.217.806Zm-12.128,21-3.7,6.411a.59.59,0,0,1-.806.217l-2.442-1.411a.588.588,0,0,1-.214-.8l3.7-6.411a.59.59,0,0,1,.806-.217l2.442,1.411A.585.585,0,0,1,163,198.668Z" transform="translate(-32.972 -11.755)" fill="#27535f" fill-rule="evenodd"/>
    <path id="Path_861" data-name="Path 861" d="M298.508,216.463l3.967-6.873a.589.589,0,0,1,.618-.015l2.442,1.409a.587.587,0,0,1,.214.806l-3.7,6.411a.589.589,0,0,1-.806.214l-2.442-1.409a.591.591,0,0,1-.293-.542Zm12.126-21,3.968-6.872a.589.589,0,0,1,.617-.016l2.442,1.409a.591.591,0,0,1,.217.806l-3.7,6.411a.59.59,0,0,1-.806.217L310.927,196a.591.591,0,0,1-.293-.542ZM298.4,173.484l-21.073,36.5a1.588,1.588,0,0,0,.582,2.17L293.225,221a1.589,1.589,0,0,0,2.17-.582l21.073-36.5a1.589,1.589,0,0,0-.582-2.17L300.57,172.9A1.589,1.589,0,0,0,298.4,173.484Zm-3.245,4.182-3.7,6.411a.586.586,0,0,1-.806.214l-2.442-1.409a.589.589,0,0,1-.214-.806l3.7-6.411a.587.587,0,0,1,.806-.214l2.442,1.409a.59.59,0,0,1,.217.806Zm-12.128,21-3.7,6.411a.59.59,0,0,1-.806.217l-2.442-1.411a.588.588,0,0,1-.214-.8l3.7-6.411a.59.59,0,0,1,.806-.217l2.442,1.411A.585.585,0,0,1,283.027,198.668Z" transform="translate(-106.989 -11.755)" fill="#27535f" fill-rule="evenodd"/>
    <path id="Path_862" data-name="Path 862" d="M135.566,156.933,106.838,206.69l2.865,1.653,29.682-51.41h42.194l-28.728,49.758,2.865,1.653,29.682-51.41h41.573l-28.725,49.758,2.865,1.653,29.682-51.41h42.194l-28.725,49.758,2.865,1.653,29.682-51.41h16.77v-3.309H102.287v3.309h33.279Z" fill="#27535f" fill-rule="evenodd"/>
    <path id="Path_863" data-name="Path 863" d="M108.866,354.089H116.8a.587.587,0,0,1,.323.526v2.821a.589.589,0,0,1-.591.589h-7.4a.591.591,0,0,1-.591-.589v-2.821a.588.588,0,0,1,.323-.526Zm24.254,0h7.935a.587.587,0,0,1,.323.526v2.821a.589.589,0,0,1-.589.589h-7.4a.589.589,0,0,1-.589-.589v-2.821a.586.586,0,0,1,.323-.526ZM146.034,332.5H103.89a1.591,1.591,0,0,0-1.59,1.59v17.683a1.591,1.591,0,0,0,1.59,1.59h42.144a1.59,1.59,0,0,0,1.587-1.59V334.095A1.591,1.591,0,0,0,146.034,332.5Zm-5.246-.72h-7.4a.589.589,0,0,1-.589-.589v-2.821a.589.589,0,0,1,.589-.589h7.4a.589.589,0,0,1,.589.589V331.2A.589.589,0,0,1,140.789,331.784Zm-24.254,0h-7.4a.591.591,0,0,1-.591-.589v-2.821a.59.59,0,0,1,.591-.589h7.4a.589.589,0,0,1,.591.589V331.2A.589.589,0,0,1,116.535,331.784Z" transform="translate(-0.008 -107.397)" fill="#27535f" fill-rule="evenodd"/>
    <path id="Path_864" data-name="Path 864" d="M224.277,277.926v3.309h40.347a31.863,31.863,0,0,0,27.593-15.93l19.568-33.9.806,3.005,3.2-.857-2.269-8.462-8.462,2.269.857,3.2,3.005-.806-19.571,33.894a28.547,28.547,0,0,1-24.725,14.276l-40.347,0Z" transform="translate(-75.226 -44.073)" fill="#27535f" fill-rule="evenodd"/>
  </g>
</svg>
