<svg xmlns="http://www.w3.org/2000/svg" width="52" height="52" viewBox="0 0 52 52">
  <g id="Quality-Assured" transform="translate(-126.403 -6.984)">
    <path id="Path_270" data-name="Path 270" d="M146.4,62.448A13.951,13.951,0,1,0,160.354,76.4,13.967,13.967,0,0,0,146.4,62.448Zm7.238,11.043-7.61,7.61a1.268,1.268,0,0,1-1.793,0l-5.073-5.073a1.268,1.268,0,0,1,1.793-1.793l4.177,4.176,6.713-6.713a1.268,1.268,0,0,1,1.793,1.794Zm18.472,2.1L168,70.613l1.074-6.368a1.269,1.269,0,0,0-.808-1.4l-6.052-2.256-2.255-6.052a1.264,1.264,0,0,0-1.4-.808L152.19,54.8l-4.979-4.114a1.268,1.268,0,0,0-1.616,0L140.617,54.8l-6.368-1.074a1.266,1.266,0,0,0-1.4.808l-2.256,6.052-6.052,2.255a1.268,1.268,0,0,0-.808,1.4l1.074,6.368-4.114,4.979a1.268,1.268,0,0,0,0,1.616l4.114,4.979-1.074,6.368a1.269,1.269,0,0,0,.808,1.4l6.052,2.254,2.255,6.052a1.266,1.266,0,0,0,1.4.808l6.368-1.074,4.979,4.114a1.267,1.267,0,0,0,1.616,0l4.979-4.114,6.368,1.074a1.268,1.268,0,0,0,1.4-.808l2.255-6.052,6.052-2.254a1.267,1.267,0,0,0,.808-1.4L168,82.187l4.114-4.979a1.268,1.268,0,0,0,0-1.616Zm-25.71,17.3A16.488,16.488,0,1,1,162.89,76.4,16.507,16.507,0,0,1,146.4,92.887Z" transform="translate(6 -43.415)" fill="#70b32f"/>
  </g>
</svg>
