<svg xmlns="http://www.w3.org/2000/svg" width="50.422" height="52" viewBox="0 0 50.422 52">
  <g id="Easy-and-Secure-Bookings" transform="translate(-78.502)">
    <path id="Path_272" data-name="Path 272" d="M180.163,394.9a2.472,2.472,0,1,1-2.472-2.472,2.472,2.472,0,0,1,2.472,2.472" transform="translate(-87.722 -355.934)" fill="#70b32f"/>
    <path id="Path_273" data-name="Path 273" d="M279.263,394.9a2.472,2.472,0,1,1-2.472-2.472,2.472,2.472,0,0,1,2.472,2.472" transform="translate(-177.605 -355.934)" fill="#70b32f"/>
    <path id="Path_274" data-name="Path 274" d="M376.56,394.9a2.472,2.472,0,1,1-2.472-2.472,2.472,2.472,0,0,1,2.472,2.472" transform="translate(-265.851 -355.934)" fill="#70b32f"/>
    <path id="Path_275" data-name="Path 275" d="M484.67,394.9a2.472,2.472,0,1,1-2.472-2.472,2.472,2.472,0,0,1,2.472,2.472" transform="translate(-363.906 -355.934)" fill="#70b32f"/>
    <path id="Path_276" data-name="Path 276" d="M376.56,303a2.472,2.472,0,1,1-2.472-2.472A2.472,2.472,0,0,1,376.56,303" transform="translate(-265.851 -272.581)" fill="#70b32f"/>
    <path id="Path_277" data-name="Path 277" d="M121.09,5.018h-.312a5.019,5.019,0,0,0-10.039,0H97.521a5.019,5.019,0,0,0-10.039,0H86.33A7.83,7.83,0,0,0,78.5,12.847V44.171A7.827,7.827,0,0,0,86.33,52h34.76a7.834,7.834,0,0,0,7.833-7.829V12.847a7.837,7.837,0,0,0-7.833-7.829Zm2.576,39.009a2.344,2.344,0,0,1-2.34,2.342h-34.9a2.347,2.347,0,0,1-2.344-2.342V23.807h39.585Z" transform="translate(0 0)" fill="#70b32f"/>
    <path id="Path_278" data-name="Path 278" d="M484.67,303a2.472,2.472,0,1,1-2.472-2.472A2.472,2.472,0,0,1,484.67,303" transform="translate(-363.906 -272.581)" fill="#70b32f"/>
  </g>
</svg>
