<svg xmlns="http://www.w3.org/2000/svg" xmlns:xlink="http://www.w3.org/1999/xlink" width="268.284" height="23.161" viewBox="0 0 268.284 23.161">
  <defs>
    <clipPath id="clip-path">
      <rect id="Rectangle_73" data-name="Rectangle 73" width="268.284" height="23.161" transform="translate(0 0)" fill="none"/>
    </clipPath>
  </defs>
  <g id="Sketch-Line" transform="translate(0 0)">
    <g id="Group_176" data-name="Group 176" clip-path="url(#clip-path)">
      <path id="Path_785" data-name="Path 785" d="M5.824,9.447c2.126.021,4.252-.1,6.376-.171.865-.027,1.73-.073,2.593-.117L26.22,8.591q6.833-.339,13.663-.722L59.4,6.78c1.491-.083,2.983-.14,4.474-.209q5.687-.27,11.371-.535L86.614,5.5c1.483-.069,2.968-.159,4.452-.208q9.072-.286,18.144-.571,5.577-.174,11.156-.351c1.455-.045,2.914-.114,4.371-.135q8.768-.128,17.538-.264l17.307-.259c1.523-.023,3.048-.012,4.57-.018l11.3-.044q8.784-.033,17.57-.067c1.914-.009,3.831.013,5.746.019q6.014.021,12.03.042l1,.005q-13.541.183-27.082.379L173.4,4.2c-1.625.024-3.254.03-4.88.072q-8.18.213-16.36.443l-18.91.511c-1.059.029-2.118.089-3.176.139l-10.07.464q-10.212.469-20.426.941c-1.008.047-2.014.118-3.021.187q-4.987.344-9.976.689-8.936.616-17.87,1.233c-1.642.115-3.283.276-4.923.415l-11.443.962c-4.848.409-9.7.8-14.544,1.227q-10.121.881-20.236,1.767-2.427.213-4.855.423c-2.9.253-5.791.62-8.685.939a.566.566,0,0,0,0,1.133q1.586.069,3.173.137a2.06,2.06,0,0,0,1.868,2.96c8.271-.516,16.539-1.076,24.818-1.471l21.56-1.026,23.837-1.136,7.505-.358c.721-.034,1.444-.08,2.166-.1q19.2-.511,38.4-1.008l20.521-.538q3.708-.1,7.413-.16,19.64-.307,39.277-.614l16.828-.27c4.79-.077,9.581-.11,14.367-.289l11.867-.449c1.974-.074,3.952-.122,5.924-.246q6.735-.424,13.47-.87l-.01.017a1.87,1.87,0,0,0,.67,2.557,1.79,1.79,0,0,0,1.441.188q1.467-.582,2.924-1.193l-.06.026.215-.091.25-.105-.091.038,1.553-.655c.542-.226,1.085-.454,1.623-.691.588-.256,1.15-.568,1.717-.87A2.084,2.084,0,0,0,268,6.676a2.007,2.007,0,0,0-1.245-.958c-.5-.088-1-.154-1.506-.219a2.883,2.883,0,0,0-.338-.019c-.341,0-.7.048-1.021.071-.762.054-1.52.167-2.283.223l-1.865.134q-2.513.183-5.023.364c-.432.032-.865.057-1.3.086a1.588,1.588,0,0,0,.336-.615,1.685,1.685,0,0,0,.132-.577c.018-.142.038-.285.058-.426a1.6,1.6,0,0,0-.094-.531l.131-.058a2.1,2.1,0,0,0,.753-.755,2.1,2.1,0,0,0,0-2.123l-.328-.426a2.111,2.111,0,0,0-.928-.541A5.549,5.549,0,0,0,251.475,0c-.559,0-1.122.039-1.676.046L247.384.07c-1.139.012-2.278.028-3.417.034q-4.514.023-9.027.046c-2.831.016-5.662.013-8.493.012q-3.86,0-7.718.006c-10.257.045-20.512.061-30.768.165L164.89.565q-5.157.056-10.313.162l-23.118.489-6.593.14c-1.274.027-2.549.094-3.824.142l-22.848.866-6.974.265c-1.3.049-2.607.136-3.91.205q-11.346.61-22.695,1.219-5.859.314-11.712.692Q42.879,5.376,32.854,6.01c-5.79.363-11.583.678-17.374,1.017l-2.753.16c-1.482.087-2.968.146-4.452.212-1.316.059-2.639.095-3.959.061a.879.879,0,0,0-.847-.591c-.851.068-1.7.16-2.55.251A.95.95,0,0,0,.031,7.8.929.929,0,0,0,.675,8.928c.369.089.736.181,1.107.265A8.387,8.387,0,0,0,2.9,9.332c.973.086,1.951.106,2.927.115M239.83,6.237l3.73,0a2.008,2.008,0,0,0,.5.729c-.481.033-.962.065-1.443.083l-2.717.1q-5.936.224-11.868.445c-1.811.068-3.621.168-5.432.2l-8.49.134q-9.7.155-19.4.308-18.829.3-37.66.6c-8.99.143-17.976.424-26.963.66q-20.312.54-40.625,1.077c-2.715.073-5.43.246-8.141.376q-11.53.554-23.058,1.106L35.626,13.13l-2.1.1q3.05-.246,6.1-.481,10.653-.813,21.306-1.629l7.441-.568c1.279-.1,2.561-.159,3.842-.238L94.376,8.973c1.444-.089,2.888-.2,4.333-.261l6.242-.242,22.844-.886,5.026-.2c.441-.017.883-.018,1.324-.027l3.53-.071q11.446-.236,22.891-.467c3.516-.072,7.031-.155,10.548-.184,11.346-.092,22.69-.209,34.036-.26,11.56-.053,23.12-.133,34.68-.142" fill="#0a91cf"/>
      <path id="Path_786" data-name="Path 786" d="M21.426,22.593a.568.568,0,1,0-.568.568.574.574,0,0,0,.568-.568" fill="#0a91cf"/>
    </g>
  </g>
</svg>
