<svg xmlns="http://www.w3.org/2000/svg" width="147.501" height="99.98" viewBox="0 0 147.501 99.98">
  <g id="Group_10744" data-name="Group 10744" transform="translate(-633.746 -438.465)">
    <path id="Path_798" data-name="Path 798" d="M96.1,109.472a9.937,9.937,0,1,1,9.937,9.937,9.937,9.937,0,0,1-9.937-9.937Zm-12.36,44.6h7.392l5.089-17.693H96.7l-.6,14.174v48.958h7.513l1.939-39.141h.969l2.06,39.141h7.392V150.553l-.606-14.178h.485l5.21,17.693h7.392L119.487,126.2a3.062,3.062,0,0,0-2.787-1.818H95.372a3.025,3.025,0,0,0-2.666,1.818Zm115.15-44.6a9.937,9.937,0,1,1,9.937,9.937,9.937,9.937,0,0,1-9.937-9.937Zm-12.358,44.6h7.392l5.089-17.693h.485l-.606,14.178v48.958H206.4l1.939-39.141h.969l2.06,39.141h7.392V150.553l-.606-14.178h.485l5.21,17.693h7.392L222.279,126.2a3.062,3.062,0,0,0-2.787-1.818H198.163A3.025,3.025,0,0,0,195.5,126.2Z" transform="translate(550.006 338.93)" fill="#27535f"/>
    <path id="Path_799" data-name="Path 799" d="M334,108.727a9.919,9.919,0,0,0-1.282-5.228,10.2,10.2,0,0,0-3.9-3.749l-3.281,6.092a2.62,2.62,0,0,1,1.529,2.689Zm-19.855,0,6.93-.2a2.622,2.622,0,0,1,1.529-2.689l-3.281-6.092a10.2,10.2,0,0,0-3.9,3.749,9.929,9.929,0,0,0-1.281,5.228Zm9.989,9.965a10.112,10.112,0,0,0,5.2-1.5l-3.651-5.895a2.63,2.63,0,0,1-3.083,0l-3.651,5.9a10.027,10.027,0,0,0,5.179,1.5Z" transform="translate(383.427 338.775)" fill="#27535f"/>
    <path id="Path_800" data-name="Path 800" d="M337.6,186.45h6.87v6.871H337.6Z" transform="translate(366.462 276.089)" fill="#27535f"/>
    <path id="Path_801" data-name="Path 801" d="M274.049,238.7l-6.36-2.6,3.044-7.4,6.36,2.6Z" transform="translate(417.008 245.547)" fill="#27535f"/>
    <path id="Path_802" data-name="Path 802" d="M287.455,190.4l.041-.1a6.494,6.494,0,0,1,5.926-3.857h1.693v6.871h-1.43l-.865,2.116-6.36-2.6Z" transform="translate(403.436 276.089)" fill="#27535f"/>
    <path id="Path_803" data-name="Path 803" d="M401.406,238.7l6.36-2.6-3.045-7.4-6.359,2.6Z" transform="translate(322.53 245.547)" fill="#27535f"/>
    <path id="Path_804" data-name="Path 804" d="M389.954,190.4l-.041-.1a6.494,6.494,0,0,0-5.926-3.857h-1.693v6.871h1.43l.865,2.116,6.36-2.6Z" transform="translate(334.148 276.089)" fill="#27535f"/>
    <path id="Path_805" data-name="Path 805" d="M259.739,275.636l-6.36-2.6-2.77,6.472h7.554Z" transform="translate(429.357 213.486)" fill="#27535f"/>
    <path id="Path_806" data-name="Path 806" d="M422.792,273.04l-6.359,2.6,1.575,3.873h7.554Z" transform="translate(309.465 213.484)" fill="#27535f"/>
    <path id="Path_807" data-name="Path 807" d="M321.276,293.767H314.4v-6.154h6.871Zm0-13.368H314.4v-7.214h6.871Zm0-14.427H314.4v-7.214h6.871Zm0-14.428H314.4V244.33h6.871Zm0-14.427H314.4V229.9h6.871Z" transform="translate(383.232 244.672)" fill="#27535f"/>
    <path id="Path_808" data-name="Path 808" d="M367.656,293.767h-6.871v-6.154h6.871Zm0-13.368h-6.871v-7.214h6.871Zm0-14.427h-6.871v-7.214h6.871Zm0-14.428h-6.871V244.33h6.871Zm0-14.427h-6.871V229.9h6.871Z" transform="translate(349.699 244.672)" fill="#27535f"/>
  </g>
</svg>
