<svg xmlns="http://www.w3.org/2000/svg" width="63.698" height="106.319" viewBox="0 0 63.698 106.319">
  <g id="Travel" transform="translate(-199.029 -28)">
    <path id="Path_853" data-name="Path 853" d="M275.543,189.864l-10.451-29.33a3.39,3.39,0,0,0-4.171-2.108l-7.673,2.312a3.375,3.375,0,0,0-2.235,2.185l-3.03-9.172a3.031,3.031,0,0,0,2.049-.788,3.206,3.206,0,0,0,.234-4.351c-.728-1.006-1.477-2.564-2.552-4.265-4.378-6.92-10.168-26.055-10.168-26.055a1.636,1.636,0,0,0-.2-.291c-.777-1.659-2.591-2.526-4.775-2.864-3.145-.488-5.921.26-6.6,3.7l-5.523,33.509a36.779,36.779,0,0,0-.924,5.855c-.152,5.517-3.992,41.257-3.992,41.257a3.064,3.064,0,1,0,6.078.776l12.077-44.424c0-.024-.016-.036-.02-.058a9.93,9.93,0,0,0,.261-1.415l1.867-16.808a92.434,92.434,0,0,0,7.765,12.661c.171.212.494.6.836,1.014l-.964.335.912,2.619.18-.063,13.708,41.483a4,4,0,1,0,6.278,3.295,3.955,3.955,0,0,0-.462-1.83c.063-.016.125-.024.188-.041l9.094-2.758a3.39,3.39,0,0,0,2.209-4.382Z" transform="translate(-13.014 -68.65)" fill="#27535f"/>
    <path id="Path_854" data-name="Path 854" d="M275.417,36.44A8.44,8.44,0,1,1,266.978,28a8.439,8.439,0,0,1,8.439,8.44" transform="translate(-46.955)" fill="#27535f"/>
    <path id="Path_855" data-name="Path 855" d="M291.65,357.464,285,317.07l-5.44,20,6.191,22.058a3.064,3.064,0,1,0,5.9-1.667Z" transform="translate(-63.545 -228.088)" fill="#27535f"/>
    <path id="Path_856" data-name="Path 856" d="M208.862,166.228l.1-.657c.754-5.127,1.315-8.793,1.692-11.073-2.26,4.327-6.69,12.855-10.618,20.71-.313.627-1.551,3.382-.724,4.77a2.673,2.673,0,0,0,1.665,1.1c2.148.587,5.133-4.819,5.721-5.937.433-.825.853-1.611,1.262-2.373l.578-3.517c.11-1.213.22-2.319.326-3.022Z" transform="translate(0 -99.813)" fill="#27535f"/>
  </g>
</svg>
