<svg id="noun-baggage-1039428" xmlns="http://www.w3.org/2000/svg" width="9.666" height="16.524" viewBox="0 0 9.666 16.524">
  <path id="Path_17615" data-name="Path 17615" d="M203.81,18.835h-1.789V16.94a.375.375,0,0,0,.14-.3.408.408,0,0,0-.4-.4h-2.947a.408.408,0,0,0-.4.4.374.374,0,0,0,.14.3v1.894h-1.789a1.325,1.325,0,0,0-1.316,1.316V30.728a1.325,1.325,0,0,0,1.316,1.316h.649V32.2a.561.561,0,1,0,1.123,0v-.158h3.491V32.2a.561.561,0,1,0,1.123,0v-.158h.649a1.325,1.325,0,0,0,1.316-1.316V20.15a1.288,1.288,0,0,0-1.3-1.316Zm-2.315-1.807v1.789h-2.421V17.028Zm-4.736,14.086a.408.408,0,0,1-.4-.4V24.22a.408.408,0,0,1,.4-.4h7.052a.408.408,0,0,1,.4.4v6.49a.408.408,0,0,1-.4.4Zm7.438-8.1a.408.408,0,0,1-.4.4h-7.034a.408.408,0,0,1-.4-.4V20.2a.408.408,0,0,1,.4-.4h7.052a.408.408,0,0,1,.4.4V23.01Z" transform="translate(-195.443 -16.239)"/>
  <path id="Path_17616" data-name="Path 17616" d="M240.695,329.2a.138.138,0,0,0,.14-.14V324.24h-7.315v4.824a.138.138,0,0,0,.14.14Z" transform="translate(-232.328 -314.592)"/>
  <path id="Path_17617" data-name="Path 17617" d="M240.274,268.1v-1.4a.138.138,0,0,0-.14-.14H233.1a.138.138,0,0,0-.14.14v1.4Z" transform="translate(-231.784 -258.717)"/>
  <path id="Path_17618" data-name="Path 17618" d="M240.151,138.32H233.1a.138.138,0,0,0-.14.14v2.807a.138.138,0,0,0,.14.14h7.052a.138.138,0,0,0,.14-.14V138.46c-.018-.088-.07-.14-.14-.14Z" transform="translate(-231.784 -134.496)"/>
</svg>
