<svg xmlns="http://www.w3.org/2000/svg" width="270.063" height="99.522" viewBox="0 0 270.063 99.522">
  <g id="Brush" transform="translate(-789.181 -192.941)">
    <path id="Path_267" data-name="Path 267" d="M242.2,21.338c21.621-1.758-19.682-5.912-38.5-7.433s-32.168-4.008,7-2.514c39.162,1.319,35.177-2.419-24.392-6.685C126.473.26,28.4,1.509,28.4,1.509-13.626.67,4.874,26.512,1.888,33.988s1.565,13.5,5.832,18.291c4.264,4.617-.935,5.586,15.063,9.863S70.751,60.1,166.509,60.39c91.061.214,48.165-5.364,27.259-7.093s-11.794-2.811,23.154-3.484c34.952-.5-4.768-3.751-1.43-6.5,3.6-2.743,46.663-2.062,13.714-5.909-6.278-.8,13.481-4.512-2.193-5.459s-10.482-2.441,9.6-2.648c19.824-.211,6.447-3.923-4.784-4.625-10.97-.524-11.25-1.578,10.371-3.337Z" transform="translate(806.338 219.183) rotate(-5)" fill="#70b32f"/>
    <path id="Path_268" data-name="Path 268" d="M242.3,51.669c21.641,2.644-19.328,5.13-38.009,5.891s-31.87,2.712,7.1,2.807c38.974.271,35.187,3.859-23.985,5.715-59.427,2.025-157.259-3.221-157.259-3.221C-11.708,61.993,5.456,36.817,2.11,29.194S3,15.713,7.019,11.079C11.041,6.621,5.81,5.437,21.546,1.8s47.919,4,143.364,7.609c90.766,3.492,48.28,7.343,27.525,8.227s-11.619,2.34,23.254,4.438c34.867,1.922-4.567,3.569-1.1,6.461,3.724,2.9,46.619,3.969,13.964,6.487-6.219.546,13.662,5.076-1.916,5.388s-10.329,2.022,9.7,3.048c19.773,1.019,6.621,4.2-4.541,4.446-10.909.079-11.137,1.125,10.5,3.77Z" transform="translate(1044.471 258.715) rotate(172)" fill="#70b32f"/>
  </g>
</svg>
