<svg xmlns="http://www.w3.org/2000/svg" width="305.509" height="306.231" viewBox="0 0 305.509 306.231">
  <g id="ComingSoon-Illustration" transform="translate(-1127 -239.989)">
    <g id="Group_14549" data-name="Group 14549" transform="translate(1127 239.99)">
      <g id="Group_14548" data-name="Group 14548" transform="translate(0 -0.001)">
        <g id="Group_14543" data-name="Group 14543" opacity="0.509">
          <g id="Group_14489" data-name="Group 14489" transform="translate(0.146)">
            <g id="Group_14488" data-name="Group 14488">
              <g id="Group_14487" data-name="Group 14487">
                <g id="Group_14486" data-name="Group 14486">
                  <g id="Group_14485" data-name="Group 14485">
                    <path id="Path_18110" data-name="Path 18110" d="M338.019,205.164c-1.5-3.385-1.838-7.132-2.829-10.686-.532-1.91-1.427-3.941-3.216-4.788-1.185-.555-2.587-.483-3.844-.87-4.52-1.354-5.754-7.664-10.033-9.623a14.542,14.542,0,0,0-4.3-.894c-5.73-.676-11.653-2.66-15.256-7.156-1.185-1.452-2.079-3.168-3.529-4.353-1.475-1.185-3.748-1.692-5.175-.483,1.209,2.417,2.394,4.835,3.578,7.228a19.025,19.025,0,0,0,4.013,6.02c1.838,1.621,4.545,2.468,6.745,1.452a4.446,4.446,0,0,1,2.274-.8,2.457,2.457,0,0,1,1.474.943c3.119,3.457,2.1,9.187-.942,12.718-3.022,3.5-7.52,5.342-11.848,7.059a9.179,9.179,0,0,1-4.835.943c-3-.556-4.594-3.82-5.464-6.745-1.958-6.479-2.9-13.515-6.914-18.979-1.281-1.718-2.878-3.288-3.651-5.295-.822-2.176-.63-4.715-1.934-6.625-1.355-2.007-4.232-3.167-4.425-5.585-.121-1.692,1.281-3.191,2.829-3.917,1.547-.75,3.288-.966,4.884-1.62.628-.266,1.329-.725,1.354-1.4,0-1.016-1.4-1.426-1.765-2.369-.386-1.063.7-2.054,1.16-3.095.992-2.369-1.474-4.763-3.867-5.73-2.369-.968-5.247-1.669-6.36-3.99a13.843,13.843,0,0,1-.773-3.457c-.556-2.925-2.709-5.754-5.657-6.238-2.975-.483-6.261,2.153-5.779,5.1.29,1.62,1.5,2.876,2.153,4.376.676,1.5.483,3.723-1.065,4.207-2.538.773-4.98-3.869-7.108-2.274.871,2.975,1.716,5.949,2.587,8.947-3.337,1.692-7.326-1.378-8.752-4.86-1.427-3.457-1.475-7.423-3.168-10.76-1.692-3.359-6.261-5.85-9.164-3.48-.144,4.3,5.538,6.045,8.051,9.526,1.815,2.514,1.547,6.6-1.136,8.2-2.66,1.595-6.89-1.185-5.876-4.11.363-1.016,1.209-1.862,1.306-2.95.1-1.354-1.04-2.441-2.079-3.313-1.621-1.378-3.24-2.732-4.86-4.086a10.2,10.2,0,0,0-3.459-2.176c-3.336-.967-6.672,1.741-8.437,4.714-1.765,3-2.756,6.5-5.2,8.995-3.506,3.626-10.155,3.844-13.443.048-3.313-3.8-1.619-10.9,3.24-12.281,1.836-.509,4.158-.459,5.126-2.08,1.692-2.876-3.144-6.552-1.475-9.453,1.28-2.225,4.666-1.209,7.132-1.959,2.442-.748,3.82-3.214,5.27-5.342,1.426-2.1,3.675-4.231,6.189-3.675a7.745,7.745,0,0,1,.266-4.4c.653-1.354,2.491-2.225,3.7-1.354-1.232,2.031.243,4.86,2.394,5.876s4.666.773,7.036.507c2.371-.29,5.344-1.16,5.538-3.529.072-.774-.218-1.6.072-2.322,1.04-2.829,6.263,1.063,8.269-1.209,1.16-1.185-.121-3.288-1.741-3.674-1.6-.412-3.265.194-4.909.241-1.644.072-3.651-.8-3.723-2.442-.072-1.621,1.741-2.781,1.934-4.376.315-2.709-4.279-3.409-5.9-1.209-1.595,2.2-1.039,5.223-.555,7.905.507,2.684.748,5.851-1.234,7.738-.847,1.281-3.045.6-3.772-.75-.75-1.354-.579-3-.7-4.522-.12-1.547-.8-3.288-2.3-3.7-1.039-.29-2.151.217-3.216.363-4.207.507-7.132-4.932-5.8-8.946,1.306-4.038,5.126-6.625,8.824-8.68,2.709-1.5,6.069-2.9,8.752-1.378,1.258.7,2.128,1.91,3.362,2.635,2.127,1.257,4.763.8,7.2.847a16.783,16.783,0,0,1,10.517,4.086c1.088.991,2.1,2.635,1.257,3.82-.919,1.258-3.554,1.524-3.095,3a5.241,5.241,0,0,0,6.576-4.23,4.4,4.4,0,0,1,2.538,3.579,7.827,7.827,0,0,1,11.484.942,9.912,9.912,0,0,0,2.128,2.732c.968.63,2.66.315,2.781-.822a2.313,2.313,0,0,0-.194-1.063c-.581-1.644-1.185-3.264-1.765-4.885,2.249-1.208,4.909.678,6.432,2.709,5.657,7.567,9.7,3.022,17.673,4.255,5.392.822,7.762,4.279,10.808,8.463,9.333,12.862,21.663,23.4,30.149,36.845.894,1.4,1.716,2.829,2.489,4.279-.144-.363-.264-.725-.41-1.088a148.832,148.832,0,0,0-12.331-25.071q-1.558-2.54-3.191-5c-.676-1.016-1.378-2.056-2.079-3.047-.894-1.306-1.838-2.563-2.781-3.82-.75-1.016-1.5-2.007-2.272-2.975-.532-.676-1.088-1.354-1.644-2.031-.579-.773-1.208-1.523-1.885-2.272l-2.031-2.345a8.7,8.7,0,0,0-.653-.725c-.7-.822-1.451-1.619-2.2-2.418a.672.672,0,0,0-.217-.241c-.194-.218-.412-.435-.628-.653-.605-.676-1.258-1.329-1.887-1.982-1.039-1.063-2.1-2.128-3.191-3.144-.894-.894-1.813-1.741-2.756-2.586-.822-.75-1.644-1.5-2.489-2.225-.822-.725-1.644-1.426-2.491-2.128-1.016-.87-2.054-1.716-3.119-2.563h-.025q-4.388-3.517-9.042-6.648c-.773-.532-1.523-1.04-2.3-1.547-.773-.532-1.572-1.016-2.345-1.5-.8-.483-1.572-.991-2.369-1.45-.8-.507-1.6-.967-2.394-1.426-.653-.387-1.281-.75-1.934-1.088a9.9,9.9,0,0,0-.991-.556c-1.378-.774-2.78-1.524-4.182-2.225-.7-.363-1.4-.725-2.128-1.063-.894-.459-1.813-.894-2.732-1.306a2.235,2.235,0,0,0-.41-.194c-.822-.387-1.644-.773-2.491-1.136-1.185-.509-2.369-1.016-3.554-1.5-1.354-.556-2.709-1.112-4.087-1.619-1.523-.581-3.045-1.137-4.593-1.644-1.547-.532-3.119-1.04-4.691-1.524s-3.144-.919-4.739-1.354c-3.142-.845-6.335-1.595-9.549-2.248-.049-.025-.121-.025-.171-.049-1.232-.241-2.466-.483-3.7-.676a1.045,1.045,0,0,0-.243-.049c-.532-.1-1.088-.192-1.644-.266-2.3-.387-4.617-.7-6.962-.967-.266-.048-.556-.072-.847-.1-.678-.1-1.354-.144-2.056-.218-1.546-.144-3.095-.266-4.666-.363-1.619-.12-3.264-.192-4.908-.241-1.716-.072-3.433-.1-5.149-.1q-6.82,0-13.492.6c-1.063.074-2.1.17-3.142.29-1.089.121-2.177.243-3.264.387s-2.177.29-3.24.459c-1.088.169-2.153.338-3.24.532-.919.146-1.861.315-2.78.509q-3.409.652-6.745,1.45-1.56.362-3.119.8c-1.04.266-2.079.556-3.095.847-1.718.483-3.385,1.016-5.054,1.547H152.7c-1.354.459-2.732.919-4.061,1.378a.179.179,0,0,0-.1.048c-1.38.484-2.707.991-4.063,1.523l-.218.074c-1.232.483-2.466.991-3.674,1.5-1.524.628-3.022,1.306-4.5,1.984-1.257.579-2.491,1.16-3.7,1.764-1.3.653-2.611,1.306-3.892,1.984l-.144.072c-1.234.653-2.466,1.329-3.675,2.03-1.257.7-2.491,1.427-3.723,2.2h-.025c-1.16.7-2.3,1.4-3.433,2.127-.436.266-.847.556-1.281.847-1.209.774-2.371,1.572-3.555,2.394-1.45.991-2.853,2.03-4.255,3.07-1.234.919-2.442,1.862-3.626,2.8a152.207,152.207,0,0,0-19,18.012c-2.056,2.272-3.99,4.594-5.876,6.963-1.6,2.031-3.142,4.087-4.619,6.214q-1.994,2.774-3.847,5.652,1.855-2.873,3.847-5.652c.387-.048.774-.1,1.162-.121,2.176-.169,4.473-.1,6.43-1.039,1.815-.894,3.095-2.515,4.739-3.675,4.207-3,11.1-3.554,12.235-8.583.386-1.693-.074-3.529.555-5.15,1.186-3.022,5.223-3.457,8.463-3.408,1.378,0,3,.192,3.626,1.4a3.461,3.461,0,0,1-.144,2.806,26.285,26.285,0,0,1-11.1,13.635c-4.207,2.563-9.7,4.546-10.855,9.333.581,1.619,3.529,1.5,3.772,3.191.169,1.354-1.572,2.056-2.2,3.265-.919,1.764,1.185,3.917,3.191,3.82s3.675-1.547,5.15-2.9c4.4-4.087,9.018-8.488,10.614-14.289.676-2.394.917-5.2,2.852-6.794a4.728,4.728,0,0,1,7.182,2.3c1.91-1.063,4.883-1.862,5.874.121a10.186,10.186,0,0,1,.412,2.272c.628,3.095,4.86,4.5,5.295,7.616.507,3.6-4.11,5.464-7.713,6.02-3.264.507-6.527,1.014-9.792,1.547a9.05,9.05,0,0,0-4.061,1.3,3.171,3.171,0,0,0-1.209,3.8,9.638,9.638,0,0,0,1.693,1.741c2.707,2.707.483,8.293-3.337,8.414-1.306.048-2.587-.435-3.892-.484-3.869-.169-6.94,3.24-8.777,6.648s-3.216,7.3-6.31,9.623c-4.981,3.748-13.564,2.878-15.981,8.632-.968,2.32-.459,4.931-.074,7.421.387,2.466.556,5.223-.894,7.278-1.426,2.03-5.15,2.465-6.214.194a5.6,5.6,0,0,1-.144-3.217c.579-3.577,1.136-7.156,1.693-10.734.41-2.66.773-5.633-.8-7.809-2.2-3.047-7.132-2.756-9.986-.315-2.829,2.442-4.013,6.263-4.811,9.912-.581,2.709-1.257,6.529-2.756,9.623h0c-.507,3-.919,6.045-1.232,9.115-.315,3.144-.533,6.263-.653,9.454a13.322,13.322,0,0,0,1.234-1.16c1.523-1.572,4.593-8.22,7.349-4.957a2.467,2.467,0,0,1,.048,3.022c-.845,1.088-2.538,1.329-3.191,2.514-.8,1.4.315,3.144,1.621,4.062,1.3.943,2.9,1.523,3.82,2.853,1.764,2.538.072,6.383,1.789,8.97,1.475,2.223,4.619,2.368,7.3,2.658.315.049.605.1.919.146.75-5.319,3.24-9.648,10.493-11.292,10.01-2.272,23.163,6.021,28.8,13.564,6.286,8.438,9.26,20.382,18.884,24.613,6.89,3.022,16.682,1.933,20.042,8.68,3,6.045-2.223,12.837-3.022,19.535-.507,4.424.943,8.824,1.281,13.249.315,4.448-.991,9.623-5.029,11.484-2.248,1.016-5.077.894-6.89,2.587-3.216,3.047-.581,9.333-3.8,12.378-1.136,1.065-2.707,1.451-4.086,2.153-7.229,3.651-7.036,14.288-3.675,21.663.121.266.243.507.363.773a152.75,152.75,0,0,0,78.36,21.639,152.056,152.056,0,0,0,71.686-17.842h.025a152.9,152.9,0,0,0,13.515-8.148A150.672,150.672,0,0,0,304.1,310.53,148.384,148.384,0,0,0,315.7,298.418c2.563-2.95,4.981-6.021,7.3-9.164,1.185-1.62,2.345-3.24,3.434-4.909a150.092,150.092,0,0,0,19-39.095,148.556,148.556,0,0,0,5.826-25.893c.459-3.434.822-6.916,1.063-10.421a8.8,8.8,0,0,1-6.14,2.732C342.516,211.621,339.494,208.549,338.019,205.164Z" transform="translate(-47.284 -46.101)" fill="#f5f5f5"/>
                  </g>
                </g>
              </g>
            </g>
          </g>
          <g id="Group_14494" data-name="Group 14494" transform="translate(97.815 3.168)">
            <g id="Group_14493" data-name="Group 14493">
              <g id="Group_14492" data-name="Group 14492">
                <g id="Group_14491" data-name="Group 14491">
                  <g id="Group_14490" data-name="Group 14490">
                    <path id="Path_18111" data-name="Path 18111" d="M133.349,85.1c-3.028,1.809-4.639,5.225-6.972,7.868S119.853,97.5,117.1,95.3a6.385,6.385,0,0,1-2.073-4.5,11.527,11.527,0,0,1,1.644-7c1.318-2.144,3.324-3.831,4.44-6.088s.886-5.559-1.4-6.617c-1.235-.572-2.788-.348-3.885-1.156-1.969-1.452-.559-4.88,1.729-5.746s4.827-.2,7.268-.04c8.856.566,15.369-5.233,22.026-10.049,5.178-3.746,16.207-8.171,22.2-4.344,2.391,1.527,3.324,5.452,1.072,7.177-1.007.771-2.4.943-3.336,1.8-1.125,1.026-1.284,2.71-1.93,4.088-1.676,3.584-6.51,4.886-8.066,8.525-.936,2.189-.514,4.913-1.958,6.809-1.146,1.5-3.132,2.031-4.97,2.468l-11.547,2.746A17.372,17.372,0,0,0,133.349,85.1Z" transform="translate(-114.89 -48.294)" fill="#ebebeb"/>
                  </g>
                </g>
              </g>
            </g>
          </g>
          <g id="Group_14499" data-name="Group 14499" transform="translate(123.883 98.771)">
            <g id="Group_14498" data-name="Group 14498">
              <g id="Group_14497" data-name="Group 14497">
                <g id="Group_14496" data-name="Group 14496">
                  <g id="Group_14495" data-name="Group 14495">
                    <path id="Path_18112" data-name="Path 18112" d="M228.565,243.731c-3.833,5.773-4.528,12.988-5.591,19.834s-2.889,14.123-8.15,18.632-14.924,4.242-17.819-2.053c-1.572-3.418-.766-7.447-1.622-11.11-1.118-4.77-4.915-8.451-6.716-13.008-1.537-3.886-1.542-8.181-1.667-12.358-.685-22.83-6.251-46.659-21.8-63.394-1.908-2.057-4.077-4.06-6.789-4.779a8.672,8.672,0,0,0-8.92,3.076c-1.248,1.653-1.893,3.761-3.421,5.156-3.321,3.034-9.12.86-11.339-3.053s-1.911-8.709-1.54-13.191q.689-8.339,1.38-16.675c.241-2.908.568-6.029,2.476-8.235,2.713-3.138,7.58-3.285,10.9-5.773,4.351-3.259,4.932-9.48,7.676-14.175s11.337-6.68,12.606-1.391c9.086-19.448,29.166,9.444,41.107,7.271,3.466-.63,6.855-2.3,10.345-1.807,6.163.862,9.346,7.653,11.443,13.512q5.22,14.591,10.442,29.18c1.326,3.706,3.04,7.824,6.709,9.246,2.811,1.091,6.079.259,8.912,1.29,7.494,2.726,5.056,14.518-.972,19.736s-14.492,8.508-17.358,15.948c-2.16,5.605-.438,12.174-2.761,17.712C234.437,237.286,230.94,240.151,228.565,243.731Z" transform="translate(-132.933 -114.47)" fill="#ebebeb"/>
                  </g>
                </g>
              </g>
            </g>
          </g>
          <g id="Group_14504" data-name="Group 14504" transform="translate(228.231 213.99)">
            <g id="Group_14503" data-name="Group 14503">
              <g id="Group_14502" data-name="Group 14502">
                <g id="Group_14501" data-name="Group 14501">
                  <g id="Group_14500" data-name="Group 14500">
                    <path id="Path_18113" data-name="Path 18113" d="M224.888,214.606c-2.462.345-5.368-.871-7.239.766-1.092.955-1.333,2.522-1.768,3.908a8.334,8.334,0,0,1-3.489,4.766,5.237,5.237,0,0,1-5.694-.1,3.854,3.854,0,0,1-.783-5.334,26.386,26.386,0,0,1,2.127-1.738c3.268-3.089,1.03-8.815,3.515-12.488,1.465-2.164,3.772-4.362,5.382-6.556,1.237-1.686,1.692-3.024,3.967-3.473C230.863,192.394,235.365,213.138,224.888,214.606Z" transform="translate(-205.161 -194.223)" fill="#ebebeb"/>
                  </g>
                </g>
              </g>
            </g>
          </g>
          <g id="Group_14509" data-name="Group 14509" transform="translate(0 149.996)">
            <g id="Group_14508" data-name="Group 14508" transform="translate(0 0)">
              <g id="Group_14507" data-name="Group 14507">
                <g id="Group_14506" data-name="Group 14506">
                  <g id="Group_14505" data-name="Group 14505">
                    <path id="Path_18114" data-name="Path 18114" d="M47.232,149.927c-.016.923-.049,1.838-.049,2.756,0,.75.025,1.491.038,2.236-.013-.745-.038-1.487-.038-2.236C47.183,151.765,47.216,150.85,47.232,149.927Z" transform="translate(-47.183 -149.927)" fill="#263238"/>
                  </g>
                </g>
              </g>
            </g>
          </g>
          <g id="Group_14514" data-name="Group 14514" transform="translate(67.713 279.64)" opacity="0.6">
            <g id="Group_14513" data-name="Group 14513">
              <g id="Group_14512" data-name="Group 14512">
                <g id="Group_14511" data-name="Group 14511">
                  <g id="Group_14510" data-name="Group 14510">
                    <path id="Path_18115" data-name="Path 18115" d="M94.053,239.665q1.927,1.3,3.9,2.535c.919.579,1.838,1.135,2.78,1.692-.942-.556-1.861-1.112-2.78-1.692Q95.979,240.967,94.053,239.665Z" transform="translate(-94.053 -239.665)" fill="#263238"/>
                  </g>
                </g>
              </g>
            </g>
          </g>
          <g id="Group_14519" data-name="Group 14519" transform="translate(0.049 146.37)" opacity="0.6">
            <g id="Group_14518" data-name="Group 14518">
              <g id="Group_14517" data-name="Group 14517">
                <g id="Group_14516" data-name="Group 14516">
                  <g id="Group_14515" data-name="Group 14515">
                    <path id="Path_18116" data-name="Path 18116" d="M47.314,147.442v-.025h0v.025c-.025.29-.049.556-.049.847-.036.906-.033,1.833-.048,2.755.014-.922.012-1.849.048-2.755C47.265,148,47.289,147.732,47.314,147.442Z" transform="translate(-47.217 -147.417)" fill="#263238"/>
                  </g>
                </g>
              </g>
            </g>
          </g>
          <g id="Group_14524" data-name="Group 14524" transform="translate(0.038 154.989)" opacity="0.6">
            <g id="Group_14523" data-name="Group 14523" transform="translate(0 0)">
              <g id="Group_14522" data-name="Group 14522">
                <g id="Group_14521" data-name="Group 14521">
                  <g id="Group_14520" data-name="Group 14520">
                    <path id="Path_18117" data-name="Path 18117" d="M47.209,153.383c.012.747.012,1.5.036,2.236h0C47.221,154.883,47.221,154.13,47.209,153.383Z" transform="translate(-47.209 -153.383)" fill="#263238"/>
                  </g>
                </g>
              </g>
            </g>
          </g>
          <g id="Group_14527" data-name="Group 14527" transform="translate(0 139.364)">
            <g id="Group_14526" data-name="Group 14526" transform="translate(0 0)">
              <g id="Group_14525" data-name="Group 14525">
                <path id="Path_18118" data-name="Path 18118" d="M143.41,222.783c.8-6.7,6.02-13.491,3.022-19.535-3.36-6.747-13.153-5.657-20.042-8.68-9.623-4.232-12.6-16.175-18.884-24.613-5.633-7.543-18.785-15.837-28.8-13.564-7.252,1.644-9.743,5.972-10.493,11.292-.313-.048-.6-.1-.919-.146-2.684-.29-5.826-.435-7.3-2.658-1.716-2.587-.025-6.432-1.789-8.97-.919-1.331-2.515-1.91-3.821-2.853-1.3-.919-2.417-2.66-1.619-4.062.653-1.185,2.346-1.426,3.191-2.514a2.467,2.467,0,0,0-.048-3.022c-2.756-3.264-5.826,3.385-7.349,4.957a13.319,13.319,0,0,1-1.234,1.16v.025c-.025.29-.049.556-.049.847-.036.906-.033,1.833-.048,2.755s-.049,1.838-.049,2.757c0,.75.025,1.491.038,2.236s.012,1.5.036,2.236c0,.363,0,.7.023,1.065A152.275,152.275,0,0,0,57,209.969a146.307,146.307,0,0,0,9.333,20.019c1.5,2.781,3.142,5.513,4.86,8.2,2.127,3.313,4.351,6.553,6.745,9.671,2.223,3,4.594,5.925,7.083,8.729A151.54,151.54,0,0,0,95.829,267.7q5.041,4.715,10.517,8.945c-7.82-20.988-15.216-42.381-27.862-60.671,12.647,18.29,20.042,39.683,27.862,60.671h.025c1.547,1.234,3.119,2.394,4.714,3.531q1.885,1.359,3.811,2.663t3.9,2.535c.919.579,1.838,1.135,2.78,1.692-.12-.266-.241-.507-.363-.773-3.36-7.375-3.554-18.012,3.675-21.663,1.378-.7,2.95-1.088,4.086-2.153,3.216-3.045.581-9.333,3.8-12.378,1.813-1.693,4.642-1.572,6.89-2.587,4.038-1.861,5.344-7.036,5.029-11.484C144.353,231.608,142.9,227.207,143.41,222.783ZM68.17,182.939c.025-1.523-.019-3.089-.072-4.658.053,1.569.1,3.135.072,4.658Zm-7.979-10.421a2.325,2.325,0,0,1-1.426-.725,2.832,2.832,0,0,1-.315-1.619c-.157-2.8-2.4-4.822-4.828-6.407,2.433,1.585,4.671,3.6,4.828,6.407a2.832,2.832,0,0,0,.315,1.619,2.325,2.325,0,0,0,1.426.725,42.054,42.054,0,0,0,7.761,1.088A42.054,42.054,0,0,1,60.191,172.518Zm6.939,23.6a18.887,18.887,0,0,1-.052-3.284,17.417,17.417,0,0,0,2.141,9.831A19.029,19.029,0,0,1,67.13,196.116Zm3.235,8.576c.407.667.839,1.323,1.287,1.973C71.2,206.015,70.772,205.359,70.365,204.692Z" transform="translate(-47.183 -142.567)" fill="#ebebeb"/>
              </g>
            </g>
          </g>
          <g id="Group_14532" data-name="Group 14532" transform="translate(2.031 42.428)">
            <g id="Group_14531" data-name="Group 14531">
              <g id="Group_14530" data-name="Group 14530">
                <g id="Group_14529" data-name="Group 14529">
                  <g id="Group_14528" data-name="Group 14528">
                    <path id="Path_18119" data-name="Path 18119" d="M56.156,141.308c2.853-2.442,7.785-2.732,9.986.315,1.572,2.176,1.209,5.149.8,7.809-.558,3.579-1.114,7.157-1.693,10.734a5.6,5.6,0,0,0,.144,3.217c1.063,2.271,4.788,1.836,6.214-.194,1.45-2.056,1.281-4.812.894-7.278-.386-2.491-.894-5.1.074-7.421,2.417-5.754,11-4.884,15.981-8.632,3.095-2.322,4.473-6.214,6.31-9.623s4.908-6.818,8.777-6.648c1.3.049,2.586.532,3.892.484,3.82-.121,6.045-5.707,3.337-8.414a9.638,9.638,0,0,1-1.693-1.741,3.171,3.171,0,0,1,1.209-3.8,9.05,9.05,0,0,1,4.061-1.3c3.265-.533,6.529-1.04,9.792-1.547,3.6-.556,8.22-2.418,7.713-6.02-.435-3.119-4.666-4.522-5.295-7.616a10.186,10.186,0,0,0-.412-2.272c-.991-1.984-3.964-1.185-5.874-.121a4.728,4.728,0,0,0-7.182-2.3c-1.934,1.6-2.176,4.4-2.852,6.794-1.6,5.8-6.215,10.2-10.614,14.289-1.475,1.354-3.144,2.8-5.15,2.9s-4.11-2.056-3.191-3.82c.628-1.209,2.369-1.911,2.2-3.265-.243-1.692-3.191-1.572-3.772-3.191,1.16-4.786,6.648-6.77,10.855-9.333a26.285,26.285,0,0,0,11.1-13.635,3.461,3.461,0,0,0,.144-2.806c-.628-1.209-2.248-1.4-3.626-1.4-3.24-.049-7.277.386-8.463,3.408-.628,1.621-.169,3.457-.555,5.15-1.137,5.029-8.028,5.585-12.235,8.583-1.644,1.16-2.924,2.781-4.739,3.675-1.958.943-4.255.87-6.43,1.039-.387.025-.774.074-1.162.121q-1.994,2.774-3.847,5.652t-3.574,5.832A151.2,151.2,0,0,0,54.03,138.479Q52.253,143.9,50.892,149.5t-2.3,11.345c1.5-3.095,2.176-6.914,2.756-9.623C52.143,147.57,53.328,143.749,56.156,141.308Z" transform="translate(-48.589 -75.47)" fill="#ebebeb"/>
                  </g>
                </g>
              </g>
            </g>
          </g>
          <g id="Group_14537" data-name="Group 14537" transform="translate(295.909 99.369)" opacity="0.6">
            <g id="Group_14536" data-name="Group 14536">
              <g id="Group_14535" data-name="Group 14535">
                <g id="Group_14534" data-name="Group 14534">
                  <g id="Group_14533" data-name="Group 14533">
                    <path id="Path_18120" data-name="Path 18120" d="M252.008,114.908q1.088,2.9,2.051,5.842-.964-2.943-2.051-5.842s.023-.025,0-.025h0Z" transform="translate(-252.007 -114.883)" fill="#263238"/>
                  </g>
                </g>
              </g>
            </g>
          </g>
          <g id="Group_14542" data-name="Group 14542" transform="translate(145.428 31.522)">
            <g id="Group_14541" data-name="Group 14541" transform="translate(0)">
              <g id="Group_14540" data-name="Group 14540">
                <g id="Group_14539" data-name="Group 14539">
                  <g id="Group_14538" data-name="Group 14538">
                    <path id="Path_18121" data-name="Path 18121" d="M307.878,187.048q-.017-3.3-.2-6.552t-.5-6.479c-.169-1.741-.363-3.457-.6-5.173q-.355-2.722-.806-5.413a148.8,148.8,0,0,0-3.57-15.864q-.854-2.991-1.817-5.932t-2.051-5.842v-.025h0c-.773-1.45-1.595-2.876-2.489-4.279-8.486-13.441-20.817-23.983-30.149-36.845-3.045-4.184-5.416-7.641-10.808-8.463-7.978-1.232-12.016,3.313-17.673-4.255-1.523-2.031-4.182-3.917-6.432-2.709.581,1.621,1.185,3.24,1.765,4.885a2.313,2.313,0,0,1,.194,1.063c-.121,1.137-1.813,1.452-2.781.822a9.911,9.911,0,0,1-2.128-2.732,7.827,7.827,0,0,0-11.484-.942,4.4,4.4,0,0,0-2.538-3.578,5.241,5.241,0,0,1-6.576,4.23c-.459-1.474,2.176-1.739,3.095-3,.847-1.185-.169-2.829-1.257-3.82a16.783,16.783,0,0,0-10.517-4.086c-2.442-.049-5.078.41-7.2-.847-1.234-.725-2.1-1.934-3.362-2.635-2.683-1.524-6.043-.121-8.752,1.378-3.7,2.054-7.518,4.642-8.824,8.68-1.331,4.013,1.595,9.453,5.8,8.946,1.065-.146,2.177-.653,3.216-.363,1.5.41,2.177,2.151,2.3,3.7.121,1.524-.049,3.168.7,4.522.727,1.354,2.926,2.031,3.772.75,1.982-1.887,1.741-5.054,1.234-7.738-.484-2.683-1.04-5.705.555-7.905,1.621-2.2,6.215-1.5,5.9,1.209-.194,1.595-2.007,2.755-1.934,4.376.072,1.644,2.079,2.514,3.723,2.442,1.644-.048,3.313-.653,4.909-.241,1.62.386,2.9,2.489,1.741,3.674-2.007,2.273-7.229-1.619-8.269,1.209-.29.725,0,1.547-.072,2.322-.194,2.369-3.167,3.239-5.538,3.529-2.369.266-4.883.509-7.036-.507s-3.626-3.844-2.394-5.876c-1.208-.871-3.045,0-3.7,1.354a7.745,7.745,0,0,0-.266,4.4c-2.514-.556-4.763,1.572-6.189,3.675-1.45,2.128-2.829,4.594-5.27,5.342-2.466.75-5.853-.266-7.133,1.959-1.669,2.9,3.167,6.576,1.475,9.453-.968,1.621-3.29,1.572-5.126,2.08-4.86,1.378-6.553,8.486-3.24,12.281,3.288,3.8,9.937,3.578,13.443-.048,2.442-2.491,3.433-6,5.2-8.995,1.765-2.973,5.1-5.681,8.437-4.714a10.2,10.2,0,0,1,3.459,2.176c1.62,1.354,3.239,2.707,4.86,4.086,1.039.871,2.176,1.959,2.079,3.313-.1,1.088-.943,1.934-1.306,2.95-1.014,2.926,3.216,5.705,5.876,4.11,2.683-1.6,2.95-5.682,1.135-8.2-2.514-3.482-8.2-5.223-8.051-9.526,2.9-2.369,7.472.121,9.164,3.48,1.693,3.337,1.741,7.3,3.168,10.76,1.426,3.482,5.415,6.552,8.752,4.86-.871-3-1.716-5.972-2.587-8.947,2.128-1.595,4.57,3.047,7.108,2.274,1.547-.484,1.741-2.709,1.065-4.207-.653-1.5-1.862-2.756-2.153-4.376-.482-2.95,2.8-5.585,5.779-5.1,2.949.484,5.1,3.313,5.657,6.238a13.843,13.843,0,0,0,.773,3.457c1.112,2.322,3.99,3.022,6.36,3.99,2.394.966,4.86,3.36,3.867,5.73-.458,1.04-1.546,2.031-1.16,3.095.363.943,1.765,1.354,1.765,2.369-.025.678-.725,1.137-1.354,1.4-1.6.653-3.337.87-4.885,1.62-1.547.725-2.95,2.225-2.829,3.917.194,2.418,3.07,3.578,4.425,5.585,1.3,1.91,1.112,4.45,1.934,6.625.773,2.007,2.369,3.577,3.651,5.295,4.013,5.464,4.957,12.5,6.914,18.979.87,2.926,2.466,6.189,5.464,6.745a9.18,9.18,0,0,0,4.835-.943c4.328-1.716,8.826-3.554,11.848-7.059,3.045-3.531,4.061-9.26.942-12.718a2.457,2.457,0,0,0-1.474-.943,4.446,4.446,0,0,0-2.274.8c-2.2,1.016-4.908.169-6.745-1.452a19.024,19.024,0,0,1-4.013-6.02c-1.185-2.392-2.369-4.811-3.578-7.228,1.427-1.209,3.7-.7,5.175.483,1.45,1.185,2.345,2.9,3.529,4.353,3.6,4.5,9.526,6.479,15.256,7.156a14.542,14.542,0,0,1,4.3.894c4.279,1.959,5.513,8.269,10.033,9.623,1.257.387,2.66.315,3.844.87,1.789.847,2.684,2.878,3.216,4.788.991,3.554,1.329,7.3,2.829,10.686,1.475,3.385,4.5,6.456,8.173,6.5a8.8,8.8,0,0,0,6.14-2.732v-.025c.194-3.336.315-6.673.315-10.058C307.927,188.45,307.927,187.748,307.878,187.048Z" transform="translate(-147.846 -67.921)" fill="#ebebeb"/>
                  </g>
                </g>
              </g>
            </g>
          </g>
        </g>
        <g id="Group_14547" data-name="Group 14547" transform="translate(210.169 124.712)">
          <g id="Group_14546" data-name="Group 14546" transform="translate(0 0)">
            <g id="Group_14545" data-name="Group 14545">
              <g id="Group_14544" data-name="Group 14544">
                <path id="Path_18122" data-name="Path 18122" d="M202.637,136.565a6.9,6.9,0,0,0-2.229-2.609c-2.375-2.142-5.418-1.849-6.65-.272a6.446,6.446,0,0,0-.487,6.388,7.054,7.054,0,0,0,4.292,4.1,4.884,4.884,0,0,0,5.413-1.825A5.59,5.59,0,0,0,202.637,136.565Z" transform="translate(-192.659 -132.425)" fill="#ebebeb"/>
              </g>
            </g>
          </g>
        </g>
      </g>
    </g>
    <g id="Group_15019" data-name="Group 15019" transform="translate(1141 270.104)" opacity="0.785">
      <path id="Path_18214" data-name="Path 18214" d="M0,145.253s97.979,62.889,138.389-.671-27.674-58.577-33.066-39.756,60.348,28.58,65.2-32.806S215.517,0,215.517,0" transform="matrix(0.998, 0.07, -0.07, 0.998, 12.068, 34.722)" fill="none" stroke="#000" stroke-width="1" stroke-dasharray="7.292 7.292"/>
      <path id="Path_18215" data-name="Path 18215" d="M19.73,18.18S-2.639,6.588.259,1.224,23.124,9.85,23.124,9.85,49.691-1.11,51.885,1.382,34.53,18.606,34.53,18.606l12.606,7.557L58.31,24.112l-9.718,8.1L46.718,45.563,43.875,32.418l-12.188-7.71S27.544,48,24.867,46.7,19.73,18.18,19.73,18.18Z" transform="matrix(-0.545, 0.839, -0.839, -0.545, 277.094, 25.463)"/>
    </g>
    <g id="The_Familiar_Bunch_18" data-name="The Familiar Bunch_18" transform="translate(1172 281.216)">
      <line id="Line_256" data-name="Line 256" x1="214.794" transform="translate(0 264.278)" fill="none" stroke="#000" stroke-linecap="round" stroke-linejoin="round" stroke-width="1.45"/>
      <path id="Path_17772" data-name="Path 17772" d="M95.49,389.854l20.25-65.139c3.7-18.85,29.388-25.356,36.91,1.883,6.2,22.424,19.733,63.923,19.733,63.923" transform="translate(-75.148 -128.183)" fill="none" stroke="#396" stroke-linecap="round" stroke-linejoin="round" stroke-width="1.45"/>
      <path id="Path_17773" data-name="Path 17773" d="M296.361,385.62l-26.522-81.9c-4.756-23.232-37.784-31.253-47.48,2.324-4.5,15.585-12.978,40.816-18.659,58" transform="translate(-93.221 -124.04)" fill="none" stroke="#396" stroke-linecap="round" stroke-linejoin="round" stroke-width="1.44"/>
      <path id="Path_17774" data-name="Path 17774" d="M212.129,402.806l-12.386-16.926c-6.189-8.33-15.752-8.863-22.357.483-4.048,5.739-11.945,16.443-11.945,16.443" transform="translate(-86.831 -140.068)" fill="none" stroke="#396" stroke-linecap="round" stroke-linejoin="round" stroke-width="1.45"/>
      <rect id="Rectangle_5179" data-name="Rectangle 5179" width="96.56" height="122.557" rx="22.29" transform="translate(58.226 32.218)" fill="#f60"/>
      <rect id="Rectangle_5180" data-name="Rectangle 5180" width="96.56" height="122.557" rx="22.29" transform="translate(58.226 32.218)" fill="none" stroke="#000" stroke-linecap="round" stroke-linejoin="round" stroke-width="1.45"/>
      <path id="Path_17775" data-name="Path 17775" d="M186.933,229.473H144.451c.117-.658,2.5-19.9,1.8-19.792-29.713,4.581-23.715-39.258,0-62.973,10.5-10.5,26.872-14.394,32.012-3.89a19.043,19.043,0,0,0,1.241,1.808h14.744a19.043,19.043,0,0,0,1.241-1.808c5.14-10.5,21.508-6.614,32.012,3.89,23.715,23.715,31.653,63.007,0,62.973,0,0,1.449,17.759,1.8,19.792Z" transform="translate(-80.269 -99.504)" fill="#feebdf" fill-rule="evenodd"/>
      <path id="Path_17776" data-name="Path 17776" d="M186.933,229.473H144.451c.117-.658,2.5-19.9,1.8-19.792-29.713,4.581-23.715-39.258,0-62.973,10.5-10.5,26.872-14.394,32.012-3.89a19.043,19.043,0,0,0,1.241,1.808h14.744a19.043,19.043,0,0,0,1.241-1.808c5.14-10.5,21.508-6.614,32.012,3.89,23.715,23.715,31.653,63.007,0,62.973,0,0,1.449,17.759,1.8,19.792Z" transform="translate(-80.269 -99.504)" fill="none" stroke="#000" stroke-linecap="round" stroke-linejoin="round" stroke-width="1.45"/>
      <path id="Path_17777" data-name="Path 17777" d="M207.206,108.395l-27.38.083c-1.908.833-4.082-4.257.267-4.815,0,0-2.1-5.523,3.032-5.289.466-3.948,5-2.915,5-3,.608-2.116,3.8-3.89,5.831-1.666.192.208,1.016-1.249,2.616-1.583a3.582,3.582,0,0,1,3.748,1.666c.067.117,2.091-1.133,3.615-.217,1.982,1.183,1.091,2.815,1.908,2.657,3.2-.633,4.165,1.283,3.707,2.682-.15.491,2.691,1.15,1.808,4.748,0,.175,1.1.258,1.433,1.391a2.549,2.549,0,0,1-1.516,3.157C210.68,108.212,207.206,108.395,207.206,108.395Z" transform="translate(-88.855 -92.062)" fill="#ff0" fill-rule="evenodd"/>
      <path id="Path_17778" data-name="Path 17778" d="M207.206,108.395l-27.38.083c-1.908.833-4.082-4.257.267-4.815,0,0-2.1-5.523,3.032-5.289.466-3.948,5-2.915,5-3,.608-2.116,3.8-3.89,5.831-1.666.192.208,1.016-1.249,2.616-1.583a3.582,3.582,0,0,1,3.748,1.666c.067.117,2.091-1.133,3.615-.217,1.982,1.183,1.091,2.815,1.908,2.657,3.2-.641,4.165,1.283,3.707,2.682-.15.491,2.691,1.15,1.808,4.748,0,.175,1.1.258,1.433,1.391a2.549,2.549,0,0,1-1.516,3.157C210.688,108.212,207.206,108.395,207.206,108.395Z" transform="translate(-88.855 -92.062)" fill="none" stroke="#000" stroke-linecap="round" stroke-linejoin="round" stroke-width="1.45"/>
      <path id="Path_17779" data-name="Path 17779" d="M190,134h15.935v7.905a7.988,7.988,0,0,1-7.972,7.963h0A7.988,7.988,0,0,1,190,141.905Z" transform="translate(-90.933 -99.066)" fill="#ffabff" fill-rule="evenodd"/>
      <path id="Path_17780" data-name="Path 17780" d="M190,134h15.935v7.905a7.988,7.988,0,0,1-7.972,7.963h0A7.988,7.988,0,0,1,190,141.905Z" transform="translate(-90.933 -99.066)" fill="none" stroke="#000" stroke-linecap="round" stroke-linejoin="round" stroke-width="1.45"/>
      <path id="Path_17781" data-name="Path 17781" d="M185.581,114.673c0,.133-.283,0-.416,0a2.107,2.107,0,0,0,.3,4.165c-2.091,8.238,3.449,17.493,11.937,16.951,3.374-.217,11.337-5.14,10-14.344a16.5,16.5,0,0,0-.616-2.624,19.467,19.467,0,0,1-2.741-7.414c-.7-6.006-9.521-7.772-15.06-3.474C186.656,109.742,185.806,113.69,185.581,114.673Z" transform="translate(-89.846 -94.317)" fill="#ffabff" fill-rule="evenodd"/>
      <path id="Path_17782" data-name="Path 17782" d="M185.581,114.673c0,.133-.283,0-.416,0a2.107,2.107,0,0,0,.3,4.165c-2.091,8.238,3.449,17.493,11.937,16.951,3.374-.217,11.337-5.14,10-14.344a16.5,16.5,0,0,0-.616-2.624,19.467,19.467,0,0,1-2.741-7.414c-.7-6.006-9.521-7.772-15.06-3.474C186.656,109.742,185.806,113.69,185.581,114.673Z" transform="translate(-89.846 -94.317)" fill="none" stroke="#000" stroke-width="1.45"/>
      <path id="Path_17783" data-name="Path 17783" d="M149.806,371.787l.883-14.927h26v35.285H126.549c-1.758-1.8.991-6.514,3.873-8.1,1.458-.833,16.951-9.688,17.026-9.713C147.89,374.186,149.723,372.52,149.806,371.787Z" transform="translate(-80.243 -136.288)" fill="#366" fill-rule="evenodd"/>
      <path id="Path_17784" data-name="Path 17784" d="M149.806,371.787l.883-14.927h26v35.285H126.549c-1.758-1.8.991-6.514,3.873-8.1,1.458-.833,16.951-9.688,17.026-9.713C147.89,374.186,149.723,372.52,149.806,371.787Z" transform="translate(-80.243 -136.288)" fill="none" stroke="#000" stroke-linecap="round" stroke-linejoin="round" stroke-width="1.45"/>
      <path id="Path_17785" data-name="Path 17785" d="M122.815,405.318l1.033-1.033a1.116,1.116,0,0,1,1.574,0l.833.833.833-.833a1.116,1.116,0,0,1,1.574,0l.833.833.833-.833a1.116,1.116,0,0,1,1.574,0l.833.833.833-.833a1.116,1.116,0,0,1,1.574,0l.833.833.833-.833a1.116,1.116,0,0,1,1.574,0l.833.833.833-.833a1.116,1.116,0,0,1,1.574,0l.833.833.833-.833a1.116,1.116,0,0,1,1.574,0l.833.833.833-.833a1.116,1.116,0,0,1,1.574,0l.833.833.833-.833a1.125,1.125,0,0,1,1.583,0l.833.833.833-.833a1.116,1.116,0,0,1,1.574,0l.833.833.833-.833a1.116,1.116,0,0,1,1.574,0l.833.833.833-.833a1.116,1.116,0,0,1,1.574,0l.833.833.833-.833a1.116,1.116,0,0,1,1.574,0l.833.833.833-.833a1.125,1.125,0,0,1,1.583,0l.833.833.833-.833a1.116,1.116,0,0,1,1.574,0l.833.833.833-.833a1.116,1.116,0,0,1,1.574,0l.833.833.833-.833a1.116,1.116,0,0,1,1.574,0l1.033,1.033a1.116,1.116,0,0,1,0,1.574l-1.033,1.033a1.116,1.116,0,0,1-1.574,0l-.833-.833-.833.833a1.116,1.116,0,0,1-1.574,0l-.833-.833-.833.833a1.116,1.116,0,0,1-1.574,0l-.833-.833-.833.833a1.124,1.124,0,0,1-1.583,0l-.833-.833-.833.833a1.116,1.116,0,0,1-1.574,0l-.833-.833-.833.833a1.116,1.116,0,0,1-1.574,0l-.833-.833-.833.833a1.116,1.116,0,0,1-1.574,0l-.833-.833-.833.833a1.116,1.116,0,0,1-1.574,0l-.833-.833-.833.833a1.124,1.124,0,0,1-1.583,0l-.833-.833-.833.833a1.116,1.116,0,0,1-1.574,0l-.833-.833-.833.833a1.116,1.116,0,0,1-1.574,0l-.833-.833-.833.833a1.116,1.116,0,0,1-1.574,0l-.833-.833-.833.833a1.116,1.116,0,0,1-1.574,0l-.833-.833-.833.833a1.116,1.116,0,0,1-1.574,0l-.833-.833-.833.833a1.116,1.116,0,0,1-1.574,0l-.833-.833-.833.833a1.116,1.116,0,0,1-1.574,0l-.833-.833-.833.833a1.116,1.116,0,0,1-1.574,0l-1.033-1.033A1.116,1.116,0,0,1,122.815,405.318Z" transform="translate(-79.658 -144.155)" fill="#feebdf" fill-rule="evenodd"/>
      <path id="Path_17786" data-name="Path 17786" d="M122.815,405.318l1.033-1.033a1.116,1.116,0,0,1,1.574,0l.833.833.833-.833a1.116,1.116,0,0,1,1.574,0l.833.833.833-.833a1.116,1.116,0,0,1,1.574,0l.833.833.833-.833a1.116,1.116,0,0,1,1.574,0l.833.833.833-.833a1.116,1.116,0,0,1,1.574,0l.833.833.833-.833a1.116,1.116,0,0,1,1.574,0l.833.833.833-.833a1.116,1.116,0,0,1,1.574,0l.833.833.833-.833a1.116,1.116,0,0,1,1.574,0l.833.833.833-.833a1.125,1.125,0,0,1,1.583,0l.833.833.833-.833a1.116,1.116,0,0,1,1.574,0l.833.833.833-.833a1.116,1.116,0,0,1,1.574,0l.833.833.833-.833a1.116,1.116,0,0,1,1.574,0l.833.833.833-.833a1.116,1.116,0,0,1,1.574,0l.833.833.833-.833a1.125,1.125,0,0,1,1.583,0l.833.833.833-.833a1.116,1.116,0,0,1,1.574,0l.833.833.833-.833a1.116,1.116,0,0,1,1.574,0l.833.833.833-.833a1.116,1.116,0,0,1,1.574,0l1.033,1.033a1.116,1.116,0,0,1,0,1.574l-1.033,1.033a1.116,1.116,0,0,1-1.574,0l-.833-.833-.833.833a1.116,1.116,0,0,1-1.574,0l-.833-.833-.833.833a1.116,1.116,0,0,1-1.574,0l-.833-.833-.833.833a1.124,1.124,0,0,1-1.583,0l-.833-.833-.833.833a1.116,1.116,0,0,1-1.574,0l-.833-.833-.833.833a1.116,1.116,0,0,1-1.574,0l-.833-.833-.833.833a1.116,1.116,0,0,1-1.574,0l-.833-.833-.833.833a1.116,1.116,0,0,1-1.574,0l-.833-.833-.833.833a1.124,1.124,0,0,1-1.583,0l-.833-.833-.833.833a1.116,1.116,0,0,1-1.574,0l-.833-.833-.833.833a1.116,1.116,0,0,1-1.574,0l-.833-.833-.833.833a1.116,1.116,0,0,1-1.574,0l-.833-.833-.833.833a1.116,1.116,0,0,1-1.574,0l-.833-.833-.833.833a1.116,1.116,0,0,1-1.574,0l-.833-.833-.833.833a1.116,1.116,0,0,1-1.574,0l-.833-.833-.833.833a1.116,1.116,0,0,1-1.574,0l-.833-.833-.833.833a1.116,1.116,0,0,1-1.574,0l-1.033-1.033A1.116,1.116,0,0,1,122.815,405.318Z" transform="translate(-79.658 -144.155)" fill="none" stroke="#000" stroke-linecap="round" stroke-linejoin="round" stroke-width="1.45"/>
      <path id="Path_17787" data-name="Path 17787" d="M177.306,403.744c4.448,0,.733-9.288-1.125-8.763-3.274.925-5-2.749-8.888-1.916-5.431,1.141-10.829,3.69-13.786,4.373-3.773.833-10-2.666-10.787-2.624-2.4.108-15.277,3-15.419,2.965s-1.491-.991-1.516-1.266c-.258-2.1-2.824,2.766-2.815,2.915.167,4.223,2.066,4.165,3.074,4.315Z" transform="translate(-79.738 -142.314)" fill="#feebdf" fill-rule="evenodd"/>
      <path id="Path_17788" data-name="Path 17788" d="M177.306,403.744c4.448,0,.733-9.288-1.125-8.763-3.274.925-5-2.749-8.888-1.916-5.431,1.141-10.829,3.69-13.786,4.373-3.773.833-10-2.666-10.787-2.624-2.4.108-15.277,3-15.419,2.965s-1.491-.991-1.516-1.266c-.258-2.1-2.824,2.766-2.815,2.915.167,4.223,2.066,4.165,3.074,4.315Z" transform="translate(-79.738 -142.314)" fill="none" stroke="#000" stroke-linecap="round" stroke-linejoin="round" stroke-width="1.45"/>
      <path id="Path_17789" data-name="Path 17789" d="M138.53,380.622l6.822.375,9.288-5.564c2.5-1.108,2.741-2.5,2.741-5l.491-13.594" transform="translate(-82.337 -136.285)" fill="none" stroke="#000" stroke-linecap="round" stroke-linejoin="round" stroke-width="1.45"/>
      <path id="Path_17790" data-name="Path 17790" d="M239.482,371.787l-.875-14.927h-26v35.285h50.137c1.758-1.8-.991-6.514-3.873-8.1-1.458-.833-16.96-9.688-17.035-9.713C241.4,374.186,239.59,372.52,239.482,371.787Z" transform="translate(-94.709 -136.288)" fill="#366" fill-rule="evenodd"/>
      <path id="Path_17791" data-name="Path 17791" d="M239.482,371.787l-.875-14.927h-26v35.285h50.137c1.758-1.8-.991-6.514-3.873-8.1-1.458-.833-16.96-9.688-17.035-9.713C241.4,374.186,239.59,372.52,239.482,371.787Z" transform="translate(-94.709 -136.288)" fill="none" stroke="#000" stroke-linecap="round" stroke-linejoin="round" stroke-width="1.45"/>
      <path id="Path_17792" data-name="Path 17792" d="M265.22,405.318l-1.025-1.033a1.116,1.116,0,0,0-1.574,0l-.833.833-.833-.833a1.124,1.124,0,0,0-1.583,0l-.833.833-.833-.833a1.116,1.116,0,0,0-1.574,0l-.833.833-.833-.833a1.116,1.116,0,0,0-1.574,0l-.833.833-.833-.833a1.116,1.116,0,0,0-1.574,0l-.833.833-.833-.833a1.116,1.116,0,0,0-1.574,0l-.833.833-.833-.833a1.125,1.125,0,0,0-1.583,0l-.833.833-.833-.833a1.116,1.116,0,0,0-1.574,0l-.833.833-.833-.833a1.116,1.116,0,0,0-1.574,0l-.833.833-.833-.833a1.116,1.116,0,0,0-1.574,0l-.833.833-.833-.833a1.116,1.116,0,0,0-1.574,0l-.833.833-.833-.833a1.125,1.125,0,0,0-1.583,0l-.833.833-.833-.833a1.116,1.116,0,0,0-1.574,0l-.833.833-.833-.833a1.116,1.116,0,0,0-1.574,0l-.833.833-.833-.833a1.116,1.116,0,0,0-1.574,0l-.833.833-.833-.833a1.116,1.116,0,0,0-1.574,0l-.833.833-.833-.833a1.116,1.116,0,0,0-1.574,0l-1.816,1.033a1.116,1.116,0,0,0,0,1.574l1.033,1.033a1.116,1.116,0,0,0,1.574,0l.833-.833.833.833a1.116,1.116,0,0,0,1.574,0l.833-.833.833.833a1.116,1.116,0,0,0,1.574,0l.833-.833.833.833a1.116,1.116,0,0,0,1.574,0l.833-.833.833.833a1.116,1.116,0,0,0,1.574,0l.833-.833.833.833a1.124,1.124,0,0,0,1.583,0l.833-.833.833.833a1.116,1.116,0,0,0,1.574,0l.833-.833.833.833a1.116,1.116,0,0,0,1.574,0l.833-.833.833.833a1.116,1.116,0,0,0,1.574,0l.833-.833.833.833a1.116,1.116,0,0,0,1.574,0l.833-.833.833.833a1.124,1.124,0,0,0,1.583,0l.833-.833.833.833a1.116,1.116,0,0,0,1.574,0l.833-.833.833.833a1.116,1.116,0,0,0,1.574,0l.833-.833.833.833a1.116,1.116,0,0,0,1.574,0l.833-.833.833.833a1.116,1.116,0,0,0,1.574,0l.833-.833.833.833a1.124,1.124,0,0,0,1.583,0l.833-.833.833.833a1.116,1.116,0,0,0,1.574,0l1.025-1.033a1.116,1.116,0,0,0,.783-1.574Z" transform="translate(-94.041 -144.155)" fill="#feebdf" fill-rule="evenodd"/>
      <path id="Path_17793" data-name="Path 17793" d="M265.22,405.318l-1.025-1.033a1.116,1.116,0,0,0-1.574,0l-.833.833-.833-.833a1.124,1.124,0,0,0-1.583,0l-.833.833-.833-.833a1.116,1.116,0,0,0-1.574,0l-.833.833-.833-.833a1.116,1.116,0,0,0-1.574,0l-.833.833-.833-.833a1.116,1.116,0,0,0-1.574,0l-.833.833-.833-.833a1.116,1.116,0,0,0-1.574,0l-.833.833-.833-.833a1.125,1.125,0,0,0-1.583,0l-.833.833-.833-.833a1.116,1.116,0,0,0-1.574,0l-.833.833-.833-.833a1.116,1.116,0,0,0-1.574,0l-.833.833-.833-.833a1.116,1.116,0,0,0-1.574,0l-.833.833-.833-.833a1.116,1.116,0,0,0-1.574,0l-.833.833-.833-.833a1.125,1.125,0,0,0-1.583,0l-.833.833-.833-.833a1.116,1.116,0,0,0-1.574,0l-.833.833-.833-.833a1.116,1.116,0,0,0-1.574,0l-.833.833-.833-.833a1.116,1.116,0,0,0-1.574,0l-.833.833-.833-.833a1.116,1.116,0,0,0-1.574,0l-.833.833-.833-.833a1.116,1.116,0,0,0-1.574,0l-1.816,1.033a1.116,1.116,0,0,0,0,1.574l1.033,1.033a1.116,1.116,0,0,0,1.574,0l.833-.833.833.833a1.116,1.116,0,0,0,1.574,0l.833-.833.833.833a1.116,1.116,0,0,0,1.574,0l.833-.833.833.833a1.116,1.116,0,0,0,1.574,0l.833-.833.833.833a1.116,1.116,0,0,0,1.574,0l.833-.833.833.833a1.124,1.124,0,0,0,1.583,0l.833-.833.833.833a1.116,1.116,0,0,0,1.574,0l.833-.833.833.833a1.116,1.116,0,0,0,1.574,0l.833-.833.833.833a1.116,1.116,0,0,0,1.574,0l.833-.833.833.833a1.116,1.116,0,0,0,1.574,0l.833-.833.833.833a1.124,1.124,0,0,0,1.583,0l.833-.833.833.833a1.116,1.116,0,0,0,1.574,0l.833-.833.833.833a1.116,1.116,0,0,0,1.574,0l.833-.833.833.833a1.116,1.116,0,0,0,1.574,0l.833-.833.833.833a1.116,1.116,0,0,0,1.574,0l.833-.833.833.833a1.124,1.124,0,0,0,1.583,0l.833-.833.833.833a1.116,1.116,0,0,0,1.574,0l1.025-1.033a1.116,1.116,0,0,0,.783-1.574Z" transform="translate(-94.041 -144.155)" fill="none" stroke="#000" stroke-linecap="round" stroke-linejoin="round" stroke-width="1.45"/>
      <path id="Path_17794" data-name="Path 17794" d="M210.83,403.744c-4.44,0-.725-9.288,1.133-8.763,3.274.925,5-2.749,8.888-1.916,5.431,1.141,10.829,3.69,13.786,4.373,3.773.833,10-2.666,10.787-2.624,2.391.108,15.269,3,15.419,2.965,0,0,1.483-.991,1.516-1.266.258-2.1,2.815,2.766,2.815,2.915-.167,4.223-2.074,4.165-3.074,4.315Z" transform="translate(-94.062 -142.314)" fill="#feebdf" fill-rule="evenodd"/>
      <path id="Path_17795" data-name="Path 17795" d="M210.83,403.744c-4.44,0-.725-9.288,1.133-8.763,3.274.925,5-2.749,8.888-1.916,5.431,1.141,10.829,3.69,13.786,4.373,3.773.833,10-2.666,10.787-2.624,2.391.108,15.269,3,15.419,2.965,0,0,1.483-.991,1.516-1.266.258-2.1,2.815,2.766,2.815,2.915-.167,4.223-2.074,4.165-3.074,4.315Z" transform="translate(-94.062 -142.314)" fill="none" stroke="#000" stroke-linecap="round" stroke-linejoin="round" stroke-width="1.45"/>
      <path id="Path_17796" data-name="Path 17796" d="M257.052,380.622l-6.83.375-9.279-5.564c-2.5-1.108-2.741-2.5-2.741-5l-.491-13.594" transform="translate(-98.901 -136.285)" fill="none" stroke="#000" stroke-linecap="round" stroke-linejoin="round" stroke-width="1.45"/>
      <path id="Path_17797" data-name="Path 17797" d="M237.87,293.3l.042-.583-6.889-44.773H150.09l-6.88,44.773.033.583h47.405l-.092-25.339.092,25.339Z" transform="translate(-83.118 -118.097)" fill="#5ca47a" fill-rule="evenodd"/>
      <path id="Path_17798" data-name="Path 17798" d="M237.87,293.3l.042-.583-6.889-44.773H150.09l-6.88,44.773.033.583h47.405l-.092-25.339.092,25.339Z" transform="translate(-83.118 -118.097)" fill="none" stroke="#000" stroke-linecap="round" stroke-linejoin="round" stroke-width="1.45"/>
      <path id="Path_17799" data-name="Path 17799" d="M148.5,211.294c21.591-3.6,28.788-44.981,31.454-58.617,0,0-20.825-5.348-22.632-6.347,0,0-17.218,31-18.576,31.57" transform="translate(-82.373 -101.126)" fill="none" stroke="#000" stroke-linecap="round" stroke-linejoin="round" stroke-width="1.45"/>
      <path id="Path_17800" data-name="Path 17800" d="M241.552,211.294c-21.591-3.6-28.788-44.981-31.462-58.617,0,0,20.825-5.348,22.641-6.347,0,0,17.218,31,18.567,31.57" transform="translate(-94.288 -101.126)" fill="none" stroke="#000" stroke-linecap="round" stroke-linejoin="round" stroke-width="1.45"/>
      <path id="Path_17801" data-name="Path 17801" d="M189.37,270.347a26.875,26.875,0,0,0,17.543-.117" transform="translate(-90.828 -121.819)" fill="none" stroke="#000" stroke-linecap="round" stroke-linejoin="round" stroke-width="1.45"/>
      <path id="Path_17802" data-name="Path 17802" d="M200.707,135.054c.217.183,0-.991-.766-.6-.9.441-2.607,2.766-.625,2.865a.466.466,0,0,0,.242-.1" transform="translate(-92.335 -99.129)" fill="none" stroke="#000" stroke-linecap="round" stroke-linejoin="round" stroke-width="1.45"/>
      <path id="Path_17803" data-name="Path 17803" d="M197.933,126.28c-.042.4-.941,2.032-.425,3.332a1.158,1.158,0,0,0,2.141,0" transform="translate(-92.16 -97.777)" fill="none" stroke="#000" stroke-linecap="round" stroke-linejoin="round" stroke-width="1.45"/>
      <path id="Path_17804" data-name="Path 17804" d="M161.94,138.677c.133.325.933-2.166,1.574-3.657,3.948-9.163,3.623-4.357,1.141-14.486-1.183-4.823-.575-10.829,2.432-14.769,2.865-3.773,5.789-6.181,10.562-6.972,4.165-.691,9.538.583,8.122,4.548-.35.991-1.833,3.9-2.582,4.381-4.923,3.174-6.664,10.829-5.589,16.293.533,2.732,5.256,3.124,7.6.975,0,0,4.673-2.407,5.406-1.791,2.732,2.3.042,5.831-3.415,7.738a14.224,14.224,0,0,0-4.481,5.906c0,.058-2.091,6.88-1.949,7.072Z" transform="translate(-86.246 -93.157)" fill="#ffabff" fill-rule="evenodd"/>
      <path id="Path_17805" data-name="Path 17805" d="M161.94,138.677c.133.325.933-2.166,1.574-3.657,3.948-9.163,3.623-4.357,1.141-14.486-1.183-4.823-.575-10.829,2.432-14.769,2.865-3.773,5.789-6.181,10.562-6.972,4.165-.691,9.538.583,8.122,4.548-.35.991-1.833,3.9-2.582,4.381-4.923,3.174-6.664,10.829-5.589,16.293.533,2.732,5.256,3.124,7.6.975,0,0,4.673-2.407,5.406-1.791,2.732,2.3.042,5.831-3.415,7.738a14.224,14.224,0,0,0-4.481,5.906c0,.058-2.091,6.88-1.949,7.072Z" transform="translate(-86.246 -93.157)" fill="none" stroke="#000" stroke-linecap="round" stroke-linejoin="round" stroke-width="1.45"/>
      <path id="Path_17806" data-name="Path 17806" d="M173.37,101.822c.766-.991,3.6-1.416,4.506.142a2.3,2.3,0,0,1,.125,2.1" transform="translate(-88.155 -93.544)" fill="none" stroke="#000" stroke-linecap="round" stroke-linejoin="round" stroke-width="1.45"/>
      <path id="Path_17807" data-name="Path 17807" d="M180.8,98.822c2.607-.408,3.965,2.432,2.774,3.723" transform="translate(-89.396 -93.185)" fill="none" stroke="#000" stroke-linecap="round" stroke-linejoin="round" stroke-width="1.45"/>
      <path id="Path_17808" data-name="Path 17808" d="M179.371,140.282c.267-1.883,1.241-3.69.416-6.531a5.681,5.681,0,0,0-.908-1.491" transform="translate(-89.076 -98.776)" fill="none" stroke="#000" stroke-linecap="round" stroke-linejoin="round" stroke-width="1.45"/>
      <path id="Path_17809" data-name="Path 17809" d="M230.868,138.677c-.133.325-.933-2.166-1.574-3.657-3.957-9.163-3.632-4.357-1.141-14.486,1.175-4.823.566-10.829-2.432-14.769-2.865-3.773-5.831-6.181-10.571-6.972-4.123-.691-9.538.583-8.122,4.548.35.991,1.841,3.9,2.591,4.381,4.923,3.174,6.664,10.829,5.581,16.293-.533,2.732-5.248,3.124-7.589.975,0,0-4.681-2.407-5.414-1.791-2.724,2.3,0,5.831,3.415,7.738a14.087,14.087,0,0,1,4.481,5.906c0,.058,2.091,6.88,1.949,7.072Z" transform="translate(-92.784 -93.157)" fill="#ffabff" fill-rule="evenodd"/>
      <path id="Path_17810" data-name="Path 17810" d="M230.868,138.677c-.133.325-.933-2.166-1.574-3.657-3.957-9.163-3.632-4.357-1.141-14.486,1.175-4.823.566-10.829-2.432-14.769-2.865-3.773-5.831-6.181-10.571-6.972-4.123-.691-9.538.583-8.122,4.548.35.991,1.841,3.9,2.591,4.381,4.923,3.174,6.664,10.829,5.581,16.293-.533,2.732-5.248,3.124-7.589.975,0,0-4.681-2.407-5.414-1.791-2.724,2.3,0,5.831,3.415,7.738a14.087,14.087,0,0,1,4.481,5.906c0,.058,2.091,6.88,1.949,7.072Z" transform="translate(-92.784 -93.157)" fill="none" stroke="#000" stroke-linecap="round" stroke-linejoin="round" stroke-width="1.45"/>
      <path id="Path_17811" data-name="Path 17811" d="M224.433,101.822c-.758-.991-3.6-1.416-4.5.142a2.3,2.3,0,0,0-.133,2.1" transform="translate(-95.878 -93.544)" fill="none" stroke="#000" stroke-linecap="round" stroke-linejoin="round" stroke-width="1.45"/>
      <path id="Path_17812" data-name="Path 17812" d="M217.357,98.822c-2.607-.408-3.965,2.432-2.766,3.723" transform="translate(-94.966 -93.185)" fill="none" stroke="#000" stroke-linecap="round" stroke-linejoin="round" stroke-width="1.45"/>
      <path id="Path_17813" data-name="Path 17813" d="M219.151,140.272c-.267-1.883-1.241-3.682-.416-6.522a5.6,5.6,0,0,1,.908-1.5" transform="translate(-95.678 -98.774)" fill="none" stroke="#000" stroke-linecap="round" stroke-linejoin="round" stroke-width="1.45"/>
      <path id="Path_17814" data-name="Path 17814" d="M181.775,102.54a13,13,0,1,1-12.995,13,13,13,0,0,1,12.995-13Z" transform="translate(-87.389 -93.812)" fill-rule="evenodd"/>
      <path id="Path_17815" data-name="Path 17815" d="M181.775,102.54a13,13,0,1,1-12.995,13,13,13,0,0,1,12.995-13Z" transform="translate(-87.389 -93.812)" fill="none" stroke="#000" stroke-linecap="round" stroke-linejoin="round" stroke-width="1.45"/>
      <path id="Path_17816" data-name="Path 17816" d="M211.641,102.54a13,13,0,1,0,12.995,13,13,13,0,0,0-12.995-13Z" transform="translate(-92.374 -93.812)" fill-rule="evenodd"/>
      <path id="Path_17817" data-name="Path 17817" d="M211.641,102.54a13,13,0,1,0,12.995,13,13,13,0,0,0-12.995-13Z" transform="translate(-92.374 -93.812)" fill="none" stroke="#000" stroke-linecap="round" stroke-linejoin="round" stroke-width="1.45"/>
      <line id="Line_257" data-name="Line 257" y1="9.446" x2="9.454" transform="translate(87.372 11.893)" fill="none" stroke="#fff" stroke-linecap="round" stroke-linejoin="round" stroke-width="1.45"/>
      <line id="Line_258" data-name="Line 258" y1="10.304" x2="10.312" transform="translate(86.514 17.491)" fill="none" stroke="#fff" stroke-linecap="round" stroke-linejoin="round" stroke-width="1.45"/>
      <line id="Line_259" data-name="Line 259" x1="11.137" y2="11.145" transform="translate(108.372 11.785)" fill="none" stroke="#fff" stroke-linecap="round" stroke-linejoin="round" stroke-width="1.45"/>
      <line id="Line_260" data-name="Line 260" y1="6.247" x2="6.256" transform="translate(117.651 12.968)" fill="none" stroke="#fff" stroke-linecap="round" stroke-linejoin="round" stroke-width="1.45"/>
      <path id="Path_17818" data-name="Path 17818" d="M236.13,248.48c.833,4.515,5.256,17.551,11.728,18.909" transform="translate(-98.637 -118.187)" fill="none" stroke="#000" stroke-linecap="round" stroke-linejoin="round" stroke-width="1.45"/>
      <path id="Path_17819" data-name="Path 17819" d="M161.647,248.48c-.833,4.515-5.264,17.551-11.737,18.909" transform="translate(-84.237 -118.187)" fill="none" stroke="#000" stroke-linecap="round" stroke-linejoin="round" stroke-width="1.45"/>
      <path id="Path_17820" data-name="Path 17820" d="M154.967,367.69l6.347,1.333c1.6.583.275,1.966-.05,1.991l-6.664,1.741,5.989,2.366c1.191.7.425,2.107-.733,2.107l-6.664-1.524,3.6,4.107c.566.908-.05,1.816-1.349,1.391a1.332,1.332,0,0,0-.292-.092l-5.664-2.724,2.649,4.29c.425,1.041-.317,1.474-1.558.991l-5.748-2.557" transform="translate(-83.389 -138.097)" fill="none" stroke="#f5874f" stroke-linecap="round" stroke-linejoin="round" stroke-width="1.45"/>
      <path id="Path_17821" data-name="Path 17821" d="M240.232,367.69l-6.347,1.333c-1.6.583-.275,1.966.05,1.991l6.664,1.741-5.989,2.366c-1.191.7-.425,2.107.733,2.107l6.664-1.524-3.6,4.107c-.566.908.05,1.816,1.349,1.391a1.332,1.332,0,0,1,.292-.092l5.673-2.724-2.657,4.29c-.425,1.041.317,1.474,1.558.991l5.748-2.557" transform="translate(-98.133 -138.097)" fill="none" stroke="#f5874f" stroke-linecap="round" stroke-linejoin="round" stroke-width="1.45"/>
      <path id="Path_17822" data-name="Path 17822" d="M143,168.562c.192.383-2.007,4.165-2.207,3.748l-10.762-21.041a1.863,1.863,0,0,1,3.332-1.666Z" transform="translate(-80.884 -101.501)" fill="#ffcc29"/>
      <path id="Path_17823" data-name="Path 17823" d="M143,168.562c.192.383-2.007,4.165-2.207,3.748l-10.762-21.041a1.863,1.863,0,0,1,3.332-1.666Z" transform="translate(-80.884 -101.501)" fill="none" stroke="#000" stroke-width="1.45"/>
      <path id="Path_17824" data-name="Path 17824" d="M139.68,153.266l-4.79,7.447-11.778-21.249a3.515,3.515,0,0,1,4.915-4.631c1.808,1.025.1,2.907.975,4.473,1.15,2.074,1.874.242,2.882,1.766.741,1.116-.35,2.591.225,3.457.891,1.349,1.958.508,2.666,1.583s-.466,1.833.175,3.015,2.815.433,3.2,1.266C138.9,151.65,139.68,153.266,139.68,153.266Z" transform="translate(-79.697 -99.124)" fill="#fdd1a1"/>
      <path id="Path_17825" data-name="Path 17825" d="M139.68,153.266l-4.79,7.447-11.778-21.249a3.515,3.515,0,0,1,4.915-4.631c1.808,1.025.1,2.907.975,4.473,1.15,2.074,1.874.242,2.882,1.766.741,1.116-.35,2.591.225,3.457.891,1.349,1.958.508,2.666,1.583s-.466,1.833.175,3.015,2.815.433,3.2,1.266C138.9,151.65,139.68,153.266,139.68,153.266Z" transform="translate(-79.697 -99.124)" fill="none" stroke="#000" stroke-width="1.45"/>
      <path id="Path_17826" data-name="Path 17826" d="M121.043,139.9c-2.007,2.407-6.747,14.4-7.922,22.416-1.883,12.761,7.8,8.13,8.9-1.258C122.859,153.936,121.76,143.215,121.043,139.9Z" transform="translate(-78.053 -100.052)" fill="none" stroke="#000" stroke-linecap="round" stroke-linejoin="round" stroke-width="1.45"/>
      <path id="Path_17827" data-name="Path 17827" d="M157.621,347.763H179.2s-.233-23.324-.083-24.915c.092-.875,4.665-20.458,4.64-20.458H156.272c.15.4-1.016,6.947-1.666,12.495-.616,5.14-2.016,9.313.658,11.837Z" transform="translate(-84.868 -127.191)" fill="#ffabff" fill-rule="evenodd"/>
      <path id="Path_17828" data-name="Path 17828" d="M157.621,347.763H179.2s-.233-23.324-.083-24.915c.092-.875,4.665-20.458,4.64-20.458H156.272c.15.4-1.016,6.947-1.666,12.495-.616,5.14-2.016,9.313.658,11.837Z" transform="translate(-84.868 -127.191)" fill="none" stroke="#000" stroke-linecap="round" stroke-linejoin="round" stroke-width="1.45"/>
      <path id="Path_17829" data-name="Path 17829" d="M235.754,347.763H214.146s.233-23.324.083-24.915c-.092-.875-4.665-20.458-4.64-20.458h27.489c-.15.4,1.016,6.947,1.666,12.495.616,5.14,2.016,9.313-.666,11.837Z" transform="translate(-94.205 -127.191)" fill="#ffabff" fill-rule="evenodd"/>
      <path id="Path_17830" data-name="Path 17830" d="M235.754,347.763H214.146s.233-23.324.083-24.915c-.092-.875-4.665-20.458-4.64-20.458h27.489c-.15.4,1.016,6.947,1.666,12.495.616,5.14,2.016,9.313-.666,11.837Z" transform="translate(-94.205 -127.191)" fill="none" stroke="#000" stroke-linecap="round" stroke-linejoin="round" stroke-width="1.45"/>
      <path id="Path_17831" data-name="Path 17831" d="M179.992,355.172H157.144l-.491-5c0-.6-1.666-2.324-.15-3.332a1.4,1.4,0,0,1,.591-.083H179.5c1.466.425,1.374,1.874.75,2.907l-.258.433Z" transform="translate(-85.232 -134.6)" fill="#fff" fill-rule="evenodd"/>
      <path id="Path_17832" data-name="Path 17832" d="M179.992,355.172H157.144l-.491-5c0-.6-1.666-2.324-.15-3.332a1.4,1.4,0,0,1,.591-.083H179.5c1.466.425,1.374,1.874.75,2.907l-.258.433Z" transform="translate(-85.232 -134.6)" fill="none" stroke="#000" stroke-linecap="round" stroke-linejoin="round" stroke-width="1.45"/>
      <path id="Path_17833" data-name="Path 17833" d="M214.411,355.172h22.865l.491-5c0-.6,1.666-2.324.15-3.332a1.417,1.417,0,0,0-.6-.083H214.9c-1.466.425-1.383,1.874-.75,2.907l.258.433Z" transform="translate(-94.895 -134.6)" fill="#fff" fill-rule="evenodd"/>
      <path id="Path_17834" data-name="Path 17834" d="M214.411,355.172h22.865l.491-5c0-.6,1.666-2.324.15-3.332a1.417,1.417,0,0,0-.6-.083H214.9c-1.466.425-1.383,1.874-.75,2.907l.258.433Z" transform="translate(-94.895 -134.6)" fill="none" stroke="#000" stroke-linecap="round" stroke-linejoin="round" stroke-width="1.45"/>
      <line id="Line_261" data-name="Line 261" x1="19.967" transform="translate(73.236 215.982)" fill="none" stroke="blue" stroke-linecap="round" stroke-linejoin="round" stroke-width="1.45"/>
      <line id="Line_262" data-name="Line 262" x2="19.967" transform="translate(121.075 215.982)" fill="none" stroke="blue" stroke-linecap="round" stroke-linejoin="round" stroke-width="1.45"/>
      <path id="Path_17835" data-name="Path 17835" d="M241.244,373.915a1.858,1.858,0,0,1-3.332,1.566l-73.861-158.45c-.425-.9,2.549-3.224,2.849-2.574Z" transform="translate(-86.592 -112.485)" fill="#ffcc29"/>
      <path id="Path_17836" data-name="Path 17836" d="M241.244,373.915a1.858,1.858,0,0,1-3.332,1.566l-73.861-158.45c-.425-.9,2.549-3.224,2.849-2.574Z" transform="translate(-86.592 -112.485)" fill="none" stroke="#000" stroke-width="1.45"/>
      <line id="Line_263" data-name="Line 263" x2="22.282" transform="translate(95.369 71.21)" fill="none" stroke="#000" stroke-linecap="round" stroke-linejoin="round" stroke-width="1.45"/>
      <line id="Line_264" data-name="Line 264" x2="29.713" transform="translate(91.654 86.07)" fill="none" stroke="#000" stroke-linecap="round" stroke-linejoin="round" stroke-width="1.45"/>
      <path id="Path_17837" data-name="Path 17837" d="M155.52,331.563a5.648,5.648,0,0,0,5.673-.083" transform="translate(-85.174 -132.049)" fill="none" stroke="#000" stroke-linecap="round" stroke-linejoin="round" stroke-width="1.45"/>
      <path id="Path_17838" data-name="Path 17838" d="M242.624,331.68a5,5,0,0,1-5.614-.4" transform="translate(-98.784 -132.016)" fill="none" stroke="#000" stroke-linecap="round" stroke-linejoin="round" stroke-width="1.45"/>
    </g>
  </g>
</svg>
