<svg xmlns="http://www.w3.org/2000/svg" xmlns:xlink="http://www.w3.org/1999/xlink" width="2546.323" height="301.927" viewBox="0 0 2546.323 301.927">
  <defs>
    <clipPath id="clip-path">
      <rect id="Rectangle_5027" data-name="Rectangle 5027" width="541.124" height="97.34" fill="none" stroke="#707070" stroke-width="1.5"/>
    </clipPath>
    <clipPath id="clip-path-2">
      <rect id="Rectangle_5027-2" data-name="Rectangle 5027" width="652.051" height="117.294" fill="none" stroke="#707070" stroke-width="1.5"/>
    </clipPath>
    <clipPath id="clip-path-3">
      <rect id="Rectangle_5027-3" data-name="Rectangle 5027" width="525.96" height="94.612" fill="none" stroke="#707070" stroke-width="1.5"/>
    </clipPath>
    <clipPath id="clip-path-4">
      <rect id="Rectangle_5027-4" data-name="Rectangle 5027" width="566.432" height="101.892" transform="translate(0 0)" fill="none" stroke="#707070" stroke-width="1.5"/>
    </clipPath>
  </defs>
  <g id="DOODLES" transform="translate(-12.092 -82.373)">
    <path id="noun-palm-tree-1496206" d="M237.817,99.078c-.122-.267-12.772-26.817-39.9-31.289a92.715,92.715,0,0,0-14.743-1.5,33.221,33.221,0,0,0-6.793.628,84.528,84.528,0,0,1,11-5.673l1.989-.9L187.448,59.3a30.387,30.387,0,0,0-2.88-1.361,69.919,69.919,0,0,1,9.493.276l.265.023.249-.1c9.394-3.856,16.947-6.235,17.024-6.26l3.279-1.027-3.276-1.04a62.063,62.063,0,0,0-18.514-3.165c-21.855,0-30.215,15.736-33.34,22.621-.052-.466-.1-.949-.15-1.453-.447-4.518-1-10.139-6.067-15.326-5.95-6.094-22.458-7.372-35.261-7.372-5.375,0-9.228.242-9.267.244l-4.5.287,4.141,1.79c.073.032,7.52,3.258,16.673,8.105l.192.1.217.022c3.328.309,6.459.72,9.366,1.23-.884.093-1.792.2-2.685.326l-3.14.439,2.751,1.575a89.572,89.572,0,0,1,10,6.342c-3.4-.87-7.228-1.045-13.148-.893-18.5.487-39.338,16.076-42.881,32.083l-.433,1.958,1.876-.713c.057-.022,5.764-2.18,14.434-5.05l.415-.14.2-.39a36.08,36.08,0,0,1,3.745-5.78c-.281,1.026-.575,2.187-.855,3.451l-.412,1.84,1.8-.573c6.851-2.187,13.592-4.173,20.034-5.9l.44-.118.222-.4a31.659,31.659,0,0,1,3.648-5.2c-.356.967-.725,2.035-1.077,3.154l-.578,1.853,1.882-.478c.922-.237,1.838-.464,2.753-.689-12.493,6.781-23.875,18.036-23.128,36.453l.075,1.892,1.593-1.026c.142-.091,3.542-2.293,9.2-6.715l.349-.276.392-3.074c.055.22.113.448.172.677l.422,1.627,1.307-1.056c4.779-3.861,9.65-8.116,14.474-12.652l.374-.351-.036-.512q-.094-1.35-.125-2.581c.124.284.256.578.389.879l.63,1.407,1.112-1.069c1.838-1.772,3.832-3.756,5.939-5.913a11.147,11.147,0,0,0,2.832,4.18c-18.929,45.053-18.866,92.876-18.551,104.145a62,62,0,0,0-19.662,9.079l-2.576,1.947h76.676l-2.576-1.947a63.193,63.193,0,0,0-24-10.094c-.936-13.514-3.034-57,4.409-102.708l.084-.53a14.42,14.42,0,0,0,3.58-5.307c.143.206.287.419.429.63.763,1.121,1.548,2.279,2.1,2.916l1.493,1.715.866-4.939a18.8,18.8,0,0,1,1.14,5.82l.015.4.276.3a94.729,94.729,0,0,0,12.271,11.263l1.423,1.149.591-1.237c.1-.2.188-.394.276-.589-.032.569-.07,1.169-.115,1.788l-.048.583.466.358A108.585,108.585,0,0,0,204.536,120.7l1.86.936-.3-2.064c-3.031-20.562-13.918-31.692-24.819-37.708.462.1.924.2,1.387.309l1.622.371-.319-1.633c-.091-.48-.192-.95-.3-1.407a27.376,27.376,0,0,1,2.062,3.057l.227.394.444.111c6.573,1.642,13.73,3.772,21.268,6.335l1.692.576-.272-1.767c-.125-.827-.279-1.64-.458-2.426a45.366,45.366,0,0,1,4.387,5.274l.2.281.329.115c13.077,4.7,22.753,9.024,22.855,9.067l2.647,1.187ZM116.145,208.5a65.429,65.429,0,0,1,17.717-7.192c.514-.125,1.027-.245,1.541-.356.416-.092.836-.175,1.259-.256.6-.115,1.192-.217,1.79-.315.333-.052.664-.113,1-.161a58.243,58.243,0,0,1,5.906-.546l.528-.011c.825-.025,1.65-.035,2.479-.022.245,0,.492.011.739.018q1.109.027,2.218.1c.3.022.6.038.906.066.671.052,1.344.122,2.016.2.337.038.68.073,1.015.118.738.1,1.478.22,2.22.349a65.016,65.016,0,0,1,21.576,8H116.146Zm41.012-10.271a60.68,60.68,0,0,0-8.693-.759c-.075,0-.15,0-.225,0-.213,0-.423-.01-.638-.01a61.064,61.064,0,0,0-13.946,1.64c-.3-11.965-.1-58.392,18.189-102.273h9.58c-7.142,44.856-5.218,87.344-4.267,101.406ZM214.6,89.536a52.245,52.245,0,0,0-7.483-8.22l-3.247-2.8,1.528,4.006a28.392,28.392,0,0,1,1.234,4.244c-6.793-2.266-13.261-4.176-19.258-5.689a24.934,24.934,0,0,0-5.392-6.476L178.85,72.17l1.457,3.682a28.64,28.64,0,0,1,1.182,3.839c-3.115-.678-6.122-1.242-8.965-1.677L172,80.107c12.178,4.237,27.343,14.2,31.592,37.608a119.314,119.314,0,0,1-13.195-8.843c.3-4.335.188-7.427.186-7.561l-.256-6.582-1.867,6.315a40.1,40.1,0,0,1-1.808,4.866A89.623,89.623,0,0,1,175.611,95.74a20.7,20.7,0,0,0-2.864-9.473l-1.5-2.3-1.1,6.255c-.168-.245-.337-.492-.5-.739-.646-.95-1.255-1.847-1.7-2.4l-1.291-1.6-.594,1.971c-1.518,5.053-4.076,6.766-4.754,7.142h-8.873A9.346,9.346,0,0,1,148.725,89l-.5-1.83L146.9,88.534c-2.123,2.193-4.141,4.221-6.011,6.049-.988-2.256-1.66-3.888-1.667-3.909L137.6,86.712l-.451,4.26a43.914,43.914,0,0,0-.063,7.25c-4.219,3.951-8.467,7.685-12.659,11.122-.72-3.024-1.052-5.123-1.056-5.146l-1.185-7.54-2.048,16.114c-3.136,2.44-5.564,4.185-7.047,5.215.209-20.623,17.131-31.372,31.547-36.792l-.6-2.074c-3.672.765-7.472,1.633-11.322,2.587,1.119-3.218,2.256-5.7,2.268-5.73l1.849-4.033-3.5,2.726A30.54,30.54,0,0,0,125.8,83.5c-5.769,1.552-11.774,3.31-17.874,5.23a61.751,61.751,0,0,1,1.835-6.085l1.72-4.545-3.487,3.383a38.741,38.741,0,0,0-7.227,9.559c-5.515,1.831-9.8,3.36-12.133,4.214,4.545-14.439,23.428-27.964,40.295-28.407,9.548-.247,13.331.337,18.863,3.5l9.072,5.191-7.815-6.94a72.738,72.738,0,0,0-13.127-9.618c3.58-.354,6.67-.467,6.709-.467l7.128-.252-6.883-1.876a100.478,100.478,0,0,0-16.734-2.864c-4.961-2.62-9.411-4.765-12.459-6.185,1.321-.034,2.877-.059,4.588-.059,10.141,0,28,.873,33.709,6.72,4.534,4.644,5.048,9.845,5.462,14.023A23.418,23.418,0,0,0,158.3,73.1l.72,2.085,1.21-1.84a15.225,15.225,0,0,0,.92-1.9c2.468-5.591,9.972-22.622,31.938-22.622a56.6,56.6,0,0,1,14.551,2.1c-3.081,1.052-8.027,2.823-13.642,5.123a56.886,56.886,0,0,0-14.9.333l-5.769,1.076L179.1,58.5a26.791,26.791,0,0,1,5.3,1.724,65.491,65.491,0,0,0-15.429,9.383l-8.315,6.569,9.471-4.751c5.8-2.911,11.673-4.1,27.431-1.5,20.908,3.446,32.882,20.643,36.825,27.367-3.792-1.613-11.016-4.592-19.789-7.757Z" transform="translate(-73.045 173.335)" fill="#fff" stroke="#008ae9" stroke-width="0.6" opacity="0.193"/>
    <g id="Ellipse_33" data-name="Ellipse 33" transform="translate(613.922 313.423)" fill="none" stroke="#fff" stroke-width="1.5" opacity="0.19">
      <ellipse cx="15.459" cy="15.459" rx="15.459" ry="15.459" stroke="none"/>
      <ellipse cx="15.459" cy="15.459" rx="14.709" ry="14.709" fill="none"/>
    </g>
    <g id="Ellipse_37" data-name="Ellipse 37" transform="translate(395.922 305)" fill="none" stroke="#fff" stroke-width="1.5" opacity="0.19">
      <ellipse cx="5.815" cy="5.815" rx="5.815" ry="5.815" stroke="none"/>
      <ellipse cx="5.815" cy="5.815" rx="5.065" ry="5.065" fill="none"/>
    </g>
    <g id="Group_13759" data-name="Group 13759" transform="translate(127.734 271.896) rotate(-10)" opacity="0.187">
      <g id="Group_13758" data-name="Group 13758" transform="translate(0 0)" clip-path="url(#clip-path)">
        <path id="Path_17542" data-name="Path 17542" d="M540.428,44.264C525.214,92.305,477.837,88.5,454,60.65,404.579,2.9,337.108,9.278,302.922,51.168c-32.663,40.023,26.308,69.489,43.04,17.465C367.089,2.944,268.506-26.247,126.875,31.3,72.136,53.541,12.983,49.01.442,24.062" transform="translate(0.107 0.154)" fill="none" stroke="#fff" stroke-width="1.5" stroke-dasharray="3.748 3.748"/>
      </g>
    </g>
    <path id="Path_17547" data-name="Path 17547" d="M67.886,18.8H53.016L29.208,0H18.164L32.4,18.794H18.081L7.916,9.577H0L9.715,24.436,4.14,31.353h7.881l5.828-1.174H34.192L23.53,40.841h9.225L51.549,30.179H67.888c4.05,0,7.346-2.553,7.346-5.692s-3.3-5.693-7.346-5.693ZM32.325,39.215H27.456l9.035-9.035H48.252ZM67.886,28.554H17.766l-5.908,1.174H7.539l4.184-5.189L3.006,11.206H7.289l10.165,9.216H35.666L21.435,1.629h7.209L52.452,20.422H67.887c3.153,0,5.72,1.824,5.72,4.066s-2.568,4.065-5.72,4.065Z" transform="translate(308.393 167.853) rotate(-22)" fill="#fff" opacity="0.188"/>
    <g id="Ellipse_38" data-name="Ellipse 38" transform="translate(277.816 287.082)" fill="none" stroke="#fff" stroke-width="1.5" opacity="0.19">
      <ellipse cx="8.959" cy="8.959" rx="8.959" ry="8.959" stroke="none"/>
      <ellipse cx="8.959" cy="8.959" rx="8.209" ry="8.209" fill="none"/>
    </g>
    <g id="Group_13761" data-name="Group 13761" transform="translate(188.488 56)" opacity="0.195">
      <path id="Path_17545" data-name="Path 17545" d="M168.837,14.443a8.329,8.329,0,1,0,5.88,2.44,8.32,8.32,0,0,0-5.88-2.44Zm0,15.688a7.377,7.377,0,1,1,5.208-2.161,7.368,7.368,0,0,1-5.208,2.161Zm10.175-17.159a14.337,14.337,0,0,0-20.349,0,13.469,13.469,0,0,0-3.851,9.8c.105,4.651,3.334,8.475,6.753,12.522a48.311,48.311,0,0,1,6.847,9.633.475.475,0,0,0,.852,0,48.3,48.3,0,0,1,6.847-9.633c3.419-4.047,6.648-7.871,6.753-12.521a13.468,13.468,0,0,0-3.851-9.8Zm2.9,9.779c-.1,4.314-3.077,7.841-6.528,11.929a52.534,52.534,0,0,0-6.547,9,52.471,52.471,0,0,0-6.546-9c-3.451-4.086-6.432-7.614-6.528-11.929h0a12.531,12.531,0,0,1,3.581-9.115,13.386,13.386,0,0,1,18.989,0,12.531,12.531,0,0,1,3.581,9.115Zm-.534,21.224c0,1.127-1.342,2.088-3.885,2.779a38.81,38.81,0,0,1-17.313,0c-2.541-.691-3.885-1.652-3.885-2.779,0-.865.768-1.621,2.283-2.245h0a21.125,21.125,0,0,1,5.264-1.222.475.475,0,0,1,.115.944c-4.361.533-6.709,1.7-6.709,2.523,0,.459.834,1.222,3.183,1.861h0a37.876,37.876,0,0,0,16.812,0c2.348-.639,3.183-1.4,3.183-1.861,0-.825-2.352-1.99-6.711-2.523h0a.475.475,0,1,1,.115-.944A21.125,21.125,0,0,1,179.1,41.73c1.515.624,2.283,1.379,2.283,2.245Z" transform="translate(294.052 132.264)" fill="#fdfdfd"/>
    </g>
    <g id="Ellipse_42" data-name="Ellipse 42" transform="translate(519.922 200.582)" fill="none" stroke="#fff" stroke-width="1.5" opacity="0.19">
      <ellipse cx="5.709" cy="5.709" rx="5.709" ry="5.709" stroke="none"/>
      <ellipse cx="5.709" cy="5.709" rx="4.959" ry="4.959" fill="none"/>
    </g>
    <g id="Group_13766" data-name="Group 13766" transform="matrix(0.998, -0.07, 0.07, 0.998, 710, 127.857)" opacity="0.187">
      <g id="Group_13758-2" data-name="Group 13758" transform="translate(0 0)" clip-path="url(#clip-path-2)">
        <path id="Path_17542-2" data-name="Path 17542" d="M651.122,53.236c-18.332,57.889-75.422,53.3-104.141,19.744C487.425,3.4,406.123,11.078,364.928,61.554c-39.359,48.228,31.7,83.734,51.863,21.046,25.458-79.156-93.334-114.33-264-44.987C86.832,64.414,15.553,58.955.442,28.892" transform="translate(0.22 0.288)" fill="none" stroke="#fff" stroke-width="1.5" stroke-dasharray="3.748 3.748"/>
      </g>
    </g>
    <g id="Group_13771" data-name="Group 13771" transform="translate(900.648 -42.056)" opacity="0.195">
      <path id="Path_17545-2" data-name="Path 17545" d="M169.375,14.662A8.649,8.649,0,1,0,175.48,17.2a8.639,8.639,0,0,0-6.105-2.533Zm0,16.289a7.66,7.66,0,1,1,5.407-2.243,7.651,7.651,0,0,1-5.407,2.243ZM179.94,13.134a14.886,14.886,0,0,0-21.129,0,13.985,13.985,0,0,0-4,10.176c.109,4.829,3.462,8.8,7.012,13a50.163,50.163,0,0,1,7.11,10,.493.493,0,0,0,.885,0,50.148,50.148,0,0,1,7.11-10c3.55-4.2,6.9-8.173,7.012-13a13.985,13.985,0,0,0-4-10.178Zm3.012,10.154c-.1,4.48-3.2,8.141-6.779,12.386a54.547,54.547,0,0,0-6.8,9.345,54.483,54.483,0,0,0-6.8-9.344c-3.584-4.242-6.678-7.906-6.779-12.386h0a13.011,13.011,0,0,1,3.718-9.464,13.9,13.9,0,0,1,19.717,0,13.011,13.011,0,0,1,3.718,9.464ZM182.4,45.326c0,1.17-1.393,2.168-4.034,2.886a40.3,40.3,0,0,1-17.977,0c-2.639-.717-4.034-1.715-4.034-2.886,0-.9.8-1.683,2.371-2.331h0a21.935,21.935,0,0,1,5.466-1.269.494.494,0,0,1,.12.98c-4.528.553-6.966,1.762-6.966,2.62,0,.477.866,1.269,3.3,1.933h0a39.328,39.328,0,0,0,17.457,0c2.438-.664,3.305-1.456,3.305-1.933,0-.857-2.442-2.067-6.968-2.62h0a.494.494,0,1,1,.12-.98A21.935,21.935,0,0,1,180.027,43c1.573.648,2.371,1.432,2.371,2.331Z" transform="translate(294.052 132.264)" fill="#fdfdfd"/>
    </g>
    <g id="Group_13770" data-name="Group 13770" transform="matrix(-0.998, -0.07, 0.07, -0.998, 1881.684, 230.25)" opacity="0.187">
      <g id="Group_13758-3" data-name="Group 13758" transform="translate(0 0)" clip-path="url(#clip-path-3)">
        <path id="Path_17542-3" data-name="Path 17542" d="M524.854,50.8c-14.787-46.695-60.837-42.991-84-15.926C392.812,91,327.231,84.809,294,44.094c-31.748-38.9,25.571-67.542,41.834-16.976,20.535,63.849-75.285,92.221-212.947,36.288C69.684,41.787,12.189,46.191,0,70.44" transform="translate(0.534 0.635)" fill="none" stroke="#fff" stroke-width="1.5" stroke-dasharray="3.748 3.748"/>
      </g>
    </g>
    <path id="noun-palm-tree-1496206-2" data-name="noun-palm-tree-1496206" d="M86.724,96.755c.117-.255,12.223-25.662,38.185-29.942a88.724,88.724,0,0,1,14.108-1.437,31.79,31.79,0,0,1,6.5.6,80.889,80.889,0,0,0-10.529-5.428l-1.9-.863,1.84-.994a29.081,29.081,0,0,1,2.756-1.3,66.909,66.909,0,0,0-9.084.264l-.254.022-.238-.1c-8.99-3.69-16.218-5.967-16.291-5.991l-3.138-.983,3.135-1a59.391,59.391,0,0,1,17.717-3.029c20.914,0,28.914,15.059,31.9,21.647.05-.446.094-.908.144-1.391.428-4.324.961-9.7,5.805-14.666,5.694-5.832,21.491-7.054,33.744-7.054,5.144,0,8.83.231,8.868.233l4.307.274-3.962,1.713c-.07.031-7.2,3.118-15.955,7.757l-.183.1-.207.021c-3.185.3-6.181.689-8.963,1.177.846.089,1.715.193,2.57.312l3,.42-2.633,1.507a85.716,85.716,0,0,0-9.566,6.069c3.251-.833,6.917-1,12.582-.855,17.7.466,37.645,15.384,41.035,30.7l.414,1.874-1.795-.682c-.055-.021-5.516-2.087-13.812-4.832l-.4-.134-.2-.374a34.527,34.527,0,0,0-3.584-5.531c.269.981.55,2.093.819,3.3l.394,1.761-1.721-.548c-6.556-2.093-13.007-3.993-19.172-5.642l-.422-.113-.212-.379a30.3,30.3,0,0,0-3.491-4.975c.341.925.694,1.948,1.031,3.018l.553,1.773-1.8-.457c-.882-.226-1.759-.444-2.635-.66,11.955,6.489,22.847,17.26,22.132,34.884l-.072,1.811-1.525-.981c-.135-.088-3.39-2.194-8.8-6.425l-.334-.264-.375-2.941c-.053.211-.108.428-.164.647l-.4,1.557-1.251-1.01c-4.574-3.695-9.235-7.767-13.851-12.108l-.358-.336.034-.49q.09-1.292.12-2.47c-.118.272-.245.553-.372.841l-.6,1.347-1.064-1.023c-1.759-1.7-3.667-3.594-5.684-5.658a10.667,10.667,0,0,1-2.71,4c18.114,43.114,18.054,88.878,17.753,99.661a59.327,59.327,0,0,1,18.816,8.688l2.465,1.864H136.371l2.465-1.864a60.473,60.473,0,0,1,22.972-9.66c.9-12.932,2.9-54.548-4.219-98.287l-.08-.507a13.8,13.8,0,0,1-3.426-5.079c-.137.2-.274.4-.411.6-.73,1.072-1.482,2.181-2.011,2.79l-1.429,1.641L149.4,88.45a17.99,17.99,0,0,0-1.091,5.569l-.014.387-.264.283a90.652,90.652,0,0,1-11.743,10.778l-1.362,1.1-.565-1.184c-.091-.188-.18-.377-.264-.564.031.545.067,1.119.11,1.711l.046.558-.445.342a103.911,103.911,0,0,1-15.237,10.016l-1.78.9.288-1.975c2.9-19.677,13.319-30.327,23.751-36.085-.442.1-.884.2-1.328.3l-1.552.355.305-1.562c.088-.459.183-.909.284-1.347a26.2,26.2,0,0,0-1.973,2.926l-.217.377-.425.106c-6.29,1.571-13.139,3.609-20.352,6.063l-1.619.551.26-1.691c.12-.791.267-1.569.438-2.321a43.413,43.413,0,0,0-4.2,5.047l-.187.269-.315.11C97.44,93.96,88.18,98.1,88.083,98.137l-2.533,1.136ZM203.159,201.468a62.612,62.612,0,0,0-16.955-6.883c-.492-.12-.983-.235-1.475-.341-.4-.088-.8-.168-1.2-.245-.572-.11-1.141-.207-1.713-.3-.318-.05-.636-.108-.961-.154a55.733,55.733,0,0,0-5.652-.522l-.505-.01c-.79-.024-1.579-.034-2.373-.021-.235,0-.471.01-.708.017q-1.061.026-2.122.1c-.291.021-.579.036-.867.064-.642.05-1.286.117-1.929.194-.322.036-.651.07-.971.113-.706.094-1.415.211-2.124.334a62.218,62.218,0,0,0-20.648,7.656h60.2Zm-39.247-9.829a58.07,58.07,0,0,1,8.319-.727c.072,0,.144,0,.216,0,.2,0,.4-.01.61-.01a58.437,58.437,0,0,1,13.346,1.569c.284-11.45.1-55.878-17.406-97.87h-9.168c6.834,42.925,4.993,83.583,4.083,97.04ZM108.945,87.624a50,50,0,0,1,7.16-7.866l3.108-2.679-1.463,3.834a27.171,27.171,0,0,0-1.181,4.062c6.5-2.169,12.69-4,18.429-5.444a23.86,23.86,0,0,1,5.16-6.2l2.995-2.326-1.395,3.524a27.4,27.4,0,0,0-1.131,3.674c2.981-.649,5.858-1.189,8.579-1.6l.5,2c-11.654,4.054-26.166,13.591-30.232,35.989a114.18,114.18,0,0,0,12.627-8.462c-.291-4.149-.18-7.107-.178-7.236l.245-6.3,1.787,6.043a38.372,38.372,0,0,0,1.73,4.656,85.764,85.764,0,0,0,10.566-9.732,19.8,19.8,0,0,1,2.741-9.065l1.432-2.2,1.053,5.986c.161-.235.322-.471.481-.708.618-.909,1.2-1.768,1.629-2.3l1.235-1.535.569,1.886c1.453,4.836,3.9,6.475,4.55,6.835h8.491a8.944,8.944,0,0,0,3.548-5.353l.483-1.751,1.261,1.307c2.031,2.1,3.963,4.039,5.752,5.788.946-2.159,1.588-3.72,1.595-3.741l1.559-3.791L183.063,89a42.023,42.023,0,0,1,.06,6.938c4.038,3.781,8.1,7.354,12.114,10.643.689-2.894,1.007-4.9,1.01-4.925l1.134-7.215,1.96,15.42c3,2.335,5.324,4,6.744,4.99-.2-19.735-16.394-30.022-30.189-35.208l.577-1.985c3.514.732,7.15,1.562,10.835,2.475-1.071-3.08-2.159-5.457-2.17-5.483l-1.769-3.859L186.72,73.4a29.225,29.225,0,0,1,7.2,8.445c5.521,1.485,11.267,3.167,17.1,5.005a59.093,59.093,0,0,0-1.756-5.823l-1.646-4.349,3.337,3.238a37.072,37.072,0,0,1,6.916,9.147c5.278,1.753,9.377,3.215,11.611,4.032-4.349-13.817-22.419-26.76-38.56-27.184-9.137-.236-12.757.322-18.051,3.354l-8.682,4.968,7.479-6.641a69.607,69.607,0,0,1,12.562-9.2c-3.426-.339-6.382-.447-6.42-.447l-6.821-.241L177.58,55.9a96.153,96.153,0,0,1,16.014-2.741c4.747-2.508,9.006-4.56,11.923-5.919-1.264-.032-2.753-.056-4.391-.056-9.7,0-26.8.836-32.258,6.43-4.339,4.444-4.831,9.422-5.227,13.42a22.411,22.411,0,0,1-.822,4.856l-.689,2-1.158-1.761a14.571,14.571,0,0,1-.88-1.823c-2.362-5.35-9.543-21.648-30.563-21.648A54.16,54.16,0,0,0,115.6,50.664c2.948,1.007,7.681,2.7,13.055,4.9a54.438,54.438,0,0,1,14.256.318l5.521,1.029-5.524,1.009a25.637,25.637,0,0,0-5.072,1.65A62.672,62.672,0,0,1,152.6,68.552l7.957,6.287L151.5,70.292c-5.55-2.785-11.171-3.923-26.251-1.435-20.008,3.3-31.467,19.754-35.24,26.189,3.629-1.544,10.541-4.394,18.938-7.423Z" transform="translate(2325.564 179.236)" fill="#fff" stroke="#008ae9" stroke-width="0.6" opacity="0.193"/>
    <g id="Group_13767" data-name="Group 13767" transform="matrix(-0.985, -0.174, 0.174, -0.985, 2433.693, 365.912)" opacity="0.187">
      <g id="Group_13758-4" data-name="Group 13758" transform="translate(0 0)" clip-path="url(#clip-path-4)">
        <path id="Path_17542-4" data-name="Path 17542" d="M565.241,54.713c-15.925-50.288-65.519-46.3-90.466-17.152-51.736,60.446-122.363,53.774-158.148,9.925C282.436,5.591,344.165-25.252,361.68,29.2,383.8,97.966,280.6,128.522,132.346,68.284,75.047,45,13.127,49.745,0,75.86" transform="translate(0.575 0.684)" fill="none" stroke="#fff" stroke-width="1.5" stroke-dasharray="3.748 3.748"/>
      </g>
    </g>
    <path id="Path_17548" data-name="Path 17548" d="M75.736,24.6H59.147L32.586,45.564H20.264L36.142,24.6H20.172L8.831,34.879H0L10.839,18.3,4.619,10.585h8.792l6.5,1.31H38.146L26.251,0H36.544L57.51,11.9H75.738c4.518,0,8.2,2.849,8.2,6.35s-3.678,6.351-8.2,6.351ZM36.063,1.814H30.631l10.08,10.08H53.832ZM75.736,13.708H19.821L13.229,12.4H8.411l4.667,5.789L3.353,33.062H8.131L19.471,22.78h20.32L23.914,43.747h8.042L58.517,22.78h17.22c3.518,0,6.381-2.035,6.382-4.537s-2.865-4.535-6.381-4.535Z" transform="translate(2228.924 207.869) rotate(-158)" fill="#fff" opacity="0.188"/>
    <g id="Group_13769" data-name="Group 13769" transform="translate(1913.264 214.353)" opacity="0.195">
      <path id="Path_17545-3" data-name="Path 17545" d="M167.123,13.746a7.311,7.311,0,1,0,5.161,2.142,7.3,7.3,0,0,0-5.161-2.142Zm0,13.771a6.475,6.475,0,1,1,4.571-1.9,6.468,6.468,0,0,1-4.571,1.9Zm8.931-15.062a12.584,12.584,0,0,0-17.862,0,11.822,11.822,0,0,0-3.381,8.6c.092,4.083,2.926,7.439,5.927,10.992a42.407,42.407,0,0,1,6.01,8.456.417.417,0,0,0,.748,0,42.394,42.394,0,0,1,6.01-8.456c3-3.553,5.835-6.909,5.927-10.991a11.822,11.822,0,0,0-3.381-8.6Zm2.546,8.584c-.085,3.787-2.7,6.882-5.731,10.471a46.111,46.111,0,0,0-5.747,7.9,46.057,46.057,0,0,0-5.746-7.9c-3.03-3.586-5.646-6.684-5.731-10.471h0a11,11,0,0,1,3.143-8,11.75,11.75,0,0,1,16.668,0,11,11,0,0,1,3.143,8Zm-.469,18.63c0,.989-1.178,1.833-3.41,2.44a34.067,34.067,0,0,1-15.2,0c-2.231-.607-3.41-1.45-3.41-2.44,0-.76.674-1.423,2-1.97h0a18.543,18.543,0,0,1,4.62-1.072.417.417,0,0,1,.1.828c-3.828.468-5.889,1.49-5.889,2.215,0,.4.732,1.073,2.794,1.634h0a33.247,33.247,0,0,0,14.757,0c2.061-.561,2.794-1.231,2.794-1.634,0-.725-2.064-1.747-5.891-2.215h0a.417.417,0,1,1,.1-.828,18.543,18.543,0,0,1,4.62,1.072c1.33.548,2,1.211,2,1.971Z" transform="translate(-154.807 -8.736)" fill="#fdfdfd"/>
    </g>
    <g id="Ellipse_39" data-name="Ellipse 39" transform="translate(2005.362 334.512)" fill="none" stroke="#fff" stroke-width="1.5" opacity="0.19">
      <ellipse cx="14.793" cy="14.793" rx="14.793" ry="14.793" stroke="none"/>
      <ellipse cx="14.793" cy="14.793" rx="14.043" ry="14.043" fill="none"/>
    </g>
    <g id="Ellipse_40" data-name="Ellipse 40" transform="translate(2232.434 326.452)" fill="none" stroke="#fff" stroke-width="1.5" opacity="0.19">
      <ellipse cx="5.565" cy="5.565" rx="5.565" ry="5.565" stroke="none"/>
      <ellipse cx="5.565" cy="5.565" rx="4.815" ry="4.815" fill="none"/>
    </g>
    <g id="Ellipse_41" data-name="Ellipse 41" transform="translate(2339.438 309.305)" fill="none" stroke="#fff" stroke-width="1.5" opacity="0.19">
      <ellipse cx="8.573" cy="8.573" rx="8.573" ry="8.573" stroke="none"/>
      <ellipse cx="8.573" cy="8.573" rx="7.823" ry="7.823" fill="none"/>
    </g>
  </g>
</svg>
