<svg xmlns="http://www.w3.org/2000/svg" xmlns:xlink="http://www.w3.org/1999/xlink" width="34.452" height="35.469" viewBox="0 0 34.452 35.469">
  <defs>
    <filter id="Rectangle_590" x="0" y="0" width="34.452" height="35.469" filterUnits="userSpaceOnUse">
      <feOffset dy="1" input="SourceAlpha"/>
      <feGaussianBlur stdDeviation="1" result="blur"/>
      <feFlood flood-opacity="0.161"/>
      <feComposite operator="in" in2="blur"/>
      <feComposite in="SourceGraphic"/>
    </filter>
  </defs>
  <g id="edit" transform="translate(109.69 -207.278) rotate(90)">
    <g transform="matrix(0, -1, 1, 0, 207.28, 109.69)" filter="url(#Rectangle_590)">
      <rect id="Rectangle_590-2" data-name="Rectangle 590" width="29.469" height="28.452" rx="2" transform="translate(31.45 2) rotate(90)" fill="#fff"/>
    </g>
    <path id="noun-pencil-1592845" d="M2.8,7.677H4.339V19.159a3.448,3.448,0,0,1-.734.134,3.347,3.347,0,0,1-.8-.134Zm2.2,11.482V7.677H6.476V19.36a1.88,1.88,0,0,1-1.469-.2Zm-2.47.6a2.766,2.766,0,0,0,1.068.134,2.593,2.593,0,0,0,1-.134,3.008,3.008,0,0,0,1.669.334L4.54,22.764H2.67l-1.8-2.67a3.009,3.009,0,0,0,1.669-.334ZM3.271,24.9a.376.376,0,0,0,.6,0l3.2-4.873a.245.245,0,0,0,.067-.2V3.605A3.572,3.572,0,1,0,0,3.605V19.827a.245.245,0,0,0,.067.2l3.2,4.873ZM.668,7.01V5.541H6.476V7.01Zm0-2.136V3.605A2.88,2.88,0,0,1,3.605.668,2.865,2.865,0,0,1,6.476,3.605V4.874Zm0,2.8H2.136V19.16a1.881,1.881,0,0,1-1.469.2Z" transform="translate(230.529 80.452) rotate(43)" fill-rule="evenodd"/>
  </g>
</svg>
