<svg xmlns="http://www.w3.org/2000/svg" width="35" height="35" viewBox="0 0 35 35">
  <g id="FB" transform="translate(-682 -4735)">
    <path id="facebook-icon" d="M15.683,0,12.775,0C9.508,0,7.4,2.166,7.4,5.519V8.063H4.473a.457.457,0,0,0-.457.457v3.687a.457.457,0,0,0,.457.457H7.4v9.3a.457.457,0,0,0,.457.457h3.815a.457.457,0,0,0,.457-.457v-9.3h3.419A.457.457,0,0,0,16,12.207V8.521a.458.458,0,0,0-.457-.457h-3.42V5.906c0-1.037.247-1.563,1.6-1.563h1.959a.457.457,0,0,0,.457-.457V.462A.457.457,0,0,0,15.683,0Z" transform="translate(689.772 4740.44)" fill="#fff"/>
    <g id="Rectangle_134" data-name="Rectangle 134" transform="translate(682 4735)" fill="none" stroke="#fff" stroke-width="1">
      <rect width="35" height="35" rx="2" stroke="none"/>
      <rect x="0.5" y="0.5" width="34" height="34" rx="1.5" fill="none"/>
    </g>
  </g>
</svg>
