<svg xmlns="http://www.w3.org/2000/svg" width="46.965" height="31.292" viewBox="0 0 46.965 31.292">
  <path id="networkIcon" d="M4.109-786.106,0-790.216a32.631,32.631,0,0,1,10.518-7.191A32.407,32.407,0,0,1,23.482-800q1.174,0,2.348.073t2.348.22l-2.935,5.675a6.067,6.067,0,0,0-.954-.1h-.807A26.724,26.724,0,0,0,12.842-792,27.611,27.611,0,0,0,4.109-786.106Zm8.317,8.317L8.317-782a20.914,20.914,0,0,1,6.286-4.33,21.8,21.8,0,0,1,7.705-1.835l-3.131,6.36a17.069,17.069,0,0,0-3.62,1.59A15.466,15.466,0,0,0,12.426-777.79Zm9.686,8.806a4.179,4.179,0,0,1-2.275-2.03,3.038,3.038,0,0,1-.073-2.96l11.741-23.874a.962.962,0,0,1,.563-.514,1.254,1.254,0,0,1,.807.024,1.094,1.094,0,0,1,.587.489,1.062,1.062,0,0,1,.1.783L27.2-771.332a3.166,3.166,0,0,1-1.957,2.275A4.088,4.088,0,0,1,22.113-768.984Zm12.426-8.806q-.294-.294-.636-.587t-.734-.587l1.565-6.164q1.027.734,2.03,1.492A18.076,18.076,0,0,1,38.648-782Zm8.317-8.317A26.188,26.188,0,0,0,39.7-788.8a27.513,27.513,0,0,0-3.6-2.2l1.37-5.871a36.923,36.923,0,0,1,5.039,2.935,32.419,32.419,0,0,1,4.452,3.718Z" transform="translate(0 800)"/>
</svg>
