<svg xmlns="http://www.w3.org/2000/svg" width="99.514" height="97" viewBox="0 0 99.514 97">
  <g id="Pre-Book" transform="translate(-83.998 -20.718)">
    <path id="Path_874" data-name="Path 874" d="M159,61.99c1.152,0,2.2.1,3.352.21V39.993a12.831,12.831,0,0,0-12.78-12.78H141.4V24.071a3.352,3.352,0,1,0-6.7,0v3.143H111.652V24.071a3.352,3.352,0,1,0-6.7,0v3.143H96.881A12.853,12.853,0,0,0,84,39.993V83.779a12.831,12.831,0,0,0,12.78,12.78h31.111c-.1-1.152-.21-2.2-.21-3.352A31.452,31.452,0,0,1,159,61.99Zm-68.3-15.4V40.1a6.191,6.191,0,0,1,6.18-6.18h8.066V37.06a3.352,3.352,0,0,0,6.7,0V33.917H134.7V37.06a3.352,3.352,0,0,0,6.7,0V33.917h8.171a6.1,6.1,0,0,1,6.076,6.18v6.494Z" fill="#27535f"/>
    <path id="Path_875" data-name="Path 875" d="M378.432,277.2a24.512,24.512,0,1,0,24.512,24.512A24.544,24.544,0,0,0,378.432,277.2Zm9.218,27.864h-9.218a3.31,3.31,0,0,1-3.352-3.352V290.294a3.352,3.352,0,0,1,6.7,0v8.066h5.866a3.352,3.352,0,1,1,0,6.7Z" transform="translate(-219.431 -208.505)" fill="#27535f"/>
  </g>
</svg>
