<svg xmlns="http://www.w3.org/2000/svg" width="51.033" height="52" viewBox="0 0 51.033 52">
  <g id="TTA_ATOL-Protected" data-name="TTA&amp;ATOL-Protected" transform="translate(-93.458 -18.561)">
    <path id="Path_271" data-name="Path 271" d="M126.66,24.547a3.4,3.4,0,0,1,1.212.222l14.273,5.412a3.43,3.43,0,0,1,2.348,3.254v9.478a20.126,20.126,0,0,1-8.384,16.752,25.945,25.945,0,0,1-8.624,4.189,3.434,3.434,0,0,1-1.647,0,25.939,25.939,0,0,1-8.624-4.189,20.122,20.122,0,0,1-8.384-16.752V33.435a3.429,3.429,0,0,1,2.348-3.254l14.273-5.412a3.405,3.405,0,0,1,1.212-.222Zm-26.548-5.982h21.037a6.631,6.631,0,0,1,4.7,1.954A6.752,6.752,0,0,1,126.966,22c-.1-.005-.2-.009-.307-.009a6,6,0,0,0-2.119.388l-14.229,5.4a5.988,5.988,0,0,0-4.042,5.66V42.91a22.684,22.684,0,0,0,9.413,18.8,28.2,28.2,0,0,0,9.543,4.621,5.953,5.953,0,0,0,2.057.14,6.68,6.68,0,0,1-6.134,4.086H100.111a6.67,6.67,0,0,1-6.653-6.653V25.213a6.67,6.67,0,0,1,6.653-6.653Zm18.7,25.183a1.14,1.14,0,0,1,1.659-1.562l4.342,4.617,8.546-7.324a1.139,1.139,0,1,1,1.482,1.731l-9.352,8.016a1.14,1.14,0,0,1-1.591-.068Zm6.191-.476,6.693-5.735a3.7,3.7,0,1,1,4.809,5.615l-9.336,8a3.7,3.7,0,0,1-5.133-.244L116.952,45.5a3.7,3.7,0,0,1,5.388-5.067l2.668,2.837Z" transform="translate(0 0)" fill="#70b32f" fill-rule="evenodd"/>
  </g>
</svg>
