<svg xmlns="http://www.w3.org/2000/svg" width="37.287" height="45.917" viewBox="0 0 37.287 45.917">
  <g id="shield-check" transform="translate(1.5 1.518)">
    <path id="Path_17675" data-name="Path 17675" d="M28.34,6.174,13.273,12.6A2.073,2.073,0,0,0,12,14.546c0,9.386.375,13.586,2.076,18.423,2.227,6.332,6.6,11.379,14,15.607a2.171,2.171,0,0,0,2.143,0c7.464-4.267,11.855-9.3,14.062-15.607,1.68-4.8,2.01-8.8,2.01-18.423A2.086,2.086,0,0,0,45.014,12.6L30.082,6.174A2.273,2.273,0,0,0,28.34,6.174Zm.8,4.219,12.849,5.578c.186,15.376-2.827,22.115-12.83,28.246C18.9,37.833,16.174,31.021,16.279,15.988,19.2,14.741,26.673,11.447,29.144,10.393Z" transform="translate(-12 -6)" stroke="#fff" stroke-width="3"/>
    <path id="Path_17676" data-name="Path 17676" d="M38.342,27.628a2.143,2.143,0,0,1,3.031,3.031l-6.429,6.429a2.143,2.143,0,0,1-3.031,0L27.628,32.8a2.143,2.143,0,1,1,3.031-3.031l2.771,2.771Z" transform="translate(-16.285 -11.999)" stroke="#fff" stroke-width="3" fill-rule="evenodd"/>
  </g>
</svg>
