<svg xmlns="http://www.w3.org/2000/svg" width="155.2" height="97" viewBox="0 0 155.2 97">
  <g id="Screens" transform="translate(-70 -105)">
    <path id="Path_876" data-name="Path 876" d="M215.5,105H79.7a9.71,9.71,0,0,0-9.7,9.7v77.6a9.71,9.71,0,0,0,9.7,9.7H215.5a9.71,9.71,0,0,0,9.7-9.7V114.7a9.71,9.71,0,0,0-9.7-9.7Zm-80.527,44.359,9.7-9.7a2.425,2.425,0,0,1,3.43,3.43l-9.7,9.7a2.425,2.425,0,0,1-3.43-3.43Zm-3.638,16.975,29.1-29.1a2.425,2.425,0,0,1,3.43,3.43l-29.1,29.1a2.425,2.425,0,0,1-3.43-3.43Zm30.1-9.908-9.7,9.7a2.425,2.425,0,0,1-3.43-3.43l9.7-9.7a2.425,2.425,0,0,1,3.43,3.43ZM220.349,192.3H74.849v-4.85h145.5Z" fill="#27535f"/>
  </g>
</svg>
