<svg xmlns="http://www.w3.org/2000/svg" width="46.249" height="52" viewBox="0 0 46.249 52">
  <g id="_24x7-Customer-Support" data-name="24x7-Customer-Support" transform="translate(201.469 42.8)">
    <path id="Path_279" data-name="Path 279" d="M167.939,46.342c0-11.656-9.714-21.142-21.713-21.142s-21.713,9.485-21.713,21.142v1.714h.034A12,12,0,0,0,135.37,65.2a1.714,1.714,0,0,0,1.714-1.714V42.913h0A1.715,1.715,0,0,0,135.37,41.2a11.921,11.921,0,0,0-7.217,2.434,18.389,18.389,0,0,1,36.055-.473h0a11.921,11.921,0,0,0-6.554-1.96,1.715,1.715,0,0,0-1.714,1.714v20.57h0a1.714,1.714,0,0,0,1.714,1.714,11.934,11.934,0,0,0,3.074-.411,7.217,7.217,0,0,1-6.857,4.983h-1.017a6.422,6.422,0,1,0-.394,3.429h1.411A10.639,10.639,0,0,0,164.488,63.05a11.942,11.942,0,0,0,3.429-16Z" transform="translate(-324.858 -68)" fill="#70b32f"/>
  </g>
</svg>
