<svg xmlns="http://www.w3.org/2000/svg" width="35" height="35" viewBox="0 0 35 35">
  <g id="Twitter" transform="translate(-770 -4735)">
    <path id="twitter-icon" d="M23.447,11.374a9.072,9.072,0,0,1-1.58.533,4.925,4.925,0,0,0,1.3-2.07h0a.258.258,0,0,0-.378-.3h0a9.115,9.115,0,0,1-2.415,1,.615.615,0,0,1-.151.019.64.64,0,0,1-.423-.161,4.939,4.939,0,0,0-3.268-1.233,5.281,5.281,0,0,0-1.565.242,4.785,4.785,0,0,0-3.225,3.448,5.269,5.269,0,0,0-.117,1.819.177.177,0,0,1-.045.139.183.183,0,0,1-.136.062h-.018a12.951,12.951,0,0,1-8.9-4.755h0a.258.258,0,0,0-.423.033h0a4.945,4.945,0,0,0,.8,6,4.426,4.426,0,0,1-1.127-.436h0a.258.258,0,0,0-.384.223h0a4.945,4.945,0,0,0,2.885,4.556H4.176a4.443,4.443,0,0,1-.832-.079h0a.258.258,0,0,0-.294.332h0a4.95,4.95,0,0,0,3.91,3.367,9.114,9.114,0,0,1-5.1,1.55H1.284a.378.378,0,0,0-.37.285.391.391,0,0,0,.187.432,13.556,13.556,0,0,0,6.812,1.837,13.742,13.742,0,0,0,5.821-1.235,12.854,12.854,0,0,0,4.259-3.192A13.993,13.993,0,0,0,20.6,19.419a13.8,13.8,0,0,0,.886-4.781v-.075a.84.84,0,0,1,.314-.654,9.762,9.762,0,0,0,1.964-2.156h0a.258.258,0,0,0-.319-.379Z" transform="translate(775.252 4733.209)" fill="#fff"/>
    <g id="Rectangle_136" data-name="Rectangle 136" transform="translate(770 4735)" fill="none" stroke="#fff" stroke-width="1">
      <rect width="35" height="35" rx="2" stroke="none"/>
      <rect x="0.5" y="0.5" width="34" height="34" rx="1.5" fill="none"/>
    </g>
  </g>
</svg>
